<svg width="251" height="34" fill="none" xmlns="http://www.w3.org/2000/svg"><path d="M142.806 33.097c-.914 0-1.671-.301-2.273-.903-.602-.613-.892-1.36-.892-2.262 0-.903.29-1.66.892-2.262.602-.602 1.359-.903 2.273-.903.546 0 1.059.123 1.527.39.468.256.836.602 1.103 1.048l-1.348.769a1.24 1.24 0 0 0-.513-.502 1.513 1.513 0 0 0-.769-.19c-.49 0-.88.145-1.181.457-.29.301-.446.703-.446 1.193 0 .49.156.891.446 1.192.301.301.691.457 1.181.457.279 0 .535-.067.769-.19.223-.122.401-.3.513-.512l1.348.78a2.849 2.849 0 0 1-1.103 1.048c-.468.256-.97.39-1.527.39zm19.869-.914c-.613.602-1.37.914-2.262.914a3.095 3.095 0 0 1-2.251-.914c-.624-.613-.925-1.36-.925-2.251 0-.892.301-1.638.925-2.251.613-.613 1.36-.914 2.251-.914.892 0 1.649.301 2.262.914s.925 1.36.925 2.25c0 .892-.312 1.639-.925 2.252zm-3.432-1.07c.312.312.702.468 1.17.468.468 0 .858-.156 1.17-.468.312-.312.468-.702.468-1.181 0-.48-.156-.88-.468-1.181-.312-.312-.702-.468-1.17-.468-.468 0-.858.156-1.17.468-.312.3-.468.702-.468 1.18 0 .48.156.87.468 1.182zm22.889-4.223v6.073h-1.538v-3.265l-1.482 2.43h-.156l-1.46-2.419v3.254h-1.56V26.89h1.56l1.538 2.596 1.56-2.596h1.538zm14.944 0c.613 0 1.125.2 1.549.601.412.402.624.914.624 1.527 0 .624-.212 1.126-.624 1.527-.424.401-.936.602-1.549.602h-.803v1.816h-1.56V26.89h2.363zm0 2.774a.555.555 0 0 0 .434-.178.629.629 0 0 0 .179-.468.629.629 0 0 0-.179-.468.594.594 0 0 0-.434-.178h-.803v1.293h.803zm17.618 3.299-.301-.87h-2.062l-.256.87h-1.683l1.928-6.073h1.962l2.005 6.073h-1.593zm-1.961-2.207h1.225l-.624-2.072-.601 2.072zm18.966-3.866h1.538v6.073h-1.192l-2.14-3.053v3.053h-1.549V26.89h1.204l2.139 3.053V26.89zm19.301 0-2.05 3.744v2.329h-1.549v-2.318l-2.051-3.755h1.739l1.08 2.25 1.081-2.25H251z" fill="#2B2A28"/><path fill-rule="evenodd" clip-rule="evenodd" d="m174.042.067 16.782 18.777h-6.363L167.679.067h6.363zM192.752.067l16.782 18.777h-6.351L186.4.067h6.352zM211.518.067 228.3 18.844h-6.363L205.155.067h6.363z" fill="#CB8734"/><path fill-rule="evenodd" clip-rule="evenodd" d="m240.636 12.425 5.728 6.419h-5.115l-5.739-6.419-4.134-4.558h12.849c.913 0 1.671-.746 1.671-1.66 0-.903-.758-1.66-1.671-1.66h-15.457L224.211 0h20.014c3.421 0 6.218 2.797 6.218 6.207 0 3.421-2.797 6.218-6.218 6.218h-3.589zM0 .067H30.333v4.546H17.44v14.23h-4.547V4.614H0V.067zm53.478 0H68.21c4.893 0 8.893 4 8.893 8.881v1.003c0 4.892-4 8.893-8.893 8.893H53.48c-4.893 0-8.893-4-8.893-8.893V8.948c0-4.88 4-8.881 8.892-8.881zm0 4.546H68.21a4.347 4.347 0 0 1 4.335 4.335v1.003a4.347 4.347 0 0 1-4.335 4.335H53.48a4.347 4.347 0 0 1-4.335-4.335V8.948a4.347 4.347 0 0 1 4.334-4.335zM98.722.067v10.085l.089-.1L114.423.067h8.146L110.021 7.9l15.546 10.943h-8.235l-11.723-8.19-6.887 4.3v3.89h-4.558V.067h4.558zM154.607.1l17.162 18.744H150.44l4.546-4.558h6.441l-6.775-7.41-10.932 11.968h-5.884L154.607.1z" fill="#2B2A28"/></svg>