<svg width="55" height="55" fill="none" xmlns="http://www.w3.org/2000/svg"><path d="M52.916 32.212a.81.81 0 0 0 1.384-.574V29.38a.811.811 0 0 0-1.621 0v2.26a.81.81 0 0 0 .237.573z" fill="#CB8734" stroke="#CB8734" stroke-width=".1"/><path d="M4.043 54.175h47.164a3.093 3.093 0 0 0 3.093-3.093V36.963a.81.81 0 0 0-1.621 0v14.12a1.472 1.472 0 0 1-1.472 1.47H4.043a1.472 1.472 0 0 1-1.472-1.47V3.917a1.471 1.471 0 0 1 1.472-1.472h47.164a1.471 1.471 0 0 1 1.472 1.472v12.597a.81.81 0 1 0 1.621 0V3.918A3.093 3.093 0 0 0 51.207.825H4.043A3.093 3.093 0 0 0 .95 3.918v47.164a3.093 3.093 0 0 0 3.093 3.093z" fill="#CB8734" stroke="#CB8734" stroke-width=".1"/><path d="M52.916 24.627a.81.81 0 0 0 1.384-.573V21.84a.81.81 0 1 0-1.621 0v2.214a.81.81 0 0 0 .237.573z" fill="#CB8734" stroke="#CB8734" stroke-width=".1"/><mask id="a" maskUnits="userSpaceOnUse" x="28.429" y="8.272" width="24.042" height="24.042" fill="#000"><path fill="#fff" d="M28.429 8.272h24.042v24.042H28.429z"/><path fill-rule="evenodd" clip-rule="evenodd" d="M45.369 16.569a.76.76 0 0 0 .538-1.299l-4.983-4.982a.76.76 0 0 0-1.076 0l-4.982 4.982a.76.76 0 0 0 1.075 1.076l3.685-3.684V29.76a.76.76 0 0 0 1.521 0V12.662l3.684 3.684a.76.76 0 0 0 .538.223z"/></mask><path fill-rule="evenodd" clip-rule="evenodd" d="M45.369 16.569a.76.76 0 0 0 .538-1.299l-4.983-4.982a.76.76 0 0 0-1.076 0l-4.982 4.982a.76.76 0 0 0 1.075 1.076l3.685-3.684V29.76a.76.76 0 0 0 1.521 0V12.662l3.684 3.684a.76.76 0 0 0 .538.223z" fill="#CB8734"/><path d="M40.386 10.065v-.1.1zm-5.743 5.743h-.1.1zm.76.76v-.1.1zm4.223-3.906h.1v-.242l-.17.171.07.07zm0 17.098h-.1.1zm.128.423-.083.055.083-.055zm.341.28-.038.092.038-.092zm.44.043.02.098-.02-.098zm.39-.208.07.07-.07-.07zm.222-.538h-.1.1zm0-17.098.07-.07-.17-.171v.241h.1zm4.689 3.613a.66.66 0 0 1-.467.194v.2a.86.86 0 0 0 .608-.252l-.141-.142zm.194-.467a.66.66 0 0 1-.194.467l.141.142a.86.86 0 0 0 .253-.609h-.2zm-.194-.467a.66.66 0 0 1 .194.467h.2a.86.86 0 0 0-.253-.608l-.141.141zm-4.983-4.983 4.983 4.983.141-.141-4.982-4.983-.142.141zm-.467-.193a.66.66 0 0 1 .467.193l.142-.141a.86.86 0 0 0-.609-.252v.2zm-.467.193a.66.66 0 0 1 .467-.193v-.2a.86.86 0 0 0-.608.252l.141.141zm-4.983 4.983 4.983-4.983-.141-.141-4.983 4.983.141.141zm-.193.467a.66.66 0 0 1 .193-.467l-.141-.141a.86.86 0 0 0-.252.608h.2zm.193.467a.66.66 0 0 1-.193-.467h-.2c0 .229.09.447.252.609l.141-.142zm.468.194a.66.66 0 0 1-.468-.194l-.141.142c.161.161.38.252.609.252v-.2zm.467-.194a.66.66 0 0 1-.467.194v.2a.86.86 0 0 0 .608-.252l-.141-.142zm3.684-3.684-3.684 3.684.141.142 3.684-3.685-.14-.14zm.17 17.17v-17.1h-.2v17.1h.2zm.112.366a.66.66 0 0 1-.111-.367h-.2c0 .17.05.337.145.478l.166-.11zm.297.244a.66.66 0 0 1-.297-.244l-.166.111a.862.862 0 0 0 .386.317l.077-.184zm.381.037a.66.66 0 0 1-.381-.037l-.077.184a.86.86 0 0 0 .497.05l-.039-.197zm.339-.18a.661.661 0 0 1-.339.18l.04.196a.861.861 0 0 0 .44-.235l-.141-.142zm.193-.468a.66.66 0 0 1-.193.467l.141.142a.86.86 0 0 0 .252-.609h-.2zm0-17.098V29.76h.2V12.662h-.2zm3.855 3.613-3.684-3.683-.142.14 3.684 3.685.142-.142zm.467.194a.66.66 0 0 1-.467-.194l-.142.142a.86.86 0 0 0 .609.252v-.2z" fill="#CB8734" mask="url(#a)"/><mask id="b" maskUnits="userSpaceOnUse" x="7.777" y="28.305" width="24.042" height="24.042" fill="#000"><path fill="#fff" d="M7.777 28.305h24.042v24.042H7.777z"/><path fill-rule="evenodd" clip-rule="evenodd" d="M9.591 40.403a.761.761 0 0 0 .218.4l4.973 4.973a.76.76 0 1 0 1.076-1.076l-3.684-3.684h17.098a.761.761 0 0 0 0-1.522H12.174l3.684-3.684a.759.759 0 0 0-.247-1.24.761.761 0 0 0-.829.164l-4.978 4.978"/></mask><path fill-rule="evenodd" clip-rule="evenodd" d="M9.591 40.403a.761.761 0 0 0 .218.4l4.973 4.973a.76.76 0 1 0 1.076-1.076l-3.684-3.684h17.098a.761.761 0 0 0 0-1.522H12.174l3.684-3.684a.759.759 0 0 0-.247-1.24.761.761 0 0 0-.829.164l-4.978 4.978" fill="#CB8734"/><path d="m9.756 39.698-.213.69.096.03.213-.69-.096-.03zm.043 1.095-.07.07.07-.07zm.01.01.07-.071v-.002l-.07.072zm4.973 4.973.07-.071-.07.07zm-2.608-4.76v-.1h-.242l.171.17.07-.07zm17.098 0v.1h.001l-.002-.1zm.529-.228-.071-.07.07.07zm.218-.533h.1-.1zm-.218-.533.071-.07-.071.07zm-.53-.228.002-.1h-.002v.1zm-17.097 0-.07-.07-.172.17h.242v-.1zm3.907-4.222h.1-.1zm-.47-.702.038-.093-.038.093zm-.291-.058v-.1.1zm-.291.058-.038-.093.038.093zm-.247.164.07.071-.07-.07zM9.87 40.722a.66.66 0 0 1-.18-.338l-.197.039c.033.167.115.32.236.44l.141-.14zm.008.008-.008-.008-.141.142.01.01.14-.144zm4.975 4.975L9.88 40.732l-.142.141 4.973 4.973.142-.141zm.467.193a.66.66 0 0 1-.467-.193l-.142.141a.86.86 0 0 0 .609.252v-.2zm.467-.193a.66.66 0 0 1-.467.193v.2a.86.86 0 0 0 .609-.252l-.142-.141zm.194-.467a.66.66 0 0 1-.194.467l.142.141a.86.86 0 0 0 .252-.608h-.2zm-.194-.468a.661.661 0 0 1 .194.468h.2a.86.86 0 0 0-.252-.609l-.142.141zm-3.684-3.684 3.684 3.684.142-.141-3.684-3.684-.142.141zm17.168-.17H12.174v.2h17.098v-.2zm.459-.198a.66.66 0 0 1-.46.198l.003.2a.86.86 0 0 0 .6-.258l-.143-.14zm.189-.463c0 .173-.068.34-.19.463l.143.14a.86.86 0 0 0 .247-.603h-.2zm-.19-.463c.122.123.19.29.19.463h.2a.86.86 0 0 0-.247-.603l-.142.14zm-.46-.198a.66.66 0 0 1 .46.198l.143-.14a.86.86 0 0 0-.599-.258l-.003.2zm-17.095 0h17.098v-.2H12.174v.2zm3.613-3.854-3.684 3.684.142.141 3.684-3.684-.142-.141zm.143-.215a.66.66 0 0 1-.143.215l.142.141a.859.859 0 0 0 .186-.28l-.185-.076zm.05-.253a.658.658 0 0 1-.05.253l.185.077a.86.86 0 0 0 .066-.33h-.2zm-.05-.252a.66.66 0 0 1 .05.252h.2a.86.86 0 0 0-.065-.329l-.185.077zm-.143-.215a.66.66 0 0 1 .143.215l.185-.077a.859.859 0 0 0-.186-.28l-.142.142zm-.214-.143a.66.66 0 0 1 .214.143l.142-.141a.859.859 0 0 0-.28-.187l-.076.185zm-.253-.05c.087 0 .173.017.253.05l.076-.185a.86.86 0 0 0-.329-.065v.2zm-.253.05a.66.66 0 0 1 .253-.05v-.2a.86.86 0 0 0-.33.065l.077.185zm-.214.143a.66.66 0 0 1 .214-.143l-.076-.185a.859.859 0 0 0-.28.187l.142.141zm-4.978 4.978 4.978-4.978-.142-.141-4.978 4.978.142.141z" fill="#CB8734" mask="url(#b)"/></svg>