<svg width="55" height="55" fill="none" xmlns="http://www.w3.org/2000/svg"><path d="M52.916 32.212a.81.81 0 0 0 1.384-.574V29.38a.811.811 0 0 0-1.621 0v2.26a.81.81 0 0 0 .237.573z" fill="#CB8734" stroke="#CB8734" stroke-width=".1"/><path d="M4.043 54.175h47.164a3.093 3.093 0 0 0 3.093-3.093V36.963a.81.81 0 0 0-1.621 0v14.12a1.472 1.472 0 0 1-1.472 1.47H4.043a1.472 1.472 0 0 1-1.472-1.47V3.917a1.471 1.471 0 0 1 1.472-1.472h47.164a1.471 1.471 0 0 1 1.472 1.472v12.597a.81.81 0 1 0 1.621 0V3.918A3.093 3.093 0 0 0 51.207.825H4.043A3.093 3.093 0 0 0 .95 3.918v47.164a3.093 3.093 0 0 0 3.093 3.093z" fill="#CB8734" stroke="#CB8734" stroke-width=".1"/><path d="M52.916 24.627a.81.81 0 0 0 1.384-.573V21.84a.81.81 0 1 0-1.621 0v2.214a.81.81 0 0 0 .237.573z" fill="#CB8734" stroke="#CB8734" stroke-width=".1"/><mask id="a" maskUnits="userSpaceOnUse" x="28.429" y="15.522" width="24.042" height="24.042" fill="#000"><path fill="#fff" d="M28.429 15.522h24.042v24.042H28.429z"/><path fill-rule="evenodd" clip-rule="evenodd" d="M45.369 23.82a.76.76 0 0 0 .538-1.3l-4.983-4.982a.761.761 0 0 0-1.076 0l-4.982 4.983a.76.76 0 1 0 1.075 1.075l3.685-3.684v17.099a.761.761 0 0 0 1.521 0V19.912l3.684 3.684a.761.761 0 0 0 .538.223z"/></mask><path fill-rule="evenodd" clip-rule="evenodd" d="M45.369 23.82a.76.76 0 0 0 .538-1.3l-4.983-4.982a.761.761 0 0 0-1.076 0l-4.982 4.983a.76.76 0 1 0 1.075 1.075l3.685-3.684v17.099a.761.761 0 0 0 1.521 0V19.912l3.684 3.684a.761.761 0 0 0 .538.223z" fill="#CB8734"/><path d="m45.907 22.52.07-.07-.07.07zm-4.983-4.982-.07.07.07-.07zm-.538-.223v-.1.1zm-5.743 5.743h-.1.1zm.76.761v-.1.1zm4.223-3.907h.1v-.241l-.17.17.07.071zm0 17.099h-.1.1zm.128.422-.083.056.083-.056zm.341.28-.038.093.038-.093zm.44.044.02.098-.02-.098zm.39-.209.07.071-.07-.07zm.222-.538h-.1.1zm0-17.097.07-.071-.17-.17v.24h.1zm4.689 3.613a.66.66 0 0 1-.467.193v.2a.86.86 0 0 0 .608-.252l-.141-.141zm.194-.468a.66.66 0 0 1-.194.468l.141.141a.86.86 0 0 0 .253-.609h-.2zm-.194-.467a.66.66 0 0 1 .194.467h.2a.86.86 0 0 0-.253-.608l-.141.141zm-4.983-4.982 4.983 4.982.141-.141-4.982-4.983-.142.142zm-.467-.194a.66.66 0 0 1 .467.194l.142-.142a.86.86 0 0 0-.609-.252v.2zm-.467.194a.66.66 0 0 1 .467-.194v-.2a.86.86 0 0 0-.608.252l.141.142zm-4.983 4.982 4.983-4.982-.141-.142-4.983 4.983.141.141zm-.193.467a.66.66 0 0 1 .193-.467l-.141-.141a.86.86 0 0 0-.252.608h.2zm.193.468a.66.66 0 0 1-.193-.468h-.2c0 .229.09.448.252.61l.141-.142zm.468.193a.66.66 0 0 1-.468-.193l-.141.141c.161.161.38.252.609.252v-.2zm.467-.193a.66.66 0 0 1-.467.193v.2a.86.86 0 0 0 .608-.252l-.141-.141zm3.684-3.685-3.684 3.685.141.141 3.684-3.684-.14-.142zm.17 17.17V19.912h-.2v17.099h.2zm.112.366a.66.66 0 0 1-.111-.367h-.2c0 .17.05.337.145.479l.166-.111zm.297.244a.66.66 0 0 1-.297-.244l-.166.112a.86.86 0 0 0 .386.317l.077-.185zm.381.037a.66.66 0 0 1-.381-.037l-.077.185a.86.86 0 0 0 .497.049l-.039-.197zm.339-.18a.66.66 0 0 1-.339.18l.04.197a.86.86 0 0 0 .44-.236l-.141-.141zm.193-.468a.66.66 0 0 1-.193.468l.141.141a.86.86 0 0 0 .252-.608h-.2zm0-17.097V37.01h.2V19.912h-.2zm3.855 3.613-3.684-3.684-.142.141 3.684 3.684.142-.141zm.467.193a.66.66 0 0 1-.467-.193l-.142.141a.86.86 0 0 0 .609.252v-.2z" fill="#CB8734" mask="url(#a)"/></svg>