<svg width="55" height="55" fill="none" xmlns="http://www.w3.org/2000/svg"><path d="M52.791 32.212a.81.81 0 0 0 1.384-.574V29.38a.811.811 0 0 0-1.621 0v2.26a.81.81 0 0 0 .237.573z" fill="#CB8734" stroke="#CB8734" stroke-width=".1"/><path d="M3.918 54.175h47.164a3.093 3.093 0 0 0 3.093-3.093V36.963a.81.81 0 0 0-1.621 0v14.12a1.472 1.472 0 0 1-1.472 1.47H3.918a1.472 1.472 0 0 1-1.472-1.47V3.917a1.471 1.471 0 0 1 1.472-1.472h47.164a1.471 1.471 0 0 1 1.472 1.472v12.597a.81.81 0 1 0 1.621 0V3.918A3.093 3.093 0 0 0 51.082.825H3.918A3.093 3.093 0 0 0 .825 3.918v47.164a3.093 3.093 0 0 0 3.093 3.093z" fill="#CB8734" stroke="#CB8734" stroke-width=".1"/><path d="M52.791 24.627a.81.81 0 0 0 1.384-.573V21.84a.81.81 0 1 0-1.621 0v2.214a.81.81 0 0 0 .237.573zM30.274 23.58a.81.81 0 0 0 .573 1.384.81.81 0 0 0 .574-.238l13.388-13.388v-.001a.81.81 0 0 0-1.145-1.146h-.001L30.274 23.58z" fill="#CB8734" stroke="#CB8734" stroke-width=".1"/><path d="M43.662 18.384a.81.81 0 0 0 1.384-.573v-7.047a.81.81 0 0 0-.811-.81h-7.047a.81.81 0 1 0 0 1.62h6.236v6.237a.81.81 0 0 0 .238.573zM10.191 43.663a.81.81 0 0 0 .573 1.384.81.81 0 0 0 .574-.238L24.726 31.42a.811.811 0 0 0-1.145-1.147l-.001.001L10.19 43.663z" fill="#CB8734" stroke="#CB8734" stroke-width=".1"/><path d="M10.765 45.047h7.046a.811.811 0 0 0 0-1.622h-6.236V37.19a.81.81 0 0 0-1.56-.31.81.81 0 0 0-.061.31v7.047a.81.81 0 0 0 .81.81z" fill="#CB8734" stroke="#CB8734" stroke-width=".1"/></svg>