<svg width="62" height="62" viewBox="0 0 62 62" fill="none" xmlns="http://www.w3.org/2000/svg">
<rect opacity="0.58" width="62" height="62" fill="white"/>
<path d="M55.3868 10.0509C55.3868 10.6783 54.8782 11.1869 54.2508 11.1869C53.6234 11.1869 53.1149 10.6783 53.1149 10.0509V3.63287C53.1149 2.92372 52.538 2.34691 51.8289 2.34691H3.63287C2.92372 2.34691 2.34691 2.92372 2.34691 3.63287V58.3681C2.34691 59.0772 2.92372 59.654 3.63287 59.654H51.8289C52.538 59.654 53.1149 59.0772 53.1149 58.3681V54.9774C53.1149 54.35 53.6234 53.8414 54.2508 53.8414C54.8782 53.8414 55.3868 54.35 55.3868 54.9774V58.3681C55.3868 60.3298 53.7906 61.9259 51.8289 61.9259H3.63287C1.67113 61.9259 0.075 60.3298 0.075 58.3681V3.63287C0.075 1.67113 1.67113 0.075 3.63287 0.075H51.8289C53.7906 0.075 55.3868 1.67113 55.3868 3.63287V10.0509Z" fill="#CB8734" stroke="white" stroke-width="0.15"/>
<path d="M8.23374 8.15947H8.15874V8.23447V32.3325C8.15874 32.9599 7.65017 33.4684 7.02278 33.4684C6.39539 33.4684 5.88683 32.9599 5.88683 32.3325V7.02352C5.88683 6.39613 6.39539 5.88756 7.02278 5.88756H48.4389C49.0663 5.88756 49.5749 6.39613 49.5749 7.02352V10.172C49.5749 10.7994 49.0663 11.308 48.4389 11.308C47.8116 11.308 47.303 10.7994 47.303 10.172V8.23447V8.15947H47.228H8.23374Z" fill="#CB8734" stroke="white" stroke-width="0.15"/>
<path d="M47.228 53.8414H47.303V53.7664V52.3133C47.303 51.6859 47.8115 51.1773 48.4389 51.1773C49.0663 51.1773 49.5749 51.6859 49.5749 52.3133V54.9774C49.5749 55.6048 49.0663 56.1133 48.4389 56.1133H7.02278C6.39539 56.1133 5.88683 55.6048 5.88683 54.9774V41.4752C5.88683 40.8478 6.39539 40.3393 7.02278 40.3393C7.65017 40.3393 8.15874 40.8478 8.15874 41.4752V53.7664V53.8414H8.23374H47.228Z" fill="#CB8734" stroke="white" stroke-width="0.15"/>
<path d="M33.3691 45.2338L33.4222 45.2868L33.4752 45.2338L35.8685 42.8404C35.8685 42.8404 35.8685 42.8404 35.8685 42.8404C36.3122 42.3968 37.0314 42.3968 37.475 42.8405C37.9186 43.2842 37.9186 44.0035 37.475 44.4471L35.0725 46.8496C34.6175 47.3045 34.02 47.532 33.4222 47.532C32.8243 47.532 32.2268 47.3045 31.7719 46.8496L30.2842 45.3618L30.2312 45.3088L30.1781 45.3618L29.2193 46.3206C29.2193 46.3206 29.2193 46.3207 29.2193 46.3207C28.7756 46.7642 28.0563 46.7642 27.6127 46.3207C27.1691 45.8769 27.1691 45.1577 27.6127 44.7141L28.5807 43.746C28.5807 43.746 28.5807 43.746 28.5807 43.746C29.4908 42.8361 30.9714 42.8361 31.8815 43.746C31.8815 43.746 31.8815 43.746 31.8815 43.746L33.3691 45.2338Z" fill="#CB8734" stroke="white" stroke-width="0.15"/>
<path d="M42.507 15.7358L42.5069 15.7358C41.5397 15.6907 40.593 16.0576 39.9087 16.7419C39.2243 17.4263 38.8576 18.3733 38.9025 19.34C38.9239 19.7978 38.6747 20.2291 38.2678 20.4395L38.2334 20.3728L38.2678 20.4395C37.4081 20.8839 36.7713 21.6749 36.5208 22.6099L36.4483 22.5905L36.5208 22.6099C36.4012 23.0557 36.3752 23.5173 36.4365 23.9668L36.4481 24.0519H36.3622H15.231C14.6036 24.0519 14.0951 24.5605 14.0951 25.1878C14.0951 25.8152 14.6036 26.3238 15.231 26.3238H36.9809H37.0908L37.0507 26.4261C37.0237 26.4953 36.9914 26.5654 36.9483 26.6326M42.507 15.7358L38.7553 32.2114C38.808 32.3498 38.8344 32.4991 38.8272 32.6521C38.7813 33.6399 39.156 34.6075 39.8553 35.3068C40.5545 36.006 41.5217 36.3814 42.51 36.3348M42.507 15.7358C42.9633 15.7565 43.3958 15.5082 43.6062 15.1011C44.0506 14.2414 44.8418 13.6046 45.7766 13.354C46.7115 13.1035 47.715 13.2594 48.5297 13.7818C48.9153 14.029 49.4134 14.0291 49.799 13.7818C50.6137 13.2595 51.617 13.1034 52.5522 13.354C53.487 13.6046 54.2782 14.2414 54.7226 15.1011C54.9328 15.5078 55.362 15.758 55.8219 15.7358C56.789 15.6903 57.7358 16.0576 58.4201 16.7419C59.1044 17.4263 59.4711 18.3733 59.4262 19.3402C59.4049 19.7977 59.6539 20.2291 60.0609 20.4395C60.9207 20.8839 61.5575 21.675 61.808 22.6099C62.0585 23.5447 61.9025 24.5484 61.3803 25.3632C61.1329 25.7488 61.1329 26.2469 61.3803 26.6323C61.9025 27.4472 62.0585 28.4508 61.808 29.3857C61.5575 30.3206 60.9206 31.1117 60.0609 31.5561C59.6541 31.7665 59.4049 32.1978 59.4262 32.6554C59.4711 33.6222 59.1044 34.5693 58.42 35.2537C57.7357 35.9381 56.7896 36.3055 55.8219 36.2598L55.8218 36.2598C55.3648 36.2389 54.933 36.4874 54.7226 36.8945C54.5803 37.1698 54.402 37.422 54.1951 37.6463L54.1752 37.6678V37.6971V49.0066C54.1752 49.4655 53.8991 49.8794 53.4753 50.0556C53.3343 50.1142 53.1862 50.1427 53.0395 50.1427C52.7448 50.1427 52.4552 50.0281 52.2381 49.812L49.2171 46.8068L49.1642 46.7542M42.507 15.7358L49.1642 46.7542M36.9483 26.6326L36.8852 26.5921L36.9484 26.6325C36.9484 26.6325 36.9484 26.6326 36.9483 26.6326ZM36.9483 26.6326C36.4261 27.4473 36.2701 28.451 36.5206 29.3858L36.5206 29.3858C36.5549 29.5139 36.5972 29.6393 36.6459 29.7618L36.6867 29.8645H36.5762H15.2307C14.6033 29.8645 14.0947 30.373 14.0947 31.0004C14.0947 31.6278 14.6033 32.1364 15.2307 32.1364H38.7553H38.807L38.8254 32.1847C38.8815 32.3321 38.9098 32.4917 38.9021 32.6556C38.8572 33.6224 39.224 34.5694 39.9084 35.2538C40.5926 35.9381 41.5393 36.3055 42.5063 36.2599M42.5063 36.2599L42.51 36.3348M42.5063 36.2599C42.9637 36.2375 43.3955 36.4877 43.6058 36.8946C43.7481 37.1699 43.9264 37.422 44.1333 37.6464L44.1532 37.668V37.6973V49.0067C44.1532 49.4657 44.4293 49.8795 44.853 50.0557L44.8242 50.1249M42.5063 36.2599C42.5064 36.2599 42.5064 36.2599 42.5065 36.2599L42.51 36.3348M42.51 36.3348L44.8242 50.1249M44.8242 50.1249L44.8531 50.0557C45.2766 50.2319 45.7649 50.1358 46.0903 49.812L49.1113 46.8068L49.1642 46.7542M44.8242 50.1249L49.1642 46.7542M51.7754 46.1472L51.9033 46.2744V46.094V38.8283V38.7496L51.8247 38.7534L51.8181 38.7537C51.7646 38.7563 51.7132 38.7587 51.662 38.7587C51.0074 38.7587 50.3586 38.5727 49.7989 38.2139C49.4134 37.9667 48.9153 37.9666 48.5296 38.2139C47.9235 38.6024 47.2128 38.7878 46.5036 38.7543L46.4251 38.7506V38.8293V46.094V46.2744L46.553 46.1472L48.363 44.3465C48.8061 43.9056 49.5221 43.9056 49.9653 44.3465L51.7754 46.1472ZM51.9445 36.3749L51.964 36.4473C52.2873 36.3607 52.5507 36.1488 52.7043 35.8514C53.3209 34.6587 54.5854 33.9285 55.9274 33.9906C56.2617 34.0058 56.5769 33.8841 56.8135 33.6474L56.7605 33.5944L56.8136 33.6474C57.0502 33.4107 57.1723 33.0956 57.1567 32.7612C57.0942 31.4199 57.8249 30.1547 59.0175 29.5381C59.3148 29.3844 59.5268 29.1211 59.6134 28.7979C59.7002 28.4745 59.6482 28.1404 59.4675 27.8587C58.7428 26.7284 58.7428 25.2673 59.4675 24.137C59.6482 23.8554 59.7 23.5213 59.6134 23.198C59.5268 22.8746 59.3149 22.6114 59.0177 22.4577L58.9832 22.5243L59.0177 22.4577C57.8248 21.8411 57.0944 20.5758 57.1567 19.2347C57.1723 18.9003 57.0503 18.5851 56.8136 18.3484C56.5769 18.1116 56.2618 17.99 55.9275 18.0052L55.9274 18.0052C54.586 18.0678 53.3209 17.3371 52.7043 16.1444L52.6377 16.1788L52.7043 16.1444C52.5505 15.8471 52.2873 15.6351 51.964 15.5485C51.6406 15.4618 51.3067 15.5138 51.0249 15.6944L51.0654 15.7575L51.0249 15.6944C49.8948 16.4192 48.4337 16.4192 47.3032 15.6944C47.0216 15.5137 46.6875 15.462 46.3643 15.5485L46.3837 15.6209L46.3643 15.5485C46.041 15.6351 45.7776 15.847 45.6239 16.1444C45.0075 17.3372 43.743 18.0674 42.4008 18.0052L42.4008 18.0052C42.0672 17.9898 41.7514 18.1116 41.5147 18.3484C41.2781 18.5851 41.1559 18.9003 41.1716 19.2346C41.2339 20.5759 40.5034 21.8411 39.3107 22.4577C39.0135 22.6114 38.8014 22.8747 38.7148 23.198L38.7873 23.2174L38.7148 23.198C38.6282 23.5213 38.6802 23.8554 38.8607 24.1371L38.8607 24.1371C39.5854 25.2675 39.5854 26.7285 38.8607 27.8588C38.68 28.1405 38.6282 28.4745 38.7148 28.7978C38.8014 29.1212 39.0133 29.3844 39.3106 29.5381C39.636 29.7064 39.9257 29.9244 40.176 30.1781L40.1777 30.1797C40.1962 30.1974 40.2141 30.2163 40.2325 30.2364L40.2333 30.2372C40.8631 30.9069 41.2154 31.8146 41.1714 32.761C41.1558 33.0955 41.2778 33.4107 41.5146 33.6474C41.7513 33.8841 42.0671 34.006 42.4007 33.9906L42.4008 33.9906C43.743 33.9279 45.0072 34.6587 45.6238 35.8514L45.6238 35.8515C45.7776 36.1487 46.0408 36.3607 46.3642 36.4473L46.3836 36.3749L46.3642 36.4473C46.6874 36.5338 47.0215 36.482 47.3032 36.3014L47.2627 36.2383L47.3032 36.3014C47.8683 35.9392 48.5162 35.7579 49.1641 35.7579C49.8121 35.7579 50.4598 35.9391 51.025 36.3014C51.3067 36.4821 51.6409 36.5338 51.9639 36.4473L51.9445 36.3749Z" fill="#CB8734" stroke="white" stroke-width="0.15"/>
<path d="M49.1383 26.7762L49.1913 26.8292L49.2444 26.7762L53.2637 22.7568C53.7072 22.3132 54.4265 22.3132 54.8701 22.7568C55.3137 23.2005 55.3137 23.9198 54.8701 24.3633L49.9944 29.239L49.9944 29.239C49.7727 29.4609 49.482 29.5717 49.1912 29.5717C48.9004 29.5717 48.6098 29.4609 48.388 29.239L45.9317 26.7827C45.4881 26.339 45.4881 25.6197 45.9317 25.1761C46.3754 24.7325 47.0947 24.7325 47.5383 25.1761L49.1383 26.7762Z" fill="#CB8734" stroke="white" stroke-width="0.15"/>
<path d="M22.828 35.6771H36.6718C37.2992 35.6771 37.8077 36.1857 37.8077 36.8131C37.8077 37.4405 37.2991 37.949 36.6717 37.949H22.828C22.2006 37.949 21.692 37.4405 21.692 36.8131C21.692 36.1857 22.2006 35.6771 22.828 35.6771Z" fill="#CB8734" stroke="white" stroke-width="0.15"/>
</svg>
