<svg id="fc09d886-3ee4-4df6-b7ac-1ba7e3f93e9a" data-name="Слой 1" xmlns="http://www.w3.org/2000/svg" viewBox="0 0 61.85079 61.8509"><defs><style>.a7b49cf1-d373-4b7d-8045-67b60bfc470e{fill:#cb8734;}</style></defs><path class="a7b49cf1-d373-4b7d-8045-67b60bfc470e" d="M55.3868,10.0509a1.136,1.136,0,1,1-2.2719,0v-6.418a1.28739,1.28739,0,0,0-1.286-1.286H3.63287a1.28733,1.28733,0,0,0-1.286,1.286V58.3681a1.28731,1.28731,0,0,0,1.286,1.2859h48.196a1.28737,1.28737,0,0,0,1.286-1.2859V54.9774a1.136,1.136,0,1,1,2.2719,0v3.3907a3.562,3.562,0,0,1-3.5579,3.5578H3.63287A3.562,3.562,0,0,1,.075,58.3681V3.63287A3.562,3.562,0,0,1,3.63287.075h48.196a3.562,3.562,0,0,1,3.5579,3.55787Z" transform="translate(-0.075 -0.075)"/><path class="a7b49cf1-d373-4b7d-8045-67b60bfc470e" d="M8.23374,8.15947h-.075v24.173a1.136,1.136,0,0,1-2.27191,0V7.02352a1.13593,1.13593,0,0,1,1.136-1.136H48.4389a1.136,1.136,0,0,1,1.136,1.136V10.172a1.136,1.136,0,1,1-2.2719,0V8.15947H8.23374Z" transform="translate(-0.075 -0.075)"/><path class="a7b49cf1-d373-4b7d-8045-67b60bfc470e" d="M47.228,53.8414h.075V52.3133a1.136,1.136,0,1,1,2.2719,0v2.6641a1.13591,1.13591,0,0,1-1.136,1.1359H7.02278a1.13587,1.13587,0,0,1-1.136-1.1359V41.4752a1.136,1.136,0,0,1,2.27191,0V53.8414H47.228Z" transform="translate(-0.075 -0.075)"/><path class="a7b49cf1-d373-4b7d-8045-67b60bfc470e" d="M33.3691,45.2338l.0531.053.053-.053,2.3933-2.3934h0a1.136,1.136,0,0,1,1.6065,1.6067l-2.4025,2.4025a2.33672,2.33672,0,0,1-3.3006,0l-1.4877-1.4878-.053-.053-.0531.053-.9588.9588v.0001a1.136,1.136,0,0,1-1.6066-1.6066l.968-.9681h0a2.3369,2.3369,0,0,1,3.3008,0h0Z" transform="translate(-0.075 -0.075)"/><path class="a7b49cf1-d373-4b7d-8045-67b60bfc470e" d="M61.38,25.36a3.43969,3.43969,0,0,0-1.32-4.92,1.15343,1.15343,0,0,1-.63-1.1,3.502,3.502,0,0,0-1.01-2.6,3.44054,3.44054,0,0,0-2.6-1,1.17863,1.17863,0,0,1-1.1-.64,3.43961,3.43961,0,0,0-4.92-1.32,1.169,1.169,0,0,1-1.27,0,3.43969,3.43969,0,0,0-4.92,1.32,1.18862,1.18862,0,0,1-1.1.64,3.44459,3.44459,0,0,0-3.61,3.6,1.18779,1.18779,0,0,1-.63,1.1,3.43212,3.43212,0,0,0-1.75,2.17,3.47653,3.47653,0,0,0-.08,1.36l.01.08H15.23a1.135,1.135,0,0,0,0,2.27H37.09l-.04.11a1.24289,1.24289,0,0,1-.1.2,3.48348,3.48348,0,0,0-.43,2.76,2.71059,2.71059,0,0,0,.13.37l.04.1H15.23a1.14,1.14,0,0,0,0,2.28H38.81l.02.04a1.27255,1.27255,0,0,1,.07.48,3.45926,3.45926,0,0,0,3.61,3.6,1.19784,1.19784,0,0,1,1.1.63,3.65186,3.65186,0,0,0,.52.76l.02.02V49.01a1.14591,1.14591,0,0,0,.66,1.03c.01.01.03.01.04.02.01,0,.02.01.03.01a1.13339,1.13339,0,0,0,1.21-.26l3.02-3,.05-.06.06.06,3.02,3a1.11105,1.11105,0,0,0,.8.33,1.36411,1.36411,0,0,0,.44-.08,1.14624,1.14624,0,0,0,.7-1.05V37.67l.02-.02a3.64935,3.64935,0,0,0,.52-.76,1.17742,1.17742,0,0,1,1.05-.63h.05a3.412,3.412,0,0,0,2.6-1.01,3.47953,3.47953,0,0,0,1.01-2.59,1.15343,1.15343,0,0,1,.63-1.1,3.448,3.448,0,0,0,1.32-4.93A1.169,1.169,0,0,1,61.38,25.36ZM51.9,46.27l-.12-.12L49.97,44.35a1.12432,1.12432,0,0,0-1.36-.18.88686.88686,0,0,0-.25.18l-1.81,1.8-.12.12V38.75h.07a3.22411,3.22411,0,0,0,.93-.08,3.30383,3.30383,0,0,0,1.1-.46,1.20978,1.20978,0,0,1,1.27,0,3.452,3.452,0,0,0,1.86.55.91433.91433,0,0,0,.16-.01h.08Zm7.57-18.41a1.14824,1.14824,0,0,1,.14.94,1.18044,1.18044,0,0,1-.59.74A3.42146,3.42146,0,0,0,57.16,32.76a1.18286,1.18286,0,0,1-.35.89,1.15229,1.15229,0,0,1-.88.34,3.48067,3.48067,0,0,0-3.23,1.86,1.14613,1.14613,0,0,1-.74.6,1.17373,1.17373,0,0,1-.93-.15,3.49074,3.49074,0,0,0-3.73,0,1.19521,1.19521,0,0,1-.35.15,1.17921,1.17921,0,0,1-.59,0,1.1959,1.1959,0,0,1-.74-.6,3.46134,3.46134,0,0,0-3.07-1.86H42.4a1.1887,1.1887,0,0,1-.89-.34,1.21314,1.21314,0,0,1-.34-.89v-.18a3.42865,3.42865,0,0,0-.94-2.34c-.02-.02-.03-.04-.05-.06a3.075,3.075,0,0,0-.82-.61c-.02-.01-.03-.02-.05-.03a1.16835,1.16835,0,0,1-.45-1.68,3.42016,3.42016,0,0,0,0-3.72,1.19741,1.19741,0,0,1-.15-.94,1.14583,1.14583,0,0,1,.6-.74,3.47054,3.47054,0,0,0,1.86-3.23,1.20572,1.20572,0,0,1,.34-.88,1.07515,1.07515,0,0,1,.47-.28,1.03094,1.03094,0,0,1,.35-.06h.07a2.87984,2.87984,0,0,0,.59-.03,3.44056,3.44056,0,0,0,2.63-1.84,1.21376,1.21376,0,0,1,.74-.59,1.14863,1.14863,0,0,1,.94.14,3.43333,3.43333,0,0,0,3.72,0,1.1883,1.1883,0,0,1,1.68.45,3.4785,3.4785,0,0,0,3.08,1.87h.15a1.11711,1.11711,0,0,1,.88.34,1.17564,1.17564,0,0,1,.35.88A3.43609,3.43609,0,0,0,59.02,22.46a1.13171,1.13171,0,0,1,.59.74,1.154,1.154,0,0,1-.14.94A3.43325,3.43325,0,0,0,59.47,27.86Z" transform="translate(-0.075 -0.075)"/><path class="a7b49cf1-d373-4b7d-8045-67b60bfc470e" d="M49.1383,26.7762l.053.053.0531-.053,4.0193-4.0194a1.13593,1.13593,0,1,1,1.6064,1.6065L49.9944,29.239h0a1.13589,1.13589,0,0,1-1.6064,0l-2.4563-2.4563a1.136,1.136,0,1,1,1.6066-1.6066Z" transform="translate(-0.075 -0.075)"/><path class="a7b49cf1-d373-4b7d-8045-67b60bfc470e" d="M22.828,35.6771H36.6718a1.136,1.136,0,1,1-.0001,2.2719H22.828a1.136,1.136,0,1,1,0-2.2719Z" transform="translate(-0.075 -0.075)"/></svg>