<svg id="fc09d886-3ee4-4df6-b7ac-1ba7e3f93e9a" data-name="Слой 1" xmlns="http://www.w3.org/2000/svg" viewBox="0 0 61.851 61.851"><defs><style>.a7b49cf1-d373-4b7d-8045-67b60bfc470e{fill:#cb8734}</style></defs><path class="a7b49cf1-d373-4b7d-8045-67b60bfc470e" d="M55.387 10.05a1.136 1.136 0 1 1-2.272 0V3.634a1.287 1.287 0 0 0-1.286-1.286H3.633a1.287 1.287 0 0 0-1.286 1.286v54.735a1.287 1.287 0 0 0 1.286 1.286h48.196a1.287 1.287 0 0 0 1.286-1.286v-3.39a1.136 1.136 0 1 1 2.272 0v3.39a3.562 3.562 0 0 1-3.558 3.558H3.633a3.562 3.562 0 0 1-3.558-3.558V3.633A3.562 3.562 0 0 1 3.633.075h48.196a3.562 3.562 0 0 1 3.558 3.558z" transform="translate(-.075 -.075)"/><path class="a7b49cf1-d373-4b7d-8045-67b60bfc470e" d="M8.234 8.16h-.075v24.172a1.136 1.136 0 0 1-2.272 0V7.024a1.136 1.136 0 0 1 1.136-1.136h41.416a1.136 1.136 0 0 1 1.136 1.136v3.148a1.136 1.136 0 1 1-2.272 0V8.159H8.233zM47.228 53.841h.075v-1.528a1.136 1.136 0 1 1 2.272 0v2.664a1.136 1.136 0 0 1-1.136 1.136H7.023a1.136 1.136 0 0 1-1.136-1.136V41.475a1.136 1.136 0 0 1 2.272 0v12.366h39.069z" transform="translate(-.075 -.075)"/><path class="a7b49cf1-d373-4b7d-8045-67b60bfc470e" d="m33.37 45.234.052.053.053-.053 2.393-2.394a1.136 1.136 0 0 1 1.607 1.607l-2.403 2.403a2.337 2.337 0 0 1-3.3 0l-1.488-1.488-.053-.053-.053.053-.959.959a1.136 1.136 0 0 1-1.606-1.607l.968-.968a2.337 2.337 0 0 1 3.3 0z" transform="translate(-.075 -.075)"/><path class="a7b49cf1-d373-4b7d-8045-67b60bfc470e" d="M61.38 25.36a3.44 3.44 0 0 0-1.32-4.92 1.153 1.153 0 0 1-.63-1.1 3.502 3.502 0 0 0-1.01-2.6 3.44 3.44 0 0 0-2.6-1 1.179 1.179 0 0 1-1.1-.64 3.44 3.44 0 0 0-4.92-1.32 1.169 1.169 0 0 1-1.27 0 3.44 3.44 0 0 0-4.92 1.32 1.189 1.189 0 0 1-1.1.64 3.445 3.445 0 0 0-3.61 3.6 1.188 1.188 0 0 1-.63 1.1 3.432 3.432 0 0 0-1.75 2.17 3.477 3.477 0 0 0-.08 1.36l.01.08H15.23a1.135 1.135 0 0 0 0 2.27h21.86l-.04.11a1.243 1.243 0 0 1-.1.2 3.483 3.483 0 0 0-.43 2.76 2.71 2.71 0 0 0 .13.37l.04.1H15.23a1.14 1.14 0 0 0 0 2.28h23.58l.02.04a1.273 1.273 0 0 1 .07.48 3.46 3.46 0 0 0 3.61 3.6 1.198 1.198 0 0 1 1.1.63 3.652 3.652 0 0 0 .52.76l.02.02v11.34a1.146 1.146 0 0 0 .66 1.03c.01.01.03.01.04.02.01 0 .02.01.03.01a1.133 1.133 0 0 0 1.21-.26l3.02-3 .05-.06.06.06 3.02 3a1.111 1.111 0 0 0 .8.33 1.364 1.364 0 0 0 .44-.08 1.146 1.146 0 0 0 .7-1.05V37.67l.02-.02a3.65 3.65 0 0 0 .52-.76 1.177 1.177 0 0 1 1.05-.63h.05a3.412 3.412 0 0 0 2.6-1.01 3.48 3.48 0 0 0 1.01-2.59 1.153 1.153 0 0 1 .63-1.1 3.448 3.448 0 0 0 1.32-4.93 1.169 1.169 0 0 1 0-1.27zM51.9 46.27l-.12-.12-1.81-1.8a1.124 1.124 0 0 0-1.36-.18.887.887 0 0 0-.25.18l-1.81 1.8-.12.12v-7.52h.07a3.224 3.224 0 0 0 .93-.08 3.304 3.304 0 0 0 1.1-.46 1.21 1.21 0 0 1 1.27 0 3.452 3.452 0 0 0 1.86.55.914.914 0 0 0 .16-.01h.08zm7.57-18.41a1.148 1.148 0 0 1 .14.94 1.18 1.18 0 0 1-.59.74 3.421 3.421 0 0 0-1.86 3.22 1.183 1.183 0 0 1-.35.89 1.152 1.152 0 0 1-.88.34 3.48 3.48 0 0 0-3.23 1.86 1.146 1.146 0 0 1-.74.6 1.174 1.174 0 0 1-.93-.15 3.49 3.49 0 0 0-3.73 0 1.195 1.195 0 0 1-.35.15 1.18 1.18 0 0 1-.59 0 1.196 1.196 0 0 1-.74-.6 3.461 3.461 0 0 0-3.07-1.86h-.15a1.189 1.189 0 0 1-.89-.34 1.213 1.213 0 0 1-.34-.89v-.18a3.429 3.429 0 0 0-.94-2.34c-.02-.02-.03-.04-.05-.06a3.075 3.075 0 0 0-.82-.61c-.02-.01-.03-.02-.05-.03a1.168 1.168 0 0 1-.45-1.68 3.42 3.42 0 0 0 0-3.72 1.197 1.197 0 0 1-.15-.94 1.146 1.146 0 0 1 .6-.74 3.47 3.47 0 0 0 1.86-3.23 1.206 1.206 0 0 1 .34-.88 1.075 1.075 0 0 1 .47-.28 1.03 1.03 0 0 1 .35-.06h.07a2.88 2.88 0 0 0 .59-.03 3.44 3.44 0 0 0 2.63-1.84 1.214 1.214 0 0 1 .74-.59 1.149 1.149 0 0 1 .94.14 3.433 3.433 0 0 0 3.72 0 1.188 1.188 0 0 1 1.68.45 3.478 3.478 0 0 0 3.08 1.87h.15a1.117 1.117 0 0 1 .88.34 1.176 1.176 0 0 1 .35.88 3.436 3.436 0 0 0 1.86 3.23 1.132 1.132 0 0 1 .59.74 1.154 1.154 0 0 1-.14.94 3.433 3.433 0 0 0 0 3.72z" transform="translate(-.075 -.075)"/><path class="a7b49cf1-d373-4b7d-8045-67b60bfc470e" d="m49.138 26.776.053.053.053-.053 4.02-4.02a1.136 1.136 0 1 1 1.606 1.607l-4.876 4.876a1.136 1.136 0 0 1-1.606 0l-2.456-2.456a1.136 1.136 0 1 1 1.606-1.607zM22.828 35.677h13.844a1.136 1.136 0 1 1 0 2.272H22.828a1.136 1.136 0 1 1 0-2.272z" transform="translate(-.075 -.075)"/></svg>