<svg width="62" height="62" fill="none" xmlns="http://www.w3.org/2000/svg"><path opacity=".58" fill="#fff" d="M0 0h62v62H0z"/><path d="M51.563 34.008a1.044 1.044 0 0 0-1.473 0l-1.22 1.22-1.042-1.042v-4.219a9.934 9.934 0 0 0-9.934-9.933h-.052l-1.957-1.957a11.023 11.023 0 0 0-7.41-3.243l-1.704-1.704 1.22-1.22a1.041 1.041 0 0 0 0-1.473L17.679.124l-1.473 1.472 9.577 9.576-14.733 14.733-9.576-9.576L0 17.802l10.313 10.313a1.043 1.043 0 0 0 1.473 0l1.01-1.011 1.696 1.695v4.778a3.124 3.124 0 0 0 4.167 2.945v1.221a3.122 3.122 0 0 0 4.167 2.946v1.221a3.124 3.124 0 0 0 4.167 2.946v1.221a3.123 3.123 0 0 0 5.452 2.084h1.409l1.042 1.041-1.012 1.012a1.041 1.041 0 0 0 0 1.473L44.198 62l1.472-1.474-9.576-9.576 14.733-14.733 9.576 9.576 1.473-1.473-10.313-10.312zm-21.445 13.11a1.043 1.043 0 0 1-1.041-1.041v-8.334h-2.084v4.167a1.042 1.042 0 0 1-2.083 0v-8.334h-2.084v4.167a1.042 1.042 0 0 1-2.083 0v-7.292h-2.084v3.125a1.042 1.042 0 0 1-2.083 0v-5.209a1.042 1.042 0 0 0-.305-.736l-2-2 11.027-11.028 2 2a1.041 1.041 0 0 0 .737.305 8.958 8.958 0 0 1 6.376 2.641l.484.484H24.91a1.042 1.042 0 0 0-1.042 1.042 7.878 7.878 0 0 0 5.793 7.584l1.499.409v17.009a1.043 1.043 0 0 1-1.042 1.042zm4.904-.736a1.04 1.04 0 0 0-.737-.305h-1.041v-16.44l2.083.568v.246a5.214 5.214 0 0 0 5.209 5.209 1.041 1.041 0 1 0 0-2.084 3.129 3.129 0 0 1-3.126-3.125v-1.042a1.042 1.042 0 0 0-.768-1.005l-6.434-1.755a5.793 5.793 0 0 1-4.161-4.532h11.848a7.85 7.85 0 0 1 7.85 7.85v4.65c0 .277.11.542.305.737l1.347 1.347L36.369 47.73l-1.347-1.347z" fill="#CB8734"/><path d="M7.439 27.085H5.355v32.294a1.042 1.042 0 0 0 1.042 1.041H37.65v-2.083H7.44V27.085zM55.359 35.419h2.083V1.042A1.042 1.042 0 0 0 56.4 0H22.023v2.083H55.36V35.42z" fill="#CB8734"/><path d="M47.025 5.209a5.209 5.209 0 1 0 0 10.417 5.209 5.209 0 0 0 0-10.417zm0 8.334a3.125 3.125 0 1 1 0-6.251 3.125 3.125 0 0 1 0 6.25zM1.188 32.294h2.084v20.834H1.188V32.294zM59.526 5.209h2.083v22.918h-2.084V5.209z" fill="#CB8734"/></svg>