<svg width="109" height="94" fill="none" xmlns="http://www.w3.org/2000/svg"><g filter="url(#a)"><path d="M30 38a2 2 0 0 1 2-2h9.786c.306 0 .606-.07.88-.204l10.954-5.365a2 2 0 0 1 1.76 0l10.954 5.365c.274.134.575.204.88.204H77a2 2 0 0 1 2 2v24a2 2 0 0 1-2 2H32a2 2 0 0 1-2-2V38z" fill="#fff"/></g><defs><filter id="a" x="0" y=".227" width="109" height="93.773" filterUnits="userSpaceOnUse" color-interpolation-filters="sRGB"><feFlood flood-opacity="0" result="BackgroundImageFix"/><feColorMatrix in="SourceAlpha" values="0 0 0 0 0 0 0 0 0 0 0 0 0 0 0 0 0 0 127 0" result="hardAlpha"/><feOffset/><feGaussianBlur stdDeviation="15"/><feColorMatrix values="0 0 0 0 0.168627 0 0 0 0 0.164706 0 0 0 0 0.156863 0 0 0 0.08 0"/><feBlend in2="BackgroundImageFix" result="effect1_dropShadow_162_3047"/><feBlend in="SourceGraphic" in2="effect1_dropShadow_162_3047" result="shape"/></filter></defs></svg>