<svg width="142" height="94" fill="none" xmlns="http://www.w3.org/2000/svg"><g filter="url(#a)"><path d="M30 38a2 2 0 0 1 2-2h29.865a2 2 0 0 0 1.154-.366l6.828-4.82a2 2 0 0 1 2.306 0l6.828 4.82a2 2 0 0 0 1.154.366H110a2 2 0 0 1 2 2v24a2 2 0 0 1-2 2H32a2 2 0 0 1-2-2V38z" fill="#fff"/></g><defs><filter id="a" x="0" y=".448" width="142" height="93.552" filterUnits="userSpaceOnUse" color-interpolation-filters="sRGB"><feFlood flood-opacity="0" result="BackgroundImageFix"/><feColorMatrix in="SourceAlpha" values="0 0 0 0 0 0 0 0 0 0 0 0 0 0 0 0 0 0 127 0" result="hardAlpha"/><feOffset/><feGaussianBlur stdDeviation="15"/><feColorMatrix values="0 0 0 0 0.168627 0 0 0 0 0.164706 0 0 0 0 0.156863 0 0 0 0.08 0"/><feBlend in2="BackgroundImageFix" result="effect1_dropShadow_162_3031"/><feBlend in="SourceGraphic" in2="effect1_dropShadow_162_3031" result="shape"/></filter></defs></svg>