<svg width="129" height="89" fill="none" xmlns="http://www.w3.org/2000/svg"><path opacity=".1" d="M69.646 88.4086c-7 9.24-16.7534 13.8604-29.26 13.8604-12.5067 0-22.3067-4.6204-29.4-13.8604-7-9.3333-10.5-21.7-10.5-37.1 0-15.4 3.5-27.72 10.5-36.96 7.0933-9.3333 16.8933-14 29.4-14 12.5066 0 22.26 4.6667 29.26 14 7.0933 9.24 10.64 21.56 10.64 36.96 0 15.4-3.5467 27.7667-10.64 37.1Zm-46.76-37.1c0 19.4133 5.8333 29.12 17.5 29.12 11.6666 0 17.5-9.7067 17.5-29.12s-5.8334-29.12-17.5-29.12c-11.6667 0-17.5 9.7067-17.5 29.12Zm85.869-49h19.6v98.0004h-22.4V25.9686l-17.3598 4.76-5.46-19.18 25.6198-9.24Z" fill="#CB8734"/></svg>