<svg width="152" height="89" fill="none" xmlns="http://www.w3.org/2000/svg"><path opacity=".1" d="M69.4624 88.4086c-7 9.24-16.7534 13.8604-29.26 13.8604-12.5067 0-22.3067-4.6204-29.4-13.8604-7-9.3333-10.5-21.7-10.5-37.1 0-15.4 3.5-27.72 10.5-36.96 7.0933-9.3333 16.8933-14 29.4-14 12.5066 0 22.26 4.6667 29.26 14 7.0933 9.24 10.64 21.56 10.64 36.96 0 15.4-3.5467 27.7667-10.64 37.1Zm-46.76-37.1c0 19.4133 5.8333 29.12 17.5 29.12 11.6666 0 17.5-9.7067 17.5-29.12s-5.8334-29.12-17.5-29.12c-11.6667 0-17.5 9.7067-17.5 29.12Zm61.9292 49.0004V84.0686l32.9004-34.16c6.626-6.8133 9.94-12.6 9.94-17.36 0-3.08-.934-5.5533-2.8-7.42-1.867-1.96-4.434-2.94-7.7-2.94-6.534 0-11.34 3.5467-14.42 10.64l-18.9004-11.06c2.9867-7 7.4667-12.32 13.44-15.96 5.9734-3.64 12.5064-5.46 19.6004-5.46 9.146 0 16.94 2.8467 23.38 8.54 6.533 5.6 9.8 13.16 9.8 22.68 0 10.36-5.087 20.6267-15.26 30.8l-16.24 16.38h32.9v21.5604H84.6316Z" fill="#CB8734"/></svg>