<svg width="154" height="92" fill="none" xmlns="http://www.w3.org/2000/svg"><path opacity=".1" d="M69.6421 88.2482c-7 9.24-16.7534 13.8598-29.26 13.8598-12.5067 0-22.3067-4.6198-29.4-13.8598-7-9.3333-10.5-21.7-10.5-37.1 0-15.4 3.5-27.72 10.5-36.96 7.0933-9.3334 16.8933-14 29.4-14 12.5066 0 22.26 4.6666 29.26 14 7.0933 9.24 10.64 21.56 10.64 36.96 0 15.4-3.5467 27.7667-10.64 37.1Zm-46.76-37.1c0 19.4133 5.8333 29.12 17.5 29.12 11.6666 0 17.5-9.7067 17.5-29.12s-5.8334-29.12-17.5-29.12c-11.6667 0-17.5 9.7067-17.5 29.12Zm109.2849-9.24c6.254 2.1467 11.294 5.6467 15.12 10.5 3.827 4.76 5.74 10.4067 5.74 16.94 0 10.2667-3.453 18.2933-10.36 24.08-6.906 5.7867-15.353 8.6798-25.34 8.6798-7.746 0-14.7-1.773-20.8596-5.3198-6.0667-3.5467-10.5467-8.7733-13.44-15.68l19.3196-11.2c2.427 6.9067 7.42 10.36 14.98 10.36 4.387 0 7.7-1.0267 9.94-3.08 2.24-2.0533 3.36-4.6667 3.36-7.84 0-3.1733-1.12-5.7867-3.36-7.84-2.24-2.0533-5.553-3.08-9.94-3.08h-4.62l-8.54-12.74 17.78-22.54H86.1074v-21h62.9996v18.2l-16.94 21.56Z" fill="#CB8734"/></svg>