<svg width="164" height="93" fill="none" xmlns="http://www.w3.org/2000/svg"><path opacity=".1" d="M69.1655 88.3495c-7 9.24-16.7533 13.8605-29.26 13.8605-12.5067 0-22.3067-4.6205-29.4-13.8605-7-9.3333-10.5-21.7-10.5-37.1 0-15.4 3.5-27.72 10.5-36.96 7.0933-9.3333 16.8933-14 29.4-14 12.5067 0 22.26 4.6667 29.26 14 7.0933 9.24 10.64 21.56 10.64 36.96 0 15.4-3.5467 27.7667-10.64 37.1Zm-46.76-37.1c0 19.4133 5.8333 29.12 17.5 29.12 11.6667 0 17.5-9.7067 17.5-29.12s-5.8333-29.12-17.5-29.12c-11.6667 0-17.5 9.7067-17.5 29.12Zm141.3835 12.6v20.72h-9.8V100.25h-22.68V84.5695H86.7891v-20.72l31.2199-61.6h24.08l-31.22 61.6h20.44v-21h22.68v21h9.8Z" fill="#CB8734"/></svg>