<svg id="abef4e4d-e931-4192-9e3e-6d0815a8a1ee" data-name="Слой 1" xmlns="http://www.w3.org/2000/svg" viewBox="0 0 29 31.95663"><defs><style>.aa49af78-4348-4a14-8d28-1c5c600432ea{fill:#2b2a28;}</style></defs><path class="aa49af78-4348-4a14-8d28-1c5c600432ea" d="M27.19255,13.4742l-.0003-.001a.72341.72341,0,0,1,1.4058-.3421,14.23326,14.23326,0,0,1-13.812,17.593c-.237,0-.4805-.0064-.724-.0193h-.0003a14.13394,14.13394,0,0,1-8.223-3.1339l-.27511-.2228.03129.3526.31088,3.504.00007.0007a.72344.72344,0,0,1-.655.7888l-.01127.0011-.011.0027A.19266.19266,0,0,1,5.18731,32a.72289.72289,0,0,1-.71845-.6595l-.00006-.0006L3.95065,25.582l0-.0005a.72337.72337,0,0,1,.65463-.7888h.00032l5.75729-.5181.0005-.0001a.72491.72491,0,0,1,.1341,1.4436h-.0003l-3.80772.3432-.36134.0326.27884.2321a12.79774,12.79774,0,0,0,16.73842-.3537l.0001-.0001A12.77292,12.77292,0,0,0,27.19255,13.4742Z" transform="translate(0 -0.04337)"/><path class="aa49af78-4348-4a14-8d28-1c5c600432ea" d="M1.80745,18.56917l.0003.001a.72341.72341,0,0,1-1.4058.3421,14.23326,14.23326,0,0,1,13.812-17.593c.237,0,.4805.0064.724.0193h.0003a14.13394,14.13394,0,0,1,8.223,3.1339l.27511.2228-.03129-.3526-.31088-3.504L23.09414.838a.72344.72344,0,0,1,.655-.7888l.01127-.0011.011-.0027a.19266.19266,0,0,1,.04134-.002.72289.72289,0,0,1,.71845.6595l.00006.0006.51815,5.7579,0,.0005a.72337.72337,0,0,1-.65463.7888h-.00032l-5.75729.5181-.0005.0001a.72491.72491,0,0,1-.1341-1.4436h.0003l3.80772-.3432.36134-.0326-.27884-.2321a12.79774,12.79774,0,0,0-16.73842.3537l-.0001.0001A12.77292,12.77292,0,0,0,1.80745,18.56917Z" transform="translate(0 -0.04337)"/></svg>