<svg id="abef4e4d-e931-4192-9e3e-6d0815a8a1ee" data-name="Слой 1" xmlns="http://www.w3.org/2000/svg" viewBox="0 0 29 31.957"><defs><style>.aa49af78-4348-4a14-8d28-1c5c600432ea{fill:#2b2a28}</style></defs><path class="aa49af78-4348-4a14-8d28-1c5c600432ea" d="M27.193 13.474a.723.723 0 0 1 1.405-.343 14.233 14.233 0 0 1-13.812 17.593c-.237 0-.48-.006-.724-.02a14.134 14.134 0 0 1-8.223-3.133l-.275-.223.03.353.312 3.504a.723.723 0 0 1-.655.79H5.24l-.011.003a.193.193 0 0 1-.042.002.723.723 0 0 1-.718-.66l-.518-5.758a.723.723 0 0 1 .654-.79l5.758-.517a.725.725 0 0 1 .134 1.443l-3.808.343-.36.033.278.232a12.798 12.798 0 0 0 16.738-.354 12.773 12.773 0 0 0 3.848-12.498zM1.807 18.57a.723.723 0 0 1-1.405.342A14.233 14.233 0 0 1 14.214 1.32c.237 0 .48.007.724.02a14.134 14.134 0 0 1 8.223 3.133l.275.223-.03-.352-.312-3.504V.838a.723.723 0 0 1 .655-.789h.011l.011-.004a.193.193 0 0 1 .042-.002.723.723 0 0 1 .718.66l.518 5.758a.723.723 0 0 1-.654.79l-5.758.518a.725.725 0 0 1-.134-1.444l3.808-.343.36-.033-.278-.232a12.798 12.798 0 0 0-16.738.354A12.773 12.773 0 0 0 1.807 18.57z" transform="translate(0 -.043)"/></svg>