<svg width="32" height="32" fill="none" xmlns="http://www.w3.org/2000/svg"><path fill="#fff" d="M0 0h32v32H0z"/><path d="M27.38 18.143a.393.393 0 0 0 .67-.278v-1.018a.393.393 0 0 0-.786 0v1.018c0 .104.042.204.115.278z" fill="#2B2A28" stroke="#2B2A28" stroke-width=".1"/><path d="M5.371 28.05H26.63a1.422 1.422 0 0 0 1.421-1.421v-6.364a.392.392 0 1 0-.786 0v6.364a.636.636 0 0 1-.635.635H5.37a.636.636 0 0 1-.635-.635V5.37a.636.636 0 0 1 .635-.635H26.63a.636.636 0 0 1 .635.635v5.678a.393.393 0 1 0 .786 0V5.371a1.422 1.422 0 0 0-1.421-1.421H5.37A1.421 1.421 0 0 0 3.95 5.371V26.63a1.421 1.421 0 0 0 1.421 1.421z" fill="#2B2A28" stroke="#2B2A28" stroke-width=".1"/><path d="M27.38 14.725a.393.393 0 0 0 .67-.278v-.998a.393.393 0 0 0-.786 0v.998c0 .104.042.204.115.278zM17.23 14.214a.394.394 0 0 0 .279.67.393.393 0 0 0 .277-.115l6.035-6.034a.393.393 0 0 0-.555-.556l-6.035 6.035z" fill="#2B2A28" stroke="#2B2A28" stroke-width=".1"/><path d="M23.265 11.91a.393.393 0 0 0 .67-.277V8.457a.393.393 0 0 0-.392-.393h-3.176a.393.393 0 0 0 0 .786h2.783v2.783c0 .104.041.204.115.278zM8.18 23.265a.393.393 0 0 0 .277.67v-.05c.091 0 .178-.035.242-.1l.036.036 6.034-6.035a.393.393 0 0 0-.555-.556l-6.035 6.035z" fill="#2B2A28" stroke="#2B2A28" stroke-width=".1"/><path d="M8.457 23.936h3.176a.393.393 0 0 0 0-.786H8.85v-2.783a.393.393 0 0 0-.786 0v3.176a.393.393 0 0 0 .393.393z" fill="#2B2A28" stroke="#2B2A28" stroke-width=".1"/></svg>