<svg width="143" height="30" viewBox="0 0 143 30" fill="none" xmlns="http://www.w3.org/2000/svg">
<path d="M51.568 20H49.376L44.96 14.672V20H43.12V8.8H44.96V13.824L49.216 8.8H51.408L46.88 14.256L51.568 20ZM58.2503 12H59.9783V20H58.2503V18.848C57.5996 19.7547 56.6663 20.208 55.4503 20.208C54.3516 20.208 53.4129 19.8027 52.6343 18.992C51.8556 18.1707 51.4663 17.1733 51.4663 16C51.4663 14.816 51.8556 13.8187 52.6343 13.008C53.4129 12.1973 54.3516 11.792 55.4503 11.792C56.6663 11.792 57.5996 12.24 58.2503 13.136V12ZM53.9143 17.84C54.3943 18.32 54.9969 18.56 55.7223 18.56C56.4476 18.56 57.0503 18.32 57.5303 17.84C58.0103 17.3493 58.2503 16.736 58.2503 16C58.2503 15.264 58.0103 14.656 57.5303 14.176C57.0503 13.6853 56.4476 13.44 55.7223 13.44C54.9969 13.44 54.3943 13.6853 53.9143 14.176C53.4343 14.656 53.1943 15.264 53.1943 16C53.1943 16.736 53.4343 17.3493 53.9143 17.84ZM68.1044 12V13.664H65.4964V20H63.7684V13.664H61.1444V12H68.1044ZM75.2971 12H77.0251V20H75.2971V18.848C74.6465 19.7547 73.7131 20.208 72.4971 20.208C71.3985 20.208 70.4598 19.8027 69.6811 18.992C68.9025 18.1707 68.5131 17.1733 68.5131 16C68.5131 14.816 68.9025 13.8187 69.6811 13.008C70.4598 12.1973 71.3985 11.792 72.4971 11.792C73.7131 11.792 74.6465 12.24 75.2971 13.136V12ZM70.9611 17.84C71.4411 18.32 72.0438 18.56 72.7691 18.56C73.4945 18.56 74.0971 18.32 74.5771 17.84C75.0571 17.3493 75.2971 16.736 75.2971 16C75.2971 15.264 75.0571 14.656 74.5771 14.176C74.0971 13.6853 73.4945 13.44 72.7691 13.44C72.0438 13.44 71.4411 13.6853 70.9611 14.176C70.4811 14.656 70.2411 15.264 70.2411 16C70.2411 16.736 70.4811 17.3493 70.9611 17.84ZM85.7913 12V20H84.0633V13.664H81.3913V16.64C81.3913 17.9093 81.1139 18.8107 80.5593 19.344C80.0046 19.8773 79.2153 20.096 78.1913 20V18.384C78.6819 18.4693 79.0499 18.368 79.2953 18.08C79.5406 17.792 79.6633 17.2853 79.6633 16.56V12H85.7913ZM91.5809 20.208C90.4075 20.208 89.4102 19.8027 88.5889 18.992C87.7675 18.1813 87.3569 17.184 87.3569 16C87.3569 14.816 87.7675 13.8187 88.5889 13.008C89.4102 12.1973 90.4075 11.792 91.5809 11.792C92.7649 11.792 93.7622 12.1973 94.5729 13.008C95.3942 13.8187 95.8049 14.816 95.8049 16C95.8049 17.184 95.3942 18.1813 94.5729 18.992C93.7622 19.8027 92.7649 20.208 91.5809 20.208ZM89.8049 17.808C90.2849 18.288 90.8769 18.528 91.5809 18.528C92.2849 18.528 92.8769 18.288 93.3569 17.808C93.8369 17.328 94.0769 16.7253 94.0769 16C94.0769 15.2747 93.8369 14.672 93.3569 14.192C92.8769 13.712 92.2849 13.472 91.5809 13.472C90.8769 13.472 90.2849 13.712 89.8049 14.192C89.3249 14.672 89.0849 15.2747 89.0849 16C89.0849 16.7253 89.3249 17.328 89.8049 17.808ZM102.727 12V13.664H99.0954V20H97.3674V12H102.727ZM111.611 20.208C110.384 20.208 109.381 19.8133 108.603 19.024C107.835 18.224 107.451 17.2053 107.451 15.968C107.451 14.6133 107.653 13.568 108.059 12.832C108.464 12.0853 109.285 11.408 110.523 10.8C110.725 10.704 111.024 10.5653 111.419 10.384C111.824 10.2027 112.101 10.0747 112.251 10C112.4 9.91467 112.587 9.79733 112.811 9.648C113.035 9.488 113.2 9.32267 113.307 9.152C113.413 8.97067 113.499 8.75733 113.563 8.512L114.971 9.328C114.928 9.56267 114.859 9.78133 114.763 9.984C114.667 10.176 114.528 10.3573 114.347 10.528C114.165 10.6987 114.005 10.8373 113.867 10.944C113.739 11.0507 113.52 11.1787 113.211 11.328C112.901 11.4773 112.672 11.584 112.523 11.648C112.384 11.712 112.117 11.824 111.723 11.984C111.019 12.2613 110.501 12.5493 110.171 12.848C109.851 13.136 109.627 13.4987 109.499 13.936C110.139 13.2107 111.008 12.848 112.107 12.848C113.045 12.848 113.861 13.184 114.555 13.856C115.259 14.528 115.611 15.3973 115.611 16.464C115.611 17.552 115.237 18.448 114.491 19.152C113.755 19.856 112.795 20.208 111.611 20.208ZM111.595 18.592C112.267 18.592 112.816 18.3947 113.243 18C113.669 17.5947 113.883 17.0827 113.883 16.464C113.883 15.8347 113.669 15.3173 113.243 14.912C112.827 14.5067 112.283 14.304 111.611 14.304C111.013 14.304 110.475 14.496 109.995 14.88C109.515 15.2533 109.275 15.7547 109.275 16.384C109.275 17.024 109.499 17.552 109.947 17.968C110.395 18.384 110.944 18.592 111.595 18.592ZM123.313 12H125.041V20H123.313V18.848C122.662 19.7547 121.729 20.208 120.513 20.208C119.414 20.208 118.475 19.8027 117.697 18.992C116.918 18.1707 116.529 17.1733 116.529 16C116.529 14.816 116.918 13.8187 117.697 13.008C118.475 12.1973 119.414 11.792 120.513 11.792C121.729 11.792 122.662 12.24 123.313 13.136V12ZM118.977 17.84C119.457 18.32 120.059 18.56 120.785 18.56C121.51 18.56 122.113 18.32 122.593 17.84C123.073 17.3493 123.313 16.736 123.313 16C123.313 15.264 123.073 14.656 122.593 14.176C122.113 13.6853 121.51 13.44 120.785 13.44C120.059 13.44 119.457 13.6853 118.977 14.176C118.497 14.656 118.257 15.264 118.257 16C118.257 16.736 118.497 17.3493 118.977 17.84ZM132.447 12H134.175V20H132.447V16.816H128.783V20H127.055V12H128.783V15.184H132.447V12ZM139.668 14.72C140.521 14.72 141.22 14.9653 141.764 15.456C142.308 15.936 142.58 16.5707 142.58 17.36C142.58 18.1387 142.308 18.7733 141.764 19.264C141.22 19.7547 140.521 20 139.668 20H136.18V12H137.908V14.72H139.668ZM139.684 18.448C140.025 18.448 140.308 18.3467 140.532 18.144C140.767 17.9413 140.884 17.68 140.884 17.36C140.884 17.0293 140.767 16.768 140.532 16.576C140.308 16.3733 140.025 16.272 139.684 16.272H137.908V18.448H139.684Z" fill="#CB8734"/>
<circle cx="15" cy="15" r="14.25" stroke="#CB8734" stroke-width="1.5"/>
<path d="M13 10L18 15L13 20" stroke="#CB8734" stroke-width="1.5" stroke-linecap="round" stroke-linejoin="round"/>
</svg>
