<svg width="26" height="26" viewBox="0 0 26 26" fill="none" xmlns="http://www.w3.org/2000/svg">
<rect width="26" height="26" rx="12.974" fill="#419FD9"/>
<path fill-rule="evenodd" clip-rule="evenodd" d="M15.1018 17.8243C15.7806 18.1213 16.0352 17.499 16.0352 17.499L17.8314 8.47561C17.8173 7.86745 16.997 8.23518 16.997 8.23518L6.94109 12.1812C6.94109 12.1812 6.46022 12.3509 6.50265 12.6479C6.54508 12.9449 6.92695 13.0863 6.92695 13.0863L9.4586 13.9349C9.4586 13.9349 10.2223 16.4383 10.3779 16.9192C10.5193 17.3859 10.6466 17.4 10.6466 17.4C10.7881 17.4566 10.9154 17.3576 10.9154 17.3576L12.556 15.8726L15.1018 17.8243ZM15.5402 10.0738C15.5402 10.0738 15.8938 9.86164 15.8797 10.0738C15.8797 10.0738 15.9362 10.1021 15.7524 10.3001C15.5827 10.4698 11.5801 14.0622 11.0427 14.5431C11.0002 14.5714 10.972 14.6138 10.972 14.6704L10.8164 15.9998C10.7881 16.1413 10.6042 16.1554 10.5618 16.0281L9.89706 13.85C9.86878 13.7652 9.89706 13.6662 9.98192 13.6096L15.5402 10.0738Z" fill="white"/>
</svg>
