<svg width="26" height="26" viewBox="0 0 26 26" fill="none" xmlns="http://www.w3.org/2000/svg">
<rect width="26" height="26" rx="12.974" fill="#0DC143"/>
<path d="M17.7009 8.31824C16.5467 7.13975 14.9512 6.5 13.3218 6.5C9.85924 6.5 7.07563 9.29471 7.10958 12.6955C7.10958 13.773 7.4151 14.8168 7.92429 15.7596L7.04169 18.9583L10.3345 18.1166C11.251 18.6216 12.2694 18.8573 13.2878 18.8573C16.7164 18.8573 19.5 16.0626 19.5 12.6618C19.5 11.0119 18.855 9.46306 17.7009 8.31824ZM13.3218 17.8135C12.4052 17.8135 11.4887 17.5778 10.7079 17.1064L10.5042 17.0054L8.53533 17.5105L9.04453 15.5912L8.90874 15.3892C7.4151 12.9985 8.12797 9.83345 10.5721 8.35191C13.0163 6.87038 16.1733 7.57748 17.6669 10.0018C19.1606 12.4261 18.4477 15.5575 16.0035 17.0391C15.2228 17.5441 14.2723 17.8135 13.3218 17.8135ZM16.3091 14.076L15.9356 13.9077C15.9356 13.9077 15.3925 13.672 15.053 13.5036C15.0191 13.5036 14.9851 13.4699 14.9512 13.4699C14.8494 13.4699 14.7815 13.5036 14.7136 13.5373C14.7136 13.5373 14.6796 13.5709 14.2044 14.1097C14.1704 14.177 14.1025 14.2107 14.0346 14.2107H14.0007C13.9668 14.2107 13.8989 14.177 13.8649 14.1434L13.6952 14.076C13.3218 13.9077 12.9823 13.7056 12.7107 13.4363C12.6428 13.3689 12.541 13.3016 12.4731 13.2342C12.2355 12.9985 11.9979 12.7292 11.8281 12.4261L11.7942 12.3588C11.7602 12.3251 11.7602 12.2914 11.7263 12.2241C11.7263 12.1568 11.7263 12.0894 11.7602 12.0557C11.7602 12.0557 11.896 11.8874 11.9979 11.7864C12.0658 11.719 12.0997 11.618 12.1676 11.5507C12.2355 11.4497 12.2694 11.315 12.2355 11.214C12.2015 11.0456 11.7942 10.1365 11.6923 9.93446C11.6245 9.83345 11.5566 9.79977 11.4547 9.7661H11.3529C11.285 9.7661 11.1831 9.7661 11.0813 9.7661C11.0134 9.7661 10.9455 9.79977 10.8776 9.79977L10.8437 9.83345C10.7758 9.86712 10.7079 9.93446 10.64 9.96813C10.5721 10.0355 10.5382 10.1028 10.4703 10.1702C10.2326 10.4732 10.0969 10.8436 10.0969 11.214C10.0969 11.4833 10.1648 11.7527 10.2666 11.9884L10.3005 12.0894C10.6061 12.7292 11.0134 13.3016 11.5566 13.8066L11.6923 13.9413C11.7942 14.0423 11.896 14.1097 11.9639 14.2107C12.6768 14.8168 13.4915 15.2545 14.4081 15.4902C14.5099 15.5239 14.6457 15.5239 14.7475 15.5575C14.8494 15.5575 14.9851 15.5575 15.087 15.5575C15.2567 15.5575 15.4604 15.4902 15.5962 15.4229C15.698 15.3555 15.7659 15.3555 15.8338 15.2882L15.9017 15.2208C15.9696 15.1535 16.0375 15.1198 16.1054 15.0525C16.1733 14.9851 16.2412 14.9178 16.2751 14.8505C16.343 14.7158 16.3769 14.5474 16.4109 14.3791C16.4109 14.3117 16.4109 14.2107 16.4109 14.1434C16.4109 14.1434 16.3769 14.1097 16.3091 14.076Z" fill="white"/>
</svg>
