<svg width="56" height="62" fill="none" xmlns="http://www.w3.org/2000/svg"><mask id="a" fill="#fff"><path d="M54.4415 29.7964v-9.324a.9081.9081 0 0 0-.9083-.9082.9081.9081 0 0 0-.9082.9082v7.754a4.9463 4.9463 0 0 0-3.9346-.2169v-4.7587c0-4.3698-3.5551-7.9248-7.9249-7.9248H14.5833c-4.3698 0-7.9249 3.555-7.9249 7.9248v4.7587c-1.3318-.4934-2.7621-.3728-3.9347.2169V5.7824H52.625v10.4518c0 .5017.4066.9082.9082.9082a.9081.9081 0 0 0 .9083-.9082V2.487c0-1.3714-1.1157-2.487-2.4869-2.487H3.3942C2.023 0 .9073 1.1156.9073 2.4869v27.3093a4.9237 4.9237 0 0 0 0 5.6962v9.4455c0 1.3713 1.1157 2.4869 2.487 2.4869H4.643a2.427 2.427 0 0 0 .217.2301v2.2322c-1.1033.1464-1.9582 1.0911-1.9582 2.2337v1.5158c0 1.1635.8859 2.1241 2.0186 2.2429v3.5608C4.9205 60.8517 6.0687 62 7.4802 62h7.3076c1.4113 0 2.5597-1.1482 2.5597-2.5597v-3.5481h3.7726c.3947.3384.9061.5443 1.4654.5443h2.9698a.908.908 0 0 0 .9082-.9082.908.908 0 0 0-.9082-.9082h-2.9698c-.2487 0-.4392-.2165-.4392-.4392v-2.6044c0-.232.1987-.4392.4392-.4392h10.1176c.2645 0 .41.1411.4798.3179.0048.0161.02.053.02.1213v2.6044c0 .2219-.19.4392-.4394.4392h-2.9698a.908.908 0 0 0-.9082.9082.908.908 0 0 0 .9082.9082h2.9698c.5595 0 1.0709-.2059 1.4655-.5443h3.7727v3.5481c0 1.4114 1.1481 2.5597 2.5595 2.5597h7.3078c1.4113 0 2.5595-1.1482 2.5595-2.5597v-3.5608c1.1327-.1188 2.0188-1.0792 2.0188-2.2429v-1.5158c0-1.1426-.8549-2.0873-1.9582-2.2337v-2.2322c.0768-.0723.15-.1482.2169-.23h1.2488c1.3713 0 2.4869-1.1156 2.4869-2.4869v-9.4456c.5702-.8058.9067-1.788.9067-2.848-.0002-1.0601-.3367-2.0424-.9069-2.848Zm-4.3054 5.9611c-.2972-.7184-.7898-1.3873-1.4457-1.8955v-3.8268c2.1019-1.3822 4.8414.1555 4.8414 2.6091 0 1.8367-1.5776 3.272-3.3957 3.1132Zm-15.1777 9.9796H20.3903c-1.3318 0-2.4152 1.0835-2.4152 2.4153v1.7128H6.6765v-1.5511l7.1208-.0001c1.3317 0 2.4152-1.0834 2.4152-2.4151v-1.1722c0-1.3317-1.0835-2.4152-2.4152-2.4152H6.6765v-4.7757c0-1.5874 1.2956-2.8334 2.8334-2.8334h36.3289c1.5561 0 2.8335 1.2665 2.8335 2.8334v4.7757h-7.1208c-1.3318 0-2.4152 1.0835-2.4152 2.4152v1.1722c0 1.3317 1.0834 2.4151 2.4152 2.4151l7.1208.0001v1.5511H37.3737v-1.7128c0-1.3318-1.0836-2.4153-2.4153-2.4153ZM1.8169 32.6444c0-2.4565 2.7397-3.992 4.8415-2.6091v3.8268c-.659.5105-1.1493 1.1798-1.4457 1.8954-1.8308.159-3.3958-1.2897-3.3958-3.1131Zm8.0177 11.4835h3.9625c.3247 0 .5988.2743.5988.5988v1.1722c0 .3246-.2742.5987-.5988.5987H9.8346c.0492-.1918.0782-.3917.0782-.5987v-1.1722c0-.2069-.029-.4068-.0782-.5988Zm-1.7382.5988v1.1722c0 .3242-.2736.5981-.5977.5987h-.9856c-.3241 0-.5987-.2772-.5987-.5987v-1.1722c0-.32.2735-.5988.5987-.5988h.9845c.3245 0 .5988.2743.5988.5988Zm35.6378-11.8408H42.383c-.1248-4.2413-3.6114-7.6538-7.8824-7.6538-4.2708 0-7.7574 3.4125-7.8821 7.6538h-15.004v-9.6351c0-1.6371 1.3318-2.9688 2.9689-2.9688h26.182c1.6372 0 2.969 1.3317 2.969 2.9688v9.6351h-.0002Zm-12.1677 0c.12-1.5142 1.3896-2.7099 2.934-2.7099 1.5445 0 2.8142 1.1957 2.9341 2.7099h-5.8681Zm2.9341-4.5263c-2.5465 0-4.6324 2.0096-4.755 4.5263h-1.3121c.1236-3.2398 2.7977-5.8374 6.0671-5.8374 3.2695 0 5.9438 2.5976 6.0673 5.8374h-1.3123c-.1224-2.5167-2.2085-4.5263-4.755-4.5263Zm11.0135 18.138h-3.9626c-.3246 0-.5988-.2743-.5988-.5987v-1.1722c0-.3246.2743-.5988.5988-.5988h3.9626c-.0492.192-.0783.3919-.0783.5988v1.1722c.0002.2071.0291.4069.0783.5987Zm1.7383-.5987v-1.1722c0-.3246.2742-.5988.5988-.5988h.9843c.2752 0 .5337.205.5878.4924a.569.569 0 0 1 .0112.1064v1.1722c0 .3226-.2759.5987-.5988.5987h-.9855c-.3243-.0006-.5978-.2744-.5978-.5987ZM8.4748 23.2508c0-3.3682 2.7403-6.1084 6.1085-6.1084h26.1821c3.3682 0 6.1084 2.7402 6.1084 6.1084v9.7513a5.1338 5.1338 0 0 0-.4533-.0786c-.3777-.0473-.5735-.036-.87-.0376v-9.6351c0-2.6385-2.1467-4.7852-4.7854-4.7852H14.5833c-2.6385 0-4.7853 2.1467-4.7853 4.7852v9.6351c-.3832.007-.7524-.0142-1.3233.1162l.0001-9.7513ZM2.7238 2.4869a.6713.6713 0 0 1 .6704-.6705h48.5604a.6712.6712 0 0 1 .6704.6705v1.4792H2.7237V2.4869Zm0 42.4511v-7.8755c.6612.3325 1.4125.512 2.1363.5238v5.384c-.0015.0013-.0028.003-.0043.0043-.4715.4463-.7578 1.071-.7578 1.7521v.8817h-.7038c-.3697.0001-.6705-.3008-.6705-.6704Zm1.9945 8.6986v-1.5158c0-.238.2011-.4392.4392-.4392l15.1723.0001v2.3941H5.1575c-.238 0-.4392-.2013-.4392-.4392Zm10.8127 5.8036c0 .4099-.3334.7433-.7433.7433H7.4801c-.41 0-.7433-.3334-.7433-.7433V55.892h8.794v3.5482h.0002Zm6.9938-10.1193c-.5381 0-1.0587.1979-1.4641.5443h-1.2692v-1.7128c0-.3247.2743-.5989.5988-.5989h14.5681c.3246 0 .5988.2743.5988.5989v1.7128h-1.3284c-.7191-.6166-1.4897-.5378-1.5259-.5443H22.5248Zm26.087 10.1193c0 .4099-.3334.7433-.7432.7433h-7.3077c-.4098 0-.7432-.3334-.7432-.7433V55.892h8.7939v3.5482h.0002Zm2.0187-7.3194v1.5158c0 .238-.2011.4392-.4392.4392H35.019v-2.3942h15.1723c.2381 0 .4392.2012.4392.4392Zm1.9945-7.1828a.6712.6712 0 0 1-.6704.6705h-.7038v-.8816c0-.6899-.2924-1.3116-.7577-1.7521-.0015-.0015-.0028-.0032-.0044-.0045v-5.384c.7173-.0117 1.469-.1884 2.1363-.5238v7.8755Z"/></mask><path d="M54.4415 29.7964v-9.324a.9081.9081 0 0 0-.9083-.9082.9081.9081 0 0 0-.9082.9082v7.754a4.9463 4.9463 0 0 0-3.9346-.2169v-4.7587c0-4.3698-3.5551-7.9248-7.9249-7.9248H14.5833c-4.3698 0-7.9249 3.555-7.9249 7.9248v4.7587c-1.3318-.4934-2.7621-.3728-3.9347.2169V5.7824H52.625v10.4518c0 .5017.4066.9082.9082.9082a.9081.9081 0 0 0 .9083-.9082V2.487c0-1.3714-1.1157-2.487-2.4869-2.487H3.3942C2.023 0 .9073 1.1156.9073 2.4869v27.3093a4.9237 4.9237 0 0 0 0 5.6962v9.4455c0 1.3713 1.1157 2.4869 2.487 2.4869H4.643a2.427 2.427 0 0 0 .217.2301v2.2322c-1.1033.1464-1.9582 1.0911-1.9582 2.2337v1.5158c0 1.1635.8859 2.1241 2.0186 2.2429v3.5608C4.9205 60.8517 6.0687 62 7.4802 62h7.3076c1.4113 0 2.5597-1.1482 2.5597-2.5597v-3.5481h3.7726c.3947.3384.9061.5443 1.4654.5443h2.9698a.908.908 0 0 0 .9082-.9082.908.908 0 0 0-.9082-.9082h-2.9698c-.2487 0-.4392-.2165-.4392-.4392v-2.6044c0-.232.1987-.4392.4392-.4392h10.1176c.2645 0 .41.1411.4798.3179.0048.0161.02.053.02.1213v2.6044c0 .2219-.19.4392-.4394.4392h-2.9698a.908.908 0 0 0-.9082.9082.908.908 0 0 0 .9082.9082h2.9698c.5595 0 1.0709-.2059 1.4655-.5443h3.7727v3.5481c0 1.4114 1.1481 2.5597 2.5595 2.5597h7.3078c1.4113 0 2.5595-1.1482 2.5595-2.5597v-3.5608c1.1327-.1188 2.0188-1.0792 2.0188-2.2429v-1.5158c0-1.1426-.8549-2.0873-1.9582-2.2337v-2.2322c.0768-.0723.15-.1482.2169-.23h1.2488c1.3713 0 2.4869-1.1156 2.4869-2.4869v-9.4456c.5702-.8058.9067-1.788.9067-2.848-.0002-1.0601-.3367-2.0424-.9069-2.848Zm-4.3054 5.9611c-.2972-.7184-.7898-1.3873-1.4457-1.8955v-3.8268c2.1019-1.3822 4.8414.1555 4.8414 2.6091 0 1.8367-1.5776 3.272-3.3957 3.1132Zm-15.1777 9.9796H20.3903c-1.3318 0-2.4152 1.0835-2.4152 2.4153v1.7128H6.6765v-1.5511l7.1208-.0001c1.3317 0 2.4152-1.0834 2.4152-2.4151v-1.1722c0-1.3317-1.0835-2.4152-2.4152-2.4152H6.6765v-4.7757c0-1.5874 1.2956-2.8334 2.8334-2.8334h36.3289c1.5561 0 2.8335 1.2665 2.8335 2.8334v4.7757h-7.1208c-1.3318 0-2.4152 1.0835-2.4152 2.4152v1.1722c0 1.3317 1.0834 2.4151 2.4152 2.4151l7.1208.0001v1.5511H37.3737v-1.7128c0-1.3318-1.0836-2.4153-2.4153-2.4153ZM1.8169 32.6444c0-2.4565 2.7397-3.992 4.8415-2.6091v3.8268c-.659.5105-1.1493 1.1798-1.4457 1.8954-1.8308.159-3.3958-1.2897-3.3958-3.1131Zm8.0177 11.4835h3.9625c.3247 0 .5988.2743.5988.5988v1.1722c0 .3246-.2742.5987-.5988.5987H9.8346c.0492-.1918.0782-.3917.0782-.5987v-1.1722c0-.2069-.029-.4068-.0782-.5988Zm-1.7382.5988v1.1722c0 .3242-.2736.5981-.5977.5987h-.9856c-.3241 0-.5987-.2772-.5987-.5987v-1.1722c0-.32.2735-.5988.5987-.5988h.9845c.3245 0 .5988.2743.5988.5988Zm35.6378-11.8408H42.383c-.1248-4.2413-3.6114-7.6538-7.8824-7.6538-4.2708 0-7.7574 3.4125-7.8821 7.6538h-15.004v-9.6351c0-1.6371 1.3318-2.9688 2.9689-2.9688h26.182c1.6372 0 2.969 1.3317 2.969 2.9688v9.6351h-.0002Zm-12.1677 0c.12-1.5142 1.3896-2.7099 2.934-2.7099 1.5445 0 2.8142 1.1957 2.9341 2.7099h-5.8681Zm2.9341-4.5263c-2.5465 0-4.6324 2.0096-4.755 4.5263h-1.3121c.1236-3.2398 2.7977-5.8374 6.0671-5.8374 3.2695 0 5.9438 2.5976 6.0673 5.8374h-1.3123c-.1224-2.5167-2.2085-4.5263-4.755-4.5263Zm11.0135 18.138h-3.9626c-.3246 0-.5988-.2743-.5988-.5987v-1.1722c0-.3246.2743-.5988.5988-.5988h3.9626c-.0492.192-.0783.3919-.0783.5988v1.1722c.0002.2071.0291.4069.0783.5987Zm1.7383-.5987v-1.1722c0-.3246.2742-.5988.5988-.5988h.9843c.2752 0 .5337.205.5878.4924a.569.569 0 0 1 .0112.1064v1.1722c0 .3226-.2759.5987-.5988.5987h-.9855c-.3243-.0006-.5978-.2744-.5978-.5987ZM8.4748 23.2508c0-3.3682 2.7403-6.1084 6.1085-6.1084h26.1821c3.3682 0 6.1084 2.7402 6.1084 6.1084v9.7513a5.1338 5.1338 0 0 0-.4533-.0786c-.3777-.0473-.5735-.036-.87-.0376v-9.6351c0-2.6385-2.1467-4.7852-4.7854-4.7852H14.5833c-2.6385 0-4.7853 2.1467-4.7853 4.7852v9.6351c-.3832.007-.7524-.0142-1.3233.1162l.0001-9.7513ZM2.7238 2.4869a.6713.6713 0 0 1 .6704-.6705h48.5604a.6712.6712 0 0 1 .6704.6705v1.4792H2.7237V2.4869Zm0 42.4511v-7.8755c.6612.3325 1.4125.512 2.1363.5238v5.384c-.0015.0013-.0028.003-.0043.0043-.4715.4463-.7578 1.071-.7578 1.7521v.8817h-.7038c-.3697.0001-.6705-.3008-.6705-.6704Zm1.9945 8.6986v-1.5158c0-.238.2011-.4392.4392-.4392l15.1723.0001v2.3941H5.1575c-.238 0-.4392-.2013-.4392-.4392Zm10.8127 5.8036c0 .4099-.3334.7433-.7433.7433H7.4801c-.41 0-.7433-.3334-.7433-.7433V55.892h8.794v3.5482h.0002Zm6.9938-10.1193c-.5381 0-1.0587.1979-1.4641.5443h-1.2692v-1.7128c0-.3247.2743-.5989.5988-.5989h14.5681c.3246 0 .5988.2743.5988.5989v1.7128h-1.3284c-.7191-.6166-1.4897-.5378-1.5259-.5443H22.5248Zm26.087 10.1193c0 .4099-.3334.7433-.7432.7433h-7.3077c-.4098 0-.7432-.3334-.7432-.7433V55.892h8.7939v3.5482h.0002Zm2.0187-7.3194v1.5158c0 .238-.2011.4392-.4392.4392H35.019v-2.3942h15.1723c.2381 0 .4392.2012.4392.4392Zm1.9945-7.1828a.6712.6712 0 0 1-.6704.6705h-.7038v-.8816c0-.6899-.2924-1.3116-.7577-1.7521-.0015-.0015-.0028-.0032-.0044-.0045v-5.384c.7173-.0117 1.469-.1884 2.1363-.5238v7.8755Z" fill="#CB8734" stroke="#fff" stroke-width=".2" mask="url(#a)"/></svg>