<svg width="59" height="62" fill="none" xmlns="http://www.w3.org/2000/svg"><path d="m36.2291 57.1829.0243.003 8.4716 1.0731.026.0033.0121.0233 1.4673 2.8279c.2657.5121.9866.6353 1.3981.1802l2.8856-3.1927a.8582.8582 0 0 0 .2205-.6152l-.1514-3.2567-.0013-.027.0219-.0158c.8786-.6378 1.4856-1.6525 1.6245-2.7312l1.1139-8.6451.0088-.0682.0622.0293c1.5468.7297 3.4364-.2907 3.6565-1.999l1.4378-11.1596c.2552-1.9794-.946-3.9396-2.8321-4.5997l-.0397-.0139.0069-.0415c.3536-2.1372-.9442-4.2841-3.1168-4.7373l-.0451-.0095.0057-.0457 1.4941-11.9214c.2224-1.775-1.0987-3.4676-2.8756-3.69L15.3102.0757c-1.812-.2256-3.4704 1.0599-3.6972 2.8675a.8081.8081 0 0 0-.0049.053l-.0002.0034h-.0001l-.6064 4.8385-.0055.0438H3.3621C1.5358 7.882.05 9.3645.05 11.1862v35.0614c.0185.563.4346.849.855.8521.2106.0015.4202-.0683.5795-.2091.1584-.14.27-.3527.2815-.6432V11.1862c0-.8761.7162-1.5883 1.596-1.5883h36.0742c.8798 0 1.596.7122 1.596 1.5883V49.4699h-7.4856c-1.8263 0-3.3121 1.4825-3.3121 3.3044v7.4596H3.3621c-.88 0-1.5961-.7122-1.5961-1.5883v-7.5607a.858.858 0 0 0-.858-.858.858.858 0 0 0-.858.858v7.5607c0 1.8219 1.4857 3.3044 3.312 3.3044h27.7305c.2266 0 .4453-.0931.6073-.2519l4.5293-4.5152Zm0 0-.0173.0172-4.5117 4.4977 4.529-4.5149Zm12.4135-27.2267.0496.0064 4.4508.5734.0496.0064-.0064.0496-.2322 1.8017c-.0357.2771.0446.4953.1847.6514.141.1572.3452.2542.5601.2818.215.0277.4371-.0144.6134-.1307.1751-.1155.308-.3063.3437-.5833l.7447-5.779.0093-.0722.064.0346c.3131.169.5915.4016.8156.6919.4207.5451.604 1.2218.516 1.9049l-1.4378 11.1596c-.0346.2685-.1683.4578-.3488.5714-.1791.1128-.4011.1492-.6121.1203-.211-.029-.4152-.1238-.5582-.2791-.1439-.1563-.2236-.3716-.1871-.6342l-5.0189-10.3749Zm0 0-.0064.0496-2.6599 20.6436c-.1599 1.2416.7404 2.4083 1.982 2.5682 1.2415.16 2.4079-.7402 2.568-1.9818l1.812-14.0626c.0356-.277.1686-.4677.3437-.5832.1762-.1163.3984-.1585.6133-.1308.215.0276.4192.1246.5602.2817.1401.1561.2204.3743.1847.6514l-.3787 2.9382-5.0189-10.3743Zm.3475 27.2715.0138-.0153-.0009-.0206-.1042-2.2366-.0025-.0552-.0547.008a4.038 4.038 0 0 1-2.1669-.278l-.0508-.0216-.0165.0527-.6672 2.1359-.0061.0197.0094.0183 1.2074 2.3269.0332.064.0483-.0535 1.7577-1.9447Zm4.3722-28.3938.0496.0064.0064-.0496.561-4.3542c.1616-1.2543-.7274-2.4064-1.9819-2.5683a2.2793 2.2793 0 0 0-1.6944.4592 2.2796 2.2796 0 0 0-.8737 1.5227l-.561 4.3544-.0064.0495.0496.0064 4.4508.5735Zm-40.63-21.0082-.007.0562h26.7108c1.8263 0 3.3119 1.4826 3.3118 3.3043v39.1417c0 .2355-.0966.4319-.2533.6087l-4.6539 4.6393-.0724.0722.1015.0128 6.3337.8023.0415.0053.0125-.04.9044-2.8958.0081-.0258-.0171-.0208c-.6893-.8407-1.0176-1.9773-.8786-3.056l2.776-21.5441h.0004v-.0034l.6767-5.2515c.1368-1.0624.679-2.0077 1.5271-2.6622a4.002 4.002 0 0 1 1.4588-.7123l.033-.0084.0042-.0338 1.5271-12.1845-.0496-.0062.0496.0062c.1081-.8636-.5253-1.6662-1.386-1.7738L15.0972 1.7786c-.8613-.108-1.6501.4914-1.7765 1.3418h-.0001l-.0003.0037a.8939.8939 0 0 1-.0046.0468l-.5834 4.6548Zm26.9962 43.4456.0857-.0854H33.5464c-.8799 0-1.5961.7124-1.596 1.5884v6.2508l.0853-.085 7.6928-7.6688Z" fill="#CB8734" stroke="#fff" stroke-width=".1"/><path d="M35.5834 19.1742h.05v-4.439H7.0424v4.439h28.541Zm1.7659-5.297v6.155c0 .474-.384.858-.8579.858H6.1844a.858.858 0 0 1-.858-.858v-6.155a.858.858 0 0 1 .858-.858h30.307a.8579.8579 0 0 1 .8579.858ZM7.1659 27.3324c-1.136-.0398-1.1366-1.6758 0-1.716h28.4664c1.1361.0397 1.1366 1.6759 0 1.716H7.1659ZM16.8758 33.5067c-1.1359-.0398-1.1366-1.6758.0001-1.716h18.7563c1.1362.0398 1.1366 1.6759 0 1.716H16.8758ZM35.6331 37.965c.474 0 .858.3841.858.858 0 .474-.384.858-.858.858H16.8758c-1.1359-.0397-1.1366-1.6758.0001-1.716h18.7572ZM8.3681 41.3176l-.0048.0491c-.0439.4484.062.7705.2342.9764.1723.2059.4146.3004.6544.2881.24-.0124.4782-.1317.641-.3557.1626-.2237.2525-.5557.1871-.9964l-.0064-.0435.0423-.0119c1.3016-.3687 2.1383-1.5015 2.3275-2.6198.2497-1.4762-.5445-2.8097-1.9793-3.3202-.1008-.0358-.2247-.0746-.3625-.1177-.3544-.111-.801-.2508-1.1834-.4438-.2666-.1345-.5082-.2975-.6702-.4997-.1634-.2039-.2454-.4476-.1906-.737m.3107 7.8321.3997-8.6208-.0145-.0478c-.4235.1283-.636.5195-.696.8365m.3108 7.8321-.049-.0054m.049.0054-.049-.0054m-.2617-7.8267.0491.0093-.0491-.0093Zm.2616 7.8267c-.6341-.07-1.1565-.2593-1.868-.7277a.8581.8581 0 0 1-.245-1.1885m2.113 1.9162L6.206 39.396m4.2239-6.4781.0003.0003.001.0014.0048.0062a.7655.7655 0 0 0 .0194.024c.0174.0206.0432.0494.0766.0818.0672.0652.1639.1437.2836.1998.1193.056.2605.0894.4185.066.1578-.0233.3369-.104.5309-.2837.1774-.1645.2524-.3292.2693-.4824.017-.1541-.0244-.3022-.0896-.433-.0652-.1308-.1532-.2419-.2254-.3207a1.5336 1.5336 0 0 0-.1171-.115l-.0069-.006-.0017-.0014-.0004-.0003-1.1633 1.263Zm0 0Zm-1.2142 6.7146c.9042-.0061 1.4296-.6878 1.5358-1.3149.0263-.1557.0456-.426-.0599-.7002-.1065-.2766-.3381-.5518-.8026-.717-1.362-.4845-2.1446-.8639-2.7091-1.3094-.6781-.5354-.9904-1.4631-.8086-2.4246.192-1.0155.9586-1.8963 1.956-2.1786l.0415-.0117-.0056-.0428c-.0545-.4212.0391-.7363.2019-.9473.163-.2114.398-.3223.6344-.331a.8028.8028 0 0 1 .6444.2839c.1697.1987.275.507.2359.9338l-.004.0439.043.0095c.6772.1496 1.195.4697 1.4721.7268h-.0001l.0024.002-2.3779 7.9276m.0004.05-.0004-.05m.0004.05-.0004-.05m.0004.05c-.4306.0031-.7193-.006-.984-.0723-.2659-.0665-.5042-.19-.8372-.4091m1.8208.4314c-.8618.0063-1.131-.0372-1.7933-.4732m-.0274.0418.0274-.0418m-.0274.0418c-.3959-.2602-.9278-.1509-1.1885.2449m1.1884-.2449.0275-.0418m0 0-1.216.2867M24.1607 54.2238c1.136.0398 1.1366 1.6758 0 1.716H7.1659c-1.136-.0397-1.1366-1.6758 0-1.716h16.9948Z" fill="#CB8734" stroke="#fff" stroke-width=".1"/></svg>