<svg width="62" height="62" fill="none" xmlns="http://www.w3.org/2000/svg"><path d="M13.4332.1h43.398a5.0728 5.0728 0 0 1 5.0665 5.0666v4.133a.933.933 0 0 1-.9333.9333H53.6314v6.7058a.9336.9336 0 0 1-.9333.9333.9335.9335 0 0 1-.9333-.9333V5.1667a5.013 5.013 0 0 1 1.0394-3.0391l.1238-.161H13.4331a3.2 3.2 0 0 0-3.1999 3.1999v18.2551a.933.933 0 0 1-.9333.9333.933.933 0 0 1-.9333-.9333V5.1666A5.0727 5.0727 0 0 1 13.4332.1Zm46.4979 8.2663h.1V5.1665a3.1998 3.1998 0 1 0-6.3997 0v3.1998h6.2997ZM2.067 55.6978h-.1V56.8311a3.2 3.2 0 0 0 3.2 3.1999h39.4653l-.1204-.1601a5.0456 5.0456 0 0 1-1.0132-3.0396V55.6978H2.0671Zm49.9714-13.5876a.933.933 0 0 1 1.3198 0 .933.933 0 0 1 .2734.6599V56.831a5.0725 5.0725 0 0 1-5.0666 5.0666H5.167A5.0728 5.0728 0 0 1 .1006 56.831v-2.0665a.9332.9332 0 0 1 .9333-.9332H44.432a.9333.9333 0 0 1 .9333.9332v2.0666a3.1999 3.1999 0 1 0 6.3997 0v-14.061a.933.933 0 0 1 .2734-.6599Z" fill="#CB8734" stroke="#fff" stroke-width=".2"/><path d="M20.766 35.1319v-.1H1.0335v.1-.1a.9339.9339 0 0 1-.8934-.6627.9333.9333 0 0 1 .3754-1.0471l12.3995-8.2663a.9328.9328 0 0 1 1.036 0l12.3995 8.2663a.9326.9326 0 0 1 .3607.4615.9337.9337 0 0 1-.8787 1.2483h-3.1999v13.5328a.9333.9333 0 0 1-.9333.9333H5.1667a.9334.9334 0 0 1-.9333-.9333V38.2318a.9332.9332 0 1 1 1.8666 0v9.3996H9.3998v-5.2665a2.9998 2.9998 0 0 1 2.9999-2.9999h2.0666a2.9998 2.9998 0 0 1 2.9999 2.9999v5.2665H20.766V35.1319Zm-9.4996 12.3995v.1h4.3332v-5.2665a1.1333 1.1333 0 0 0-1.1333-1.1333h-2.0666c-.3006 0-.5888.1194-.8013.332a1.133 1.133 0 0 0-.332.8013v5.1665Zm2.2221-20.5424-.0555-.037-.0555.037-8.9896 5.9931-.2748.1832h18.6398l-.2748-.1832-8.9896-5.9931ZM56.2978 17.0993l-1.5499 2.6866-.05.0866-.0867-.05a.9331.9331 0 0 0-1.2748.3416l-1.5499 2.6865-.05.0867-.0867-.05-.8948-.5167a2.9995 2.9995 0 0 0-4.0998 1.1h-.0001l-4.1331 7.1597a.9335.9335 0 1 0 1.6174.9333l4.1332-7.1597.0001-.0001a1.133 1.133 0 0 1 1.548-.4136l.8948.5166.0866.05-.05.0866-9.8129 16.9959a.1625.1625 0 0 1-.0139.0409l-.0012.0023v-.0001a.9324.9324 0 0 0-.092.2589.262.262 0 0 1-.0084.0492l-.0002.0008a.1748.1748 0 0 0-.0048.021.2249.2249 0 0 1-.0039.0283c-.0018.0087-.0039.0156-.0053.0202a.0019.0019 0 0 0-.0002.0007l-.2043 3.5686v.0003a2.5804 2.5804 0 0 0 .5462 1.7226l.0416.0532-.0338.0585-.6313 1.0932a.934.934 0 0 0 .3421 1.2754.9341.9341 0 0 0 1.2754-.3421v-.0001l.6303-1.0911.0357-.0618.0701.0137a2.704 2.704 0 0 0 .3292.0436 2.602 2.602 0 0 0 1.4304-.4339l.0002-.0001 2.9942-1.9751a.6377.6377 0 0 0 .0676-.0584l.0098-.0096.0005.0007a.7894.7894 0 0 0 .082-.0709.8854.8854 0 0 0 .0848-.1089l.0008-.0011c.0126-.0186.0272-.035.0353-.0445a.1531.1531 0 0 0 .0165-.0215l.0001-.0001 5.4299-9.4029a.9337.9337 0 0 0-1.6175-.9333l-.0817-.0472.0817.0472-4.9122 8.5102-.05.0866-.0867-.05-1.7896-1.0333-1.7897-1.0333-.0866-.05.05-.0866 9.2996-16.1069.05-.0866.0867.05 3.5782 2.0666.0866.05-.05.0866-2.3197 4.0174a.9337.9337 0 0 0 1.6174.9334l.8687-15.5907Zm0 0a3.0002 3.0002 0 0 1 4.0998-1.1l.0501-.0866-.05.0867a3.0002 3.0002 0 0 1 1.3998 1.8219 2.9999 2.9999 0 0 1-.2998 2.2779v.0001l-1.55 2.6865-.0499.0865.0865.05a.9325.9325 0 0 1 .4346.568.9339.9339 0 0 1-.0949.7088l-.0001.0003-1.55 2.6865-.0499.0866.0865.05.8949.5166.0005.0004a.9338.9338 0 0 1 .4394.5668.9333.9333 0 0 1-1.3726 1.0496l-.0006-.0003-.8949-.5167-.0867-.05-.0499.0867-2.3114 4.0143.8686-15.5906ZM43.6073 46.404l.0001-.0001 1.6026-1.056.1353-.0892-.1404-.081-2.4768-1.428-.14-.0807-.0097.1613-.1158 1.9116v.0001a.7389.7389 0 0 0 .3681.6842.7396.7396 0 0 0 .7766-.0222Zm14.308-28.3714v.0001l-1.551 2.6865-.05.0866.0866.05.8959.5167.8948.5166.0866.05.05-.0866 1.55-2.6866a1.1334 1.1334 0 0 0-.4148-1.547l-.0421.0729.0421-.0729a1.1335 1.1335 0 0 0-1.5481.4137Zm-4.5103 5.7482-.05.0866.0866.05 3.5782 2.0666.0866.05.05-.0866 1.0333-1.7896.05-.0866-.0866-.05-3.5782-2.0666-.0866-.05-.05.0866-1.0333 1.7896ZM39.2652 10.4329h.1V8.1663H22.6326V10.4329h16.6326Zm1.9666-3.1999v4.1332a.9333.9333 0 0 1-.9333.9332H21.6993a.9333.9333 0 0 1-.9333-.9332V7.233a.933.933 0 0 1 .9333-.9333h18.5992a.9335.9335 0 0 1 .9333.9333ZM40.2985 19.9666H21.6993a.933.933 0 0 1-.6599-.2734.933.933 0 0 1 0-1.3198.933.933 0 0 1 .6599-.2734h18.5992a.9332.9332 0 0 1 .66 1.5932.9332.9332 0 0 1-.66.2734ZM41.3318 25.9666H21.6993a.933.933 0 0 1-.6599-.2734.933.933 0 0 1 0-1.3198.933.933 0 0 1 .6599-.2734h19.6325a.9333.9333 0 0 1 0 1.8666ZM29.9659 31.0985h9.2996a.9333.9333 0 1 1 0 1.8666h-9.2996a.9333.9333 0 1 1 0-1.8666Z" fill="#CB8734" stroke="#fff" stroke-width=".2"/><path d="M39.9253 37.5716a.9334.9334 0 0 1-.6599 1.5932H25.8326a.9333.9333 0 1 1 0-1.8666h13.4328a.9334.9334 0 0 1 .6599.2734ZM27.2391 44.3734a.933.933 0 0 1 .6599-.2734h7.233a.933.933 0 0 1 .9333.9333.9333.9333 0 0 1-.9333.9333h-7.233a.9334.9334 0 0 1-.6599-1.5932Z" fill="#CB8734" stroke="#fff" stroke-width=".2"/></svg>