<svg width="61" height="62" fill="none" xmlns="http://www.w3.org/2000/svg"><mask id="a" fill="#fff"><path d="M15.2001 19.9842H6.7453c-.5526 0-1.0572.2301-1.4245.5939-.3673.3673-.594.8717-.594 1.4245v23.5c0 .5012-.405.9097-.9062.9097a.909.909 0 0 1-.9096-.9097v-23.5c0-1.0538.4324-2.0115 1.126-2.7085.6934-.6932 1.6545-1.1258 2.7083-1.1258H15.2v-4.8262c0-.5012.4084-.9096.9096-.9096s.9097.4084.9097.9096v28.148h27.3722V4.4755l-2.7428-2.372-3.0551 2.6466c-.35.302-.8614.2916-1.1946-.0104l-3.048-2.6362L31.2958 4.75c-.3467.302-.8616.2916-1.1946-.0104l-3.0448-2.6362-3.0585 2.6465c-.3467.302-.8617.2916-1.1947-.0104l-3.0448-2.6362-2.7392 2.372V9.226c0 .5012-.4085.9097-.9097.9097s-.9097-.4085-.9097-.9097V4.067c0-.254.1099-.508.3159-.6866L19.1543.2292c.333-.2987.8479-.309 1.1945-.0102l3.0586 2.65L26.452.2291c.3329-.2987.8478-.309 1.1945-.0102l3.0586 2.65L33.75.2291c.3329-.2987.8478-.309 1.1945-.0102l3.0551 2.65 3.045-2.6398c.3363-.2987.8478-.309 1.1981-.0102l3.5939 3.1168c.2232.1648.3707.429.3707.7312v14.1013h7.8266c1.0537 0 2.0151.4326 2.7083 1.1258.6934.6938 1.126 1.6547 1.126 2.7085v30.822h.2608c.5423 0 1.0092.096 1.3971.2712.4015.1852.7138.4529.9302.7928.2129.34.3227.7313.3227 1.1604 0 .4323-.1167.9129-.3467 1.4211l-1.4795 3.2405c-.3157.6933-.6899 1.2459-1.2047 1.6442-.5492.4221-1.2048.6452-2.0459.6452H5.0772c-.841 0-1.4967-.2231-2.046-.6452-.515-.3983-.8892-.9509-1.2049-1.6442L.3468 56.4701C.1133 55.9619 0 55.4848 0 55.0522c0-.4323.11-.8238.3228-1.1636.2163-.3399.5286-.6076.9303-.7928.3878-.1752.8548-.2712 1.397-.2712h.2609v-3.2062a.909.909 0 0 1 .9096-.9097c.5013 0 .9062.4085.9062.9097v3.2062h17.5856c.5012 0 .9097.4052.9097.9063 0 .4427.1821.8443.4738 1.1362.2919.2916.6935.4735 1.1329.4735h11.1218c.4394 0 .841-.1819 1.1328-.4735.2918-.2919.4737-.6935.4737-1.1362 0-.5013.4084-.9063.9096-.9063h17.5857v-30.822c0-.5526-.2266-1.0571-.5939-1.4245-.3673-.3638-.8718-.5939-1.4245-.5939h-7.8266v1.7405h7.8266c.5012 0 .9061.405.9061.9061v4.1157c0 .5012-.405.9097-.9061.9097-.5012 0-.9097-.4085-.9097-.9097v-3.2062h-6.9169V37.92h1.5482c.7346 0 1.4005.302 1.8844.7826.4806.4839.7793 1.1499.7793 1.8809v3.6284c0 .7346-.2987 1.4003-.7793 1.8846-.4839.4806-1.1498.7791-1.8844.7791H13.6519a2.6539 2.6539 0 0 1-1.8811-.7791c-.484-.4842-.7826-1.1499-.7826-1.8846v-3.6284c0-.731.2986-1.397.7826-1.8809.4806-.4806 1.1465-.7826 1.8811-.7826h1.5482V23.5404H8.2832v25.728h44.8411v-18.406a.9091.9091 0 0 1 .9097-.9097c.5012 0 .9061.4052.9061.9097v19.3157a.9053.9053 0 0 1-.9061.9062H7.3735a.9053.9053 0 0 1-.9061-.9062V22.6309c0-.5012.405-.9061.9061-.9061h7.8266v-1.7406Zm6.0448 12.4365a.9052.9052 0 0 1-.9062-.906c0-.5047.4051-.9097.9062-.9097h18.9175a.909.909 0 0 1 .9097.9097c0 .5012-.4085.906-.9097.906H21.2449Zm0 7.0235a.9054.9054 0 0 1-.9062-.9063c0-.5045.4051-.9099.9062-.9099h14.8222c.5012 0 .9062.4054.9062.9099a.9054.9054 0 0 1-.9062.9063H21.2449Zm0-3.5118a.9053.9053 0 0 1-.9062-.9062c0-.5045.4051-.9097.9062-.9097h18.9175a.9091.9091 0 0 1 .9097.9097c0 .5012-.4085.9062-.9097.9062H21.2449ZM34.344 10.7402c.3741.3362.4016.9096.0686 1.2802-.3364.3742-.9096.4015-1.2803.0685-.0034-.0033-.594-.5456-1.617-.7275v5.444c.3364.1305.6935.2608 1.0675.3914 1.5586.5525 2.4991 1.6028 2.9143 2.8182.2609.7722.3056 1.6064.1512 2.4095a5.2693 5.2693 0 0 1-.9989 2.2211c-.7312.944-1.7986 1.6613-3.1342 1.8947v1.4039c0 .5012-.4051.9063-.9096.9063a.9054.9054 0 0 1-.9062-.9063v-1.335c-.5115-.0206-.9576-.072-1.404-.1819-.7105-.175-1.373-.4839-2.2176-1.0367-.4187-.2746-.5354-.8375-.2608-1.2563.2746-.4189.8376-.5355 1.2564-.2645.6659.4362 1.1603.6764 1.6579.7965.2952.0755.6076.1134.968.1303v-6.7727c-.7998-.3534-1.6065-.7654-2.2966-1.3044-.5526-.4323-.9233-1.0193-1.119-1.668-.1922-.635-.2161-1.3353-.0823-2.0151.1338-.6727.4221-1.3318.8615-1.8914.4944-.6315 1.174-1.1327 2.0287-1.3903.206-.062.4085-.1132.6077-.1511V8.3373c0-.5012.405-.9097.9061-.9097a.909.909 0 0 1 .9097.9097v1.198c1.758.216 2.8255 1.2014 2.8289 1.2049Zm-4.6444.7277c-.0308.0069-.0617.0171-.0927.0239-.4702.1442-.8444.4189-1.1155.7689-.2575.3262-.4292.7174-.5081 1.1226-.079.3983-.0687.7963.0379 1.1499.0927.3056.2574.5733.4943.7588.3226.254.7173.4943 1.1841.7277v-4.5518Zm1.8159 7.2738v5.9455c.7139-.1992 1.2907-.6178 1.6993-1.1467.3329-.4325.556-.9337.6521-1.4486.0962-.5045.0721-1.0229-.0892-1.4964-.3844-1.1294-1.2428-1.4833-2.2622-1.8538Zm14.6918 20.9942v2.6638c0 .5012-.4084.9063-.9097.9063h-29.188c-.5012 0-.9096-.4052-.9096-.9063v-2.6638h-1.5482c-.2335 0-.4427.0963-.5974.2507-.1544.1544-.2505.3672-.2505.5972v3.6283c0 .2335.0961.4464.2505.6008.1545.1509.3639.2471.5974.2471h34.1037a.8492.8492 0 0 0 .8478-.8479v-3.6283c0-.2298-.0961-.4427-.2504-.5972a.8355.8355 0 0 0-.5974-.2507h-1.5482ZM5.0771 60.1809H55.702c.4155 0 .7175-.0891.9372-.2608.2574-.1992.4703-.5253.6693-.9613l1.476-3.2404c.0859-.1819.2608-.6693.1373-.865-.1201-.1889-.6007-.2129-.7929-.2129H39.2528a3.4186 3.4186 0 0 1-.8857 1.5104c-.618.6214-1.4762 1.0059-2.4167 1.0059H24.8285c-.9405 0-1.7988-.3845-2.42-1.0059a3.461 3.461 0 0 1-.8821-1.5104H2.6501c-.1921 0-.6728.0239-.7929.2129-.1236.1956.0516.6831.1373.865l1.476 3.2404c.1991.436.4119.7621.666.9613.223.1716.5251.2608.9406.2608Z"/></mask><path d="M15.2001 19.9842H6.7453c-.5526 0-1.0572.2301-1.4245.5939-.3673.3673-.594.8717-.594 1.4245v23.5c0 .5012-.405.9097-.9062.9097a.909.909 0 0 1-.9096-.9097v-23.5c0-1.0538.4324-2.0115 1.126-2.7085.6934-.6932 1.6545-1.1258 2.7083-1.1258H15.2v-4.8262c0-.5012.4084-.9096.9096-.9096s.9097.4084.9097.9096v28.148h27.3722V4.4755l-2.7428-2.372-3.0551 2.6466c-.35.302-.8614.2916-1.1946-.0104l-3.048-2.6362L31.2958 4.75c-.3467.302-.8616.2916-1.1946-.0104l-3.0448-2.6362-3.0585 2.6465c-.3467.302-.8617.2916-1.1947-.0104l-3.0448-2.6362-2.7392 2.372V9.226c0 .5012-.4085.9097-.9097.9097s-.9097-.4085-.9097-.9097V4.067c0-.254.1099-.508.3159-.6866L19.1543.2292c.333-.2987.8479-.309 1.1945-.0102l3.0586 2.65L26.452.2291c.3329-.2987.8478-.309 1.1945-.0102l3.0586 2.65L33.75.2291c.3329-.2987.8478-.309 1.1945-.0102l3.0551 2.65 3.045-2.6398c.3363-.2987.8478-.309 1.1981-.0102l3.5939 3.1168c.2232.1648.3707.429.3707.7312v14.1013h7.8266c1.0537 0 2.0151.4326 2.7083 1.1258.6934.6938 1.126 1.6547 1.126 2.7085v30.822h.2608c.5423 0 1.0092.096 1.3971.2712.4015.1852.7138.4529.9302.7928.2129.34.3227.7313.3227 1.1604 0 .4323-.1167.9129-.3467 1.4211l-1.4795 3.2405c-.3157.6933-.6899 1.2459-1.2047 1.6442-.5492.4221-1.2048.6452-2.0459.6452H5.0772c-.841 0-1.4967-.2231-2.046-.6452-.515-.3983-.8892-.9509-1.2049-1.6442L.3468 56.4701C.1133 55.9619 0 55.4848 0 55.0522c0-.4323.11-.8238.3228-1.1636.2163-.3399.5286-.6076.9303-.7928.3878-.1752.8548-.2712 1.397-.2712h.2609v-3.2062a.909.909 0 0 1 .9096-.9097c.5013 0 .9062.4085.9062.9097v3.2062h17.5856c.5012 0 .9097.4052.9097.9063 0 .4427.1821.8443.4738 1.1362.2919.2916.6935.4735 1.1329.4735h11.1218c.4394 0 .841-.1819 1.1328-.4735.2918-.2919.4737-.6935.4737-1.1362 0-.5013.4084-.9063.9096-.9063h17.5857v-30.822c0-.5526-.2266-1.0571-.5939-1.4245-.3673-.3638-.8718-.5939-1.4245-.5939h-7.8266v1.7405h7.8266c.5012 0 .9061.405.9061.9061v4.1157c0 .5012-.405.9097-.9061.9097-.5012 0-.9097-.4085-.9097-.9097v-3.2062h-6.9169V37.92h1.5482c.7346 0 1.4005.302 1.8844.7826.4806.4839.7793 1.1499.7793 1.8809v3.6284c0 .7346-.2987 1.4003-.7793 1.8846-.4839.4806-1.1498.7791-1.8844.7791H13.6519a2.6539 2.6539 0 0 1-1.8811-.7791c-.484-.4842-.7826-1.1499-.7826-1.8846v-3.6284c0-.731.2986-1.397.7826-1.8809.4806-.4806 1.1465-.7826 1.8811-.7826h1.5482V23.5404H8.2832v25.728h44.8411v-18.406a.9091.9091 0 0 1 .9097-.9097c.5012 0 .9061.4052.9061.9097v19.3157a.9053.9053 0 0 1-.9061.9062H7.3735a.9053.9053 0 0 1-.9061-.9062V22.6309c0-.5012.405-.9061.9061-.9061h7.8266v-1.7406Zm6.0448 12.4365a.9052.9052 0 0 1-.9062-.906c0-.5047.4051-.9097.9062-.9097h18.9175a.909.909 0 0 1 .9097.9097c0 .5012-.4085.906-.9097.906H21.2449Zm0 7.0235a.9054.9054 0 0 1-.9062-.9063c0-.5045.4051-.9099.9062-.9099h14.8222c.5012 0 .9062.4054.9062.9099a.9054.9054 0 0 1-.9062.9063H21.2449Zm0-3.5118a.9053.9053 0 0 1-.9062-.9062c0-.5045.4051-.9097.9062-.9097h18.9175a.9091.9091 0 0 1 .9097.9097c0 .5012-.4085.9062-.9097.9062H21.2449ZM34.344 10.7402c.3741.3362.4016.9096.0686 1.2802-.3364.3742-.9096.4015-1.2803.0685-.0034-.0033-.594-.5456-1.617-.7275v5.444c.3364.1305.6935.2608 1.0675.3914 1.5586.5525 2.4991 1.6028 2.9143 2.8182.2609.7722.3056 1.6064.1512 2.4095a5.2693 5.2693 0 0 1-.9989 2.2211c-.7312.944-1.7986 1.6613-3.1342 1.8947v1.4039c0 .5012-.4051.9063-.9096.9063a.9054.9054 0 0 1-.9062-.9063v-1.335c-.5115-.0206-.9576-.072-1.404-.1819-.7105-.175-1.373-.4839-2.2176-1.0367-.4187-.2746-.5354-.8375-.2608-1.2563.2746-.4189.8376-.5355 1.2564-.2645.6659.4362 1.1603.6764 1.6579.7965.2952.0755.6076.1134.968.1303v-6.7727c-.7998-.3534-1.6065-.7654-2.2966-1.3044-.5526-.4323-.9233-1.0193-1.119-1.668-.1922-.635-.2161-1.3353-.0823-2.0151.1338-.6727.4221-1.3318.8615-1.8914.4944-.6315 1.174-1.1327 2.0287-1.3903.206-.062.4085-.1132.6077-.1511V8.3373c0-.5012.405-.9097.9061-.9097a.909.909 0 0 1 .9097.9097v1.198c1.758.216 2.8255 1.2014 2.8289 1.2049Zm-4.6444.7277c-.0308.0069-.0617.0171-.0927.0239-.4702.1442-.8444.4189-1.1155.7689-.2575.3262-.4292.7174-.5081 1.1226-.079.3983-.0687.7963.0379 1.1499.0927.3056.2574.5733.4943.7588.3226.254.7173.4943 1.1841.7277v-4.5518Zm1.8159 7.2738v5.9455c.7139-.1992 1.2907-.6178 1.6993-1.1467.3329-.4325.556-.9337.6521-1.4486.0962-.5045.0721-1.0229-.0892-1.4964-.3844-1.1294-1.2428-1.4833-2.2622-1.8538Zm14.6918 20.9942v2.6638c0 .5012-.4084.9063-.9097.9063h-29.188c-.5012 0-.9096-.4052-.9096-.9063v-2.6638h-1.5482c-.2335 0-.4427.0963-.5974.2507-.1544.1544-.2505.3672-.2505.5972v3.6283c0 .2335.0961.4464.2505.6008.1545.1509.3639.2471.5974.2471h34.1037a.8492.8492 0 0 0 .8478-.8479v-3.6283c0-.2298-.0961-.4427-.2504-.5972a.8355.8355 0 0 0-.5974-.2507h-1.5482ZM5.0771 60.1809H55.702c.4155 0 .7175-.0891.9372-.2608.2574-.1992.4703-.5253.6693-.9613l1.476-3.2404c.0859-.1819.2608-.6693.1373-.865-.1201-.1889-.6007-.2129-.7929-.2129H39.2528a3.4186 3.4186 0 0 1-.8857 1.5104c-.618.6214-1.4762 1.0059-2.4167 1.0059H24.8285c-.9405 0-1.7988-.3845-2.42-1.0059a3.461 3.461 0 0 1-.8821-1.5104H2.6501c-.1921 0-.6728.0239-.7929.2129-.1236.1956.0516.6831.1373.865l1.476 3.2404c.1991.436.4119.7621.666.9613.223.1716.5251.2608.9406.2608Z" fill="#CB8734" stroke="#fff" stroke-width=".4" mask="url(#a)"/></svg>