<svg width="62" height="62" fill="none" xmlns="http://www.w3.org/2000/svg"><path d="m59.0695 20.6023-16.2906 9.7104c-1.2027.7169-1.6844 2.1918-1.1993 3.4581a3.0462 3.0462 0 0 1-2.2839.0312l-2.1074-.8279a4.2677 4.2677 0 0 0-2.6243-.1661l-3.2289.8171a4.2965 4.2965 0 0 0-.3679.1107c-1.9726-1.1262-3.1477-1.4628-5.2293-.6579l-1.8688.7224c-.8832.3414-1.8569.2604-2.6734-.2233l-.6243-.368c.1791-1.1168-.3222-2.2834-1.3502-2.8962L2.9306 20.6023C1.6389 19.8326 0 20.7617 0 22.2672v18.1849c0 1.2558.67 2.4351 1.7486 3.078L8.8614 47.77c1.3231.7884 3.0239.3796 3.8474-.9062l.3041.1795-.9223 1.2847c-1.0301 1.4346-.7026 3.4294.7323 4.4596.7092.5092 1.5736.7013 2.4205.5509.1297.857.5913 1.6114 1.296 2.1173.7073.5078 1.5771.6988 2.4217.549.1244.8228.567 1.5967 1.2948 2.1191.9806.7039 2.1965.7613 3.1835.3158.2172.6018.6101 1.1239 1.141 1.5051 1.3792.99 3.2918.7228 4.3494-.5877l2.3891 1.4153a3.176 3.176 0 0 0 1.6239.4458c1.0928 0 2.1591-.56 2.7553-1.5665a3.177 3.177 0 0 0 .4338-1.3472l.093.0551c.7347.4352 1.5949.5585 2.4218.3466.8272-.2117 1.5224-.7328 1.9574-1.4673.2691-.4541.4188-.9561.444-1.4686.5323.1487 1.0968.1556 1.6467.015.8272-.2117 1.5224-.7329 1.9575-1.4673.2532-.4272.4008-.8969.4381-1.378 1.4497.6135 3.17.075 3.9938-1.3154.7235-1.2211.5381-2.7329-.3536-3.7444l.9363-.547c.8878.8962 2.3167 1.1251 3.4719.4366l1.7196-1.025c.4309-.2569.572-.8144.3152-1.2451-.257-.4311-.8149-.5719-1.2451-.3152l-1.7196 1.025c-.4054.2419-.899.1681-1.2171-.1229-.0059-.0511-7.6403-12.8094-7.6403-12.8094-.2876-.4855-.1272-1.1154.3574-1.4043l16.2906-9.7104a.121.121 0 0 1 .1842.1046V40.452c0 .6192-.3305 1.2008-.8622 1.5177l-1.717 1.0235a.9082.9082 0 1 0 .9299 1.5603l1.717-1.0235C61.33 42.8871 62 41.7078 62 40.452V22.2672c.0001-1.5035-1.6372-2.4359-2.9305-1.6649Zm-24.06 13.9665a2.4655 2.4655 0 0 1 1.5146.0959l2.112.8297c1.2606.4874 2.6373.4339 3.8383-.1334l6.1927 10.4528-1.0035.5864a4.8543 4.8543 0 0 0-.5236.3581l-13.2442-7.8431a.9082.9082 0 0 0-1.3709.7816v.1824a2.4016 2.4016 0 0 1-.7087 1.7101 2.4014 2.4014 0 0 1-1.7088.7076c-.1049-.0039-.1973-.0881-.1974-.1974v-4.3103c0-.9391.5256-1.7773 1.3301-2.1972a.915.915 0 0 0 .1165-.0569 2.4942 2.4942 0 0 1 .424-.149l3.2289-.8173ZM10.5699 46.3227a1.02 1.02 0 0 1-.7785-.1132l-7.1128-4.2397c-.5318-.317-.8622-.8985-.8622-1.5177V22.2672c0-.0194 0-.0708.0616-.1058a.1233.1233 0 0 1 .0614-.0177.116.116 0 0 1 .0612.0188l16.2908 9.7104c.4846.2889.645.9188.3573 1.4044l-7.4492 12.5741a1.0192 1.0192 0 0 1-.6296.4713Zm4.3402 5.23a1.3705 1.3705 0 0 1-1.028-.2406 1.3703 1.3703 0 0 1-.5567-.8968 1.3699 1.3699 0 0 1 .2406-1.0279l1.2957-1.8049a1.3752 1.3752 0 0 1 .1012-.1247.9083.9083 0 0 0 .0766-.0778c.4707-.4409 1.2039-.5035 1.7472-.1135.6178.4435.7596 1.307.316 1.9249l-.0022.003-1.2936 1.8019a1.37 1.37 0 0 1-.8968.5564Zm2.6885 2.4275a1.3705 1.3705 0 0 1-.5567-.8969 1.3697 1.3697 0 0 1 .2406-1.0278l1.2957-1.8049.0002-.0001 1.4298-1.9918a1.3706 1.3706 0 0 1 .897-.5568 1.3874 1.3874 0 0 1 .2264-.0185c.2862 0 .5644.089.8015.2592.6179.4435.7597 1.307.3161 1.925l-2.7258 3.7967c-.4436.6177-1.3071.7591-1.9248.3159Zm4.7443 2.9086a1.3705 1.3705 0 0 1-1.0278-.2406c-.6178-.4434-.7596-1.307-.3161-1.9248l.0022-.0031 2.7237-3.7938c.4434-.6179 1.3069-.7594 1.9249-.316.2992.2148.4969.5333.5566.8969a1.3706 1.3706 0 0 1-.2406 1.0279L23.24 56.332a1.3703 1.3703 0 0 1-.8971.5568Zm3.2967 1.5803a1.3702 1.3702 0 0 1-.5567-.8969 1.3698 1.3698 0 0 1 .2433-1.0316l.9047-1.2601c.4439-.6167 1.3065-.758 1.9238-.3148.6178.4436.7596 1.3071.3161 1.9249l-.5183.722a.6969.6969 0 0 0-.016.0223l-.3721.5184c-.4433.6176-1.3067.7595-1.9248.3158Zm21.8819-7.7702c-.3878.6545-1.2364.8716-1.8904.4837l-2.0996-1.2437-.0028-.0016-6.5028-3.8525c-.4317-.2556-.9887-.1131-1.2442.3184-.2556.4316-.1132.9887.3184 1.2442l6.5056 3.8542.0001.0001.0009.0005c.6539.3881.8705 1.2358.483 1.89a1.3704 1.3704 0 0 1-.8451.6335 1.3705 1.3705 0 0 1-1.0456-.1497l-1.7115-1.0138-.0041-.0025-.0026-.0016-4.7906-2.8381a.9082.9082 0 0 0-1.2443.3184c-.2556.4316-.1132.9887.3184 1.2442l4.7907 2.8382.0028.0017c.317.1878.5421.4879.6334.845a1.371 1.371 0 0 1-.1497 1.0456 1.3696 1.3696 0 0 1-.8451.6335 1.3708 1.3708 0 0 1-1.0455-.1496l-2.5685-1.5216-.0049-.0031-1.8784-1.1127a.9083.9083 0 0 0-.9256 1.5629l1.8783 1.1127.0025.0014c.6528.3885.8689 1.2353.4816 1.8892-.3881.6547-1.2362.8715-1.8906.484l-2.2483-1.3319c.9662-1.4259.6251-3.3772-.7825-4.3878a3.1772 3.1772 0 0 0-1.403-.5658c.2173-.537.2839-1.1248.1876-1.711-.1383-.8424-.5964-1.5804-1.2898-2.0782-.7276-.5223-1.6024-.6943-2.4217-.5491-.1244-.8227-.567-1.5966-1.2948-2.119-.6935-.4978-1.5389-.6957-2.3815-.5575-.7036.1155-1.3342.4541-1.813.9666a3.178 3.178 0 0 0-.952-1.0853c-1.0853-.7791-2.498-.7786-3.5658-.1086l-.644-.3801 6.1792-10.4302.4563.2689c.7674.4547 1.6234.6854 2.4858.6854a4.8943 4.8943 0 0 0 1.7668-.3317l1.8687-.7224c1.1171-.4316 1.717-.452 2.8448.0966a4.289 4.289 0 0 0-1.1442 2.9205v4.3103c0 1.1096.9021 2.0129 2.0109 2.0138h.0028c1.1304 0 2.1933-.4401 2.993-1.2392.4853-.4849.8384-1.067 1.0412-1.7023l12.65 7.4911a.8997.8997 0 0 0 .129.0632.9074.9074 0 0 0 .1172.0825c.6541.3877.8713 1.2358.4835 1.8903Z" fill="#CB8734"/><path d="M20.589 23.6646h20.8215c1.8852 0 3.4189-1.5337 3.4189-3.4189V7.8576c0-1.8852-1.5337-3.4189-3.4189-3.4189h-5.0123v-1.439C36.3982 1.3456 35.0528 0 33.3991 0h-4.7989c-1.6536 0-2.9991 1.3456-2.9991 2.9996v1.4391h-5.0123c-1.8852 0-3.4189 1.5337-3.4189 3.4188v6.8243c0 .5017.4067.9082.9082.9082a.9081.9081 0 0 0 .9082-.9082v-1.6879c.9666.8674 2.2434 1.3957 3.6412 1.3957h.7108v.999c0 .5017.4067.9082.9082.9082a.9081.9081 0 0 0 .9082-.9082v-.999h11.6896v.999a.908.908 0 0 0 .9082.9082.908.908 0 0 0 .9082-.9082v-.999h.7107c1.3979 0 2.6747-.5283 3.6413-1.3957v7.2517c0 .8836-.7189 1.6024-1.6024 1.6024H20.589c-.8836 0-1.6024-.7189-1.6024-1.6024v-1.318a.9082.9082 0 0 0-.9082-.9082.9081.9081 0 0 0-.9082.9082v1.318c0 1.8853 1.5336 3.419 3.4188 3.419Zm6.8287-20.665c0-.6524.5306-1.1832 1.1828-1.1832h4.7988c.6522 0 1.1827.5308 1.1827 1.1832v1.4391h-7.1641v-1.439h-.0002Zm11.9541 9.5736h-.7107v-.999a.908.908 0 0 0-.9082-.9082.908.908 0 0 0-.9082.9082v.999H25.1551v-.999a.9081.9081 0 0 0-.9082-.9082.9081.9081 0 0 0-.9082.9082v.999h-.7108c-2.0078 0-3.6412-1.6334-3.6412-3.6412V7.8575c0-.8836.7188-1.6024 1.6024-1.6024h20.8215c.8837 0 1.6025.719 1.6025 1.6025V8.932c0 2.0078-1.6335 3.6412-3.6413 3.6412Z" fill="#CB8734"/></svg>