<svg width="62" height="62" fill="none" xmlns="http://www.w3.org/2000/svg"><mask id="a" fill="#fff"><path d="M61 52h-2V17.5a3.5035 3.5035 0 0 0-1.0263-2.4737A3.5035 3.5035 0 0 0 55.5 14H45v-2a.9968.9968 0 0 0-.5812-.9075l-13-6a.9914.9914 0 0 0-.8376 0L25 7.6675V5a1.0002 1.0002 0 0 0-1.7071-.7071A1.0002 1.0002 0 0 0 23 5v3.5913l-5.4188 2.5012A.997.997 0 0 0 17 12v2H6.5A3.5036 3.5036 0 0 0 3 17.5V52H1a1.0002 1.0002 0 0 0-1 1v5.5A3.5038 3.5038 0 0 0 3.5 62h55a3.5035 3.5035 0 0 0 2.4737-1.0263A3.5035 3.5035 0 0 0 62 58.5V53a1.0001 1.0001 0 0 0-1-1ZM23 10.7937V11a1.0001 1.0001 0 0 0 2 0V9.87l6-2.7687L41.6138 12 31 16.8988 20.3862 12 23 10.7937Zm20 2.7688V25.36l-11 5.0775V18.64l11-5.0775Zm-24 0L30 18.64v11.7975L19 25.36V13.5625Zm-1.4188 13.345 13 6a.9947.9947 0 0 0 .8376 0l13-6A.997.997 0 0 0 45 26v-7h9v30H8V19h9v7a.9968.9968 0 0 0 .5812.9075ZM5 17.5A1.5012 1.5012 0 0 1 6.5 16H17v1H7a1.0002 1.0002 0 0 0-1 1v32a1 1 0 0 0 1 1h48a1.0001 1.0001 0 0 0 1-1V18a1.0001 1.0001 0 0 0-1-1H45v-1h10.5a1.5012 1.5012 0 0 1 1.5 1.5V52H5V17.5ZM34.7188 54l-.5 2h-6.4376l-.5-2h7.4376ZM60 58.5a1.5012 1.5012 0 0 1-1.5 1.5h-55A1.5012 1.5012 0 0 1 2 58.5V54h23.2188l.8112 3.2425A.9998.9998 0 0 0 27 58h8a.9998.9998 0 0 0 .97-.7575L36.7812 54H60v4.5Z"/></mask><path d="M61 52h-2V17.5a3.5035 3.5035 0 0 0-1.0263-2.4737A3.5035 3.5035 0 0 0 55.5 14H45v-2a.9968.9968 0 0 0-.5812-.9075l-13-6a.9914.9914 0 0 0-.8376 0L25 7.6675V5a1.0002 1.0002 0 0 0-1.7071-.7071A1.0002 1.0002 0 0 0 23 5v3.5913l-5.4188 2.5012A.997.997 0 0 0 17 12v2H6.5A3.5036 3.5036 0 0 0 3 17.5V52H1a1.0002 1.0002 0 0 0-1 1v5.5A3.5038 3.5038 0 0 0 3.5 62h55a3.5035 3.5035 0 0 0 2.4737-1.0263A3.5035 3.5035 0 0 0 62 58.5V53a1.0001 1.0001 0 0 0-1-1ZM23 10.7937V11a1.0001 1.0001 0 0 0 2 0V9.87l6-2.7687L41.6138 12 31 16.8988 20.3862 12 23 10.7937Zm20 2.7688V25.36l-11 5.0775V18.64l11-5.0775Zm-24 0L30 18.64v11.7975L19 25.36V13.5625Zm-1.4188 13.345 13 6a.9947.9947 0 0 0 .8376 0l13-6A.997.997 0 0 0 45 26v-7h9v30H8V19h9v7a.9968.9968 0 0 0 .5812.9075ZM5 17.5A1.5012 1.5012 0 0 1 6.5 16H17v1H7a1.0002 1.0002 0 0 0-1 1v32a1 1 0 0 0 1 1h48a1.0001 1.0001 0 0 0 1-1V18a1.0001 1.0001 0 0 0-1-1H45v-1h10.5a1.5012 1.5012 0 0 1 1.5 1.5V52H5V17.5ZM34.7188 54l-.5 2h-6.4376l-.5-2h7.4376ZM60 58.5a1.5012 1.5012 0 0 1-1.5 1.5h-55A1.5012 1.5012 0 0 1 2 58.5V54h23.2188l.8112 3.2425A.9998.9998 0 0 0 27 58h8a.9998.9998 0 0 0 .97-.7575L36.7812 54H60v4.5Z" fill="#CB8734" stroke="#fff" stroke-width=".6" mask="url(#a)"/><path d="m17.6949 41.2066 7.359-2.8303.0962-.037V35a.85.85 0 0 1 1.7 0v2.6854l.2038-.0784 3.641-1.4004-.0538-.14.0538.14a.8505.8505 0 0 1 .6103 0l.0535-.139-.0534.139 13 5 .0538-.14-.0538.14a.8497.8497 0 0 1 .5449.7934.8497.8497 0 0 1-.5449.7934l.0538.14-.0538-.14-13 5 .0538.14-.0539-.14a.8505.8505 0 0 1-.6103 0l-.0538.14.0538-.14-13-5A.8497.8497 0 0 1 17.15 42a.8497.8497 0 0 1 .5449-.7934Zm13.359-3.2752-.0538-.0207-.0539.0207-4 1.5385-.0961.037V41a.85.85 0 0 1-1.7 0v-.8393l-.2038.0784-4.2144 1.6209-.364.14.364.14 10.2143 3.9286.0539.0207.0538-.0207L41.2683 42.14l.364-.14-.364-.14-10.2144-3.9286ZM44.601 35.601A.85.85 0 0 1 43.15 35v-5a.85.85 0 0 1 1.7 0v5a.85.85 0 0 1-.249.601ZM39.601 35.601A.85.85 0 0 1 38.15 35v-3a.85.85 0 0 1 1.7 0v3a.85.85 0 0 1-.249.601ZM17.399 38.601A.85.85 0 0 1 17.15 38v-5a.85.85 0 0 1 1.7 0v5a.85.85 0 0 1-1.451.601ZM31.601 3.601A.85.85 0 0 1 30.15 3V1a.85.85 0 0 1 1.7 0v2a.85.85 0 0 1-.249.601ZM44.601 7.601A.85.85 0 0 1 43.15 7V5a.85.85 0 0 1 1.7 0v2a.85.85 0 0 1-.249.601Z" fill="#CB8734" stroke="#fff" stroke-width=".3"/></svg>