<svg width="62" height="62" fill="none" xmlns="http://www.w3.org/2000/svg"><path d="m21.964 44.5631.0136.0039.014.0012c5.6459.5114 10.0847 5.2706 10.0847 11.0472v5.1736c0 .586-.475 1.061-1.0609 1.061H1.2109C.625 61.85.15 61.375.15 60.789v-5.1736c0-5.7767 4.439-10.5359 10.085-11.0472l.0141-.0012.0136-.0039a1.059 1.059 0 0 1 .234-.0383l.3249-.0175-.2243-.2357c-1.3013-1.3675-2.102-3.2143-2.102-5.2458v-5.9285c0-3.3373 2.7153-6.0528 6.0528-6.0528h8.1221c.586 0 1.0609.475 1.0609 1.061v4.0307c0 .1124-.0052.2245-.013.3374l-.0011.0157.0022.0156c.0073.0519.0119.1012.0119.1501v6.3708c0 2.0314-.8008 3.8783-2.102 5.2458l-.2243.2358.3249.0174c.0801.0043.1585.0167.2343.0383Zm-.3547-15.2468v-.15h-7.0612c-2.1676 0-3.9309 1.7633-3.9309 3.9309v1.7633h8.2676c1.5024 0 2.7245-1.222 2.7245-2.7244v-2.8198Zm-10.8421 7.6661h-.15v2.0433c0 3.0306 2.4654 5.496 5.496 5.496 3.0306 0 5.4961-2.4654 5.4961-5.496v-2.8753l-.2276.1374a4.814 4.814 0 0 1-2.4969.6946h-8.1176Zm8.0877 9.9174.256-.2561h-5.9954l.256.2561 2.6356 2.6357.1061.1061.1061-.1061 2.6356-2.6357Zm10.9497 12.8283h.15v-4.1127c0-4.5621-3.4232-8.3365-7.8351-8.8972l-.073-.0093-.052.052-5.1311 5.1311a1.0607 1.0607 0 0 1-1.5004 0l-5.1311-5.1311-.052-.052-.073.0093c-4.1195.5237-7.3764 3.8486-7.79 8.0013l-.0165.1648H7.4473c.586 0 1.0609.475 1.0609 1.061 0 .5859-.475 1.0609-1.061 1.0609H2.272V59.7281h27.5327ZM51.7378 17.6687l.0136.0039.014.0012c5.6457.5115 10.0845 5.2707 10.0845 11.0472v5.1735c0 .5859-.475 1.0609-1.061 1.0609H50.6574c-.586 0-1.061-.475-1.061-1.0609 0-.586.475-1.0609 1.061-1.0609h9.0706V28.721c0-4.5621-3.4231-8.3364-7.8352-8.8972l-.073-.0093-.052.052-5.1311 5.1311v.0001a1.0573 1.0573 0 0 1-.7502.3107 1.057 1.057 0 0 1-.7502-.3108l-5.1311-5.1311-.052-.052-.0729.0093c-4.4119.5607-7.835 4.3351-7.835 8.8972v4.1124h8.6823c.5859 0 1.0609.475 1.0609 1.061 0 .5859-.475 1.0609-1.0609 1.0609h-9.7432c-.586 0-1.061-.475-1.061-1.0609v-5.1735c0-5.7765 4.4387-10.5357 10.0845-11.0472l.014-.0013.0136-.0038a1.0625 1.0625 0 0 1 .2345-.0383l.3249-.0175-.2243-.2357c-1.3011-1.3676-2.1019-3.2144-2.1019-5.2458V6.2028c0-3.3373 2.7154-6.0528 6.0528-6.0528h8.1221c.586 0 1.061.475 1.061 1.061v4.0307c0 .1124-.0053.2245-.0131.3373l-.0011.0158.0022.0155c.0073.052.012.1013.012.1501v6.371c0 2.0314-.8008 3.8782-2.1019 5.2458l-.2243.2358.3249.0174c.0802.0043.1587.0167.2345.0383Zm-5.9571 4.9723.1061.1061.106-.1061 2.6356-2.6356.2561-.2561H42.889l.2561.2561 2.6356 2.6356Zm-5.24-12.553h-.15v2.0434c0 3.0306 2.4655 5.4959 5.4961 5.4959s5.496-2.4654 5.496-5.496V9.2561l-.2275.1373a4.8156 4.8156 0 0 1-2.4969.6946h-8.1177Zm-.15-2.2719v.15h8.2677c1.5024 0 2.7244-1.222 2.7244-2.7244V2.2719h-7.0612c-2.1676 0-3.9309 1.7633-3.9309 3.9309V7.816Z" fill="#CB8734" stroke="#fff" stroke-width=".3"/><path d="m45.1369 33.1443.0002-.0003a1.068 1.068 0 0 1 .7501-.3109c.2786 0 .5529.1137.7501.3109a1.07 1.07 0 0 1 .3108.75 1.068 1.068 0 0 1-.3108.7501l-.0003.0003a1.0652 1.0652 0 0 1-.7498.3106 1.063 1.063 0 0 1-.7498-.3106l-.0005-.0006a1.0626 1.0626 0 0 1-.3106-.7498c0-.2789.1127-.553.3106-.7497ZM27.1668 11.8803v.0621l.0439.0439 5.0643 5.0643a1.0611 1.0611 0 0 1-.7503 1.8111h-4.7611l-.038.0935c-.8931 2.1953-3.0215 3.6604-5.4636 3.6604H6.0547C2.799 22.6156.15 19.9666.15 16.7109V6.0547C.15 2.799 2.799.15 6.0547.15H21.262c3.2557 0 5.9047 2.649 5.9047 5.9047v5.8256Zm1.4344 4.8595h.3622l-.2561-.256-3.3517-3.3518a1.0607 1.0607 0 0 1-.3108-.7502V6.0547c0-2.086-1.6968-3.7828-3.7828-3.7828H6.0547c-2.086 0-3.7828 1.6968-3.7828 3.7828v10.6562c0 2.086 1.6968 3.7828 3.7828 3.7828H21.262c1.7723 0 3.2882-1.2055 3.6851-2.9308a1.061 1.061 0 0 1 1.034-.8231h2.6201ZM35.1353 43.1383h.1009l.0381-.0935c.8931-2.1953 3.0215-3.6604 5.4636-3.6604h15.2073c3.2557 0 5.9046 2.6489 5.9046 5.9047v10.6562c0 3.2557-2.6489 5.9047-5.9046 5.9047H40.7377c-3.2557 0-5.9047-2.649-5.9047-5.9047v-5.8877l-.0439-.0439-5.0642-5.0643a1.0608 1.0608 0 0 1 .7503-1.8111h4.6601Zm-1.7367 2.1219h-.3621l.256.256 3.3518 3.3518a1.061 1.061 0 0 1 .3107.7502v6.3271c0 2.086 1.6969 3.7828 3.7829 3.7828h15.2073c2.0859 0 3.7828-1.6968 3.7828-3.7828V45.2891c0-2.086-1.6969-3.7829-3.7828-3.7829H40.7379c-1.7724 0-3.2883 1.2056-3.6852 2.9309a1.0611 1.0611 0 0 1-1.034.8231h-2.6201Z" fill="#CB8734" stroke="#fff" stroke-width=".3"/><path d="m48.8532 50.8263-.1061-.106-1.4968-1.4969c-.4143-.4142-1.0861-.4143-1.5005 0v.0001m3.1034 1.6028-3.2095.0037c-.4729-.473-.4729-1.2398 0-1.7126l.1061.1061m3.1034 1.6028.106-.106 3.2191-3.2191c.4143-.4143 1.0861-.4142 1.5002 0 .4143.4145.4143 1.0863 0 1.5005l-4.0752 4.0753-.0001.0001a1.0572 1.0572 0 0 1-.7501.3107c-.2718 0-.543-.1035-.7502-.3108l-2.3531-2.3531m3.1034.1024-3.1034-.1024m0-1.5004c-.4143.4142-.4143 1.086 0 1.5004m0-1.5004v1.5004M15.3662 10.0536c.8616-.1927 1.4426-.976 1.3814-1.8623-.0604-.8766-.767-1.5831-1.6436-1.6436m.2622 3.5059 1.5311-1.8726c-.0656-.9512-.8316-1.7173-1.7829-1.7829m.2518 3.6555c-.9431.211-1.6017 1.0309-1.6017 1.9938m1.6017-1.9938-1.6017 1.9938m1.3395-5.4997.0105-.1496h-.0001m-.0104.1496.0103-.1496h.0001m-.0104.1496c-.5002-.035-.9767.1335-1.3404.473m1.3508-.6226c-.5415-.038-1.0589.1449-1.4531.513m0 0 .1023.1096m-.1023-.1096.1023.1096m-.1023-.1096 2.5251 5.43m-2.4228-5.3204c-.3642.34-.5647.8014-.5647 1.2992 0 .6688-.5422 1.211-1.211 1.211-.6688 0-1.2109-.5422-1.211-1.211 0-1.1594.4863-2.2783 1.334-3.0697.8598-.8026 1.9821-1.1998 3.1595-1.1188 2.0764.1432 3.7502 1.817 3.8933 3.8933.1371 1.9879-1.1011 3.7567-2.9773 4.3164m0 0v.3524m0-.3524v.3524m-2.4219-.6461v.6461m0-.6461v.6461m0 0c0 .6688.5421 1.2109 1.2109 1.2109m-1.2109-1.2109 1.2109 1.2109m0 0c.6688 0 1.211-.5421 1.211-1.2109m-1.211 1.2109 1.211-1.2109m-5.2595-4.3737h-.1487.1487ZM14.2252 16.5774l.0003-.0003a1.068 1.068 0 0 1 .7501-.3109c.2786 0 .5529.1137.7501.3109a1.07 1.07 0 0 1 .3108.75c0 .2787-.1137.553-.3108.7501a1.0701 1.0701 0 0 1-.7501.3109 1.068 1.068 0 0 1-.7501-.3109l-.0003-.0003a1.065 1.065 0 0 1-.3106-.7498c0-.2789.1128-.553.3106-.7497ZM12.291 54.8844c.2787 0 .5529.1137.7501.3108.1971.1972.3109.4715.3109.7501 0 .2787-.1138.5529-.3109.7501a1.0703 1.0703 0 0 1-.7501.3108 1.0705 1.0705 0 0 1-.7501-.3108 1.0703 1.0703 0 0 1-.3108-.7501c0-.2786.1137-.5529.3108-.7501a1.0705 1.0705 0 0 1 .7501-.3108Z" fill="#CB8734" stroke="#fff" stroke-width=".3"/></svg>