<svg width="59" height="62" fill="none" xmlns="http://www.w3.org/2000/svg"><path d="m36.2534 57.1859-.0243-.003-.0173.0172-4.5117 4.4977-.0001.0001c-.162.1589-.3808.2521-.6075.2521H3.3621C1.5357 61.95.05 60.4675.05 58.6456v-7.5607a.858.858 0 0 1 .858-.858.858.858 0 0 1 .858.858v7.5607c0 .8761.7162 1.5883 1.596 1.5883H30.2346v-7.4596c0-1.8219 1.4858-3.3044 3.3121-3.3044h7.4856V11.1862c0-.8761-.7162-1.5883-1.596-1.5883H3.3621c-.88 0-1.5961.7122-1.5961 1.5883v35.0612c-.0116.2905-.1231.5032-.2815.6432-.1593.1408-.3689.2106-.5796.2091-.4203-.0031-.8364-.2891-.8549-.8521V11.1862c0-1.8217 1.4858-3.3043 3.312-3.3043H10.996l.0055-.0438.6064-4.8385h.0001l.0002-.0033a.8075.8075 0 0 1 .0049-.053C11.8398 1.1355 13.4981-.15 15.3102.0756l35.7947 4.4778c1.7769.2224 3.098 1.915 2.8756 3.69l-1.4941 11.9214-.0057.0457.0451.0095c2.1726.4532 3.4704 2.6001 3.1168 4.7373l-.0069.0415.0397.0139c1.8861.6601 3.0873 2.6203 2.8321 4.5997l-1.4378 11.1596c-.2201 1.7083-2.1097 2.7287-3.6565 1.999l-.0622-.0293-.0088.0682-1.1139 8.6451c-.1389 1.0787-.7459 2.0934-1.6245 2.7312l-.0219.0158.0013.027.1514 3.2567a.8583.8583 0 0 1-.2205.6152v.0001l-2.8856 3.1926c-.4115.4551-1.1324.3319-1.3981-.1802l-1.4673-2.8279-.0121-.0233-.026-.0033-8.4716-1.0731Zm12.7367.0418.0138-.0153-.0009-.0206-.1042-2.2366-.0025-.0552-.0547.008a4.038 4.038 0 0 1-2.1669-.278l-.0508-.0216-.0165.0527-.6672 2.1359-.0061.0197.0094.0183 1.2074 2.3269.0332.064.0483-.0535 1.7577-1.9447Zm7.2994-29.7395-.0396.0305.0396-.0305a2.5688 2.5688 0 0 0-.8156-.6919l-.064-.0346-.0093.0722-.7447 5.779c-.0357.277-.1686.4678-.3437.5833-.1763.1163-.3984.1584-.6134.1307-.2149-.0276-.4191-.1246-.5601-.2818-.1401-.1561-.2204-.3743-.1847-.6514l.2322-1.8017.0064-.0496-.0496-.0064-4.4508-.5734-.0496-.0064-.0064.0496-2.6599 20.6436c-.1599 1.2416.7404 2.4083 1.982 2.5682 1.2415.16 2.4079-.7402 2.568-1.9818l1.812-14.0626c.0356-.277.1686-.4677.3437-.5832.1762-.1163.3984-.1585.6133-.1308.215.0276.4192.1246.5602.2817.1401.1561.2204.3743.1847.6514l-.3787 2.9382v.0002c-.0366.2628.0431.4782.1871.6346.143.1553.3472.2501.5582.2791.211.0289.433-.0075.6121-.1203.1805-.1136.3142-.3029.3488-.5714l1.4378-11.1596c.088-.6831-.0953-1.3598-.516-1.9049Zm-2.9272 1.3457.0496.0064.0064-.0496.561-4.3542c.1616-1.2543-.7274-2.4064-1.9819-2.5683a2.2794 2.2794 0 0 0-1.6944.4592 2.2796 2.2796 0 0 0-.8737 1.5227l-.561 4.3544-.0064.0495.0496.0064 4.4508.5735Zm-40.63-21.0082-.007.0562h26.7108c1.8263 0 3.3119 1.4826 3.3118 3.3043v39.1417c0 .2355-.0966.4319-.2533.6087l-4.6539 4.6393-.0724.0722.1015.0128 6.3336.8023.0416.0053.0125-.04.9044-2.8958.0081-.0258-.0171-.0208c-.6893-.8407-1.0176-1.9773-.8786-3.056l2.776-21.5441h.0004v-.0035l.6767-5.2514c.1368-1.0624.679-2.0077 1.5271-2.6622a4.002 4.002 0 0 1 1.4588-.7123l.033-.0084.0042-.0338 1.5271-12.1845-.0471-.0059.0471.0059c.1081-.8636-.5253-1.6662-1.386-1.7738L15.0972 1.7786c-.8613-.108-1.6501.4914-1.7765 1.3418h-.0001l-.0003.0037a.8939.8939 0 0 1-.0046.0468l-.5834 4.6548Zm26.9962 43.4456.0857-.0854H33.5464c-.8799 0-1.5961.7124-1.596 1.5884v6.2508l.0853-.085 7.6928-7.6688Z" fill="#CB8734" stroke="#fff" stroke-width=".1"/><path d="M35.5834 19.1742h.05v-4.439H7.0424v4.439h28.541Zm1.7659-5.297v6.155c0 .474-.384.858-.8579.858H6.1844a.858.858 0 0 1-.858-.858v-6.155a.858.858 0 0 1 .858-.858h30.307a.8579.8579 0 0 1 .8579.858ZM7.1659 27.3324c-1.136-.0398-1.1366-1.6758 0-1.716h28.4664c1.1361.0397 1.1366 1.6759 0 1.716H7.1659ZM16.8758 33.5067c-1.1359-.0398-1.1366-1.6758.0001-1.716h18.7563c1.1362.0398 1.1366 1.6759 0 1.716H16.8758ZM35.6331 37.965c.474 0 .858.3841.858.858 0 .474-.384.858-.858.858H16.8758c-1.1359-.0397-1.1366-1.6758.0001-1.716h18.7572ZM10.4299 32.9179l.0003.0003.001.0014.0048.0062a.7655.7655 0 0 0 .0194.024c.0174.0206.0432.0494.0766.0818.0672.0652.1639.1437.2836.1998.1193.056.2605.0894.4185.066.1578-.0233.3369-.104.5309-.2837.1774-.1645.2524-.3292.2693-.4824.017-.1541-.0244-.3022-.0896-.433-.0652-.1308-.1532-.2419-.2254-.3207a1.5336 1.5336 0 0 0-.1171-.115l-.0069-.006-.0017-.0014-.0004-.0003-1.1633 1.263Zm0 0-.0047-.0065-.0065-.0047c-.441-.3194-1.08-.4354-1.6654-.2577l.0145.0478c-.3992.121-.6034.4915-.6613.798m2.3234-.5769-3.0354 6.2332c-.3958-.2602-.9277-.1509-1.1884.2449a.8581.8581 0 0 0 .2449 1.1885m1.6555-7.0897-.0491-.0093m.0491.0093c-.1775.9385 1.159 1.3569 2.0053 1.6219.1393.0436.2653.083.369.1199 1.4571.5184 2.2657 1.8749 2.0119 3.3756-.192 1.1349-1.0407 2.285-2.3632 2.6596l-2.0721-7.7863m.0491.0093-.0491-.0093m0 0c-.0548.2894.0272.5331.1906.737.162.2022.4036.3652.6702.4997.3825.193.829.3328 1.1834.4438.1378.0431.2617.0819.3625.1177 1.4348.5105 2.229 1.844 1.9793 3.3202-.1892 1.1183-1.0259 2.2511-2.3275 2.6198l-.0423.0119.0064.0435c.0654.4407-.0245.7727-.1871.9964-.1628.224-.401.3433-.641.3557-.2398.0123-.4821-.0822-.6544-.2881-.1722-.2059-.2781-.528-.2342-.9764l.0048-.0491-.049-.0054c-.6342-.07-1.1566-.2593-1.8681-.7277m0 0-.0275.0418.0275-.0418Zm5.1398-8.9316.0024.002-2.3775 7.9776c.9042-.0061 1.4296-.6878 1.5358-1.3149.0263-.1557.0456-.426-.0599-.7002-.1065-.2766-.3381-.5518-.8026-.717-1.362-.4845-2.1446-.8639-2.7091-1.3094-.6781-.5354-.9904-1.4631-.8086-2.4246.192-1.0155.9586-1.8963 1.956-2.1786l.0415-.0117-.0056-.0428c-.0545-.4212.0391-.7363.2019-.9473.163-.2114.398-.3223.6344-.331a.8028.8028 0 0 1 .6444.2839c.1697.1987.275.507.2359.9338l-.004.0439.043.0095c.6772.1496 1.195.4697 1.4721.7268h-.0001ZM24.1607 55.9398H7.1659c-1.136-.0397-1.1366-1.6758 0-1.716h16.9948c1.1359.0398 1.1366 1.6758 0 1.716Z" fill="#CB8734" stroke="#fff" stroke-width=".1"/></svg>