<svg width="62" height="62" fill="none" xmlns="http://www.w3.org/2000/svg"><mask id="a" fill="#fff"><path d="M61.092 22.0686h-1.0978v-1.0992a.9082.9082 0 0 0-.9082-.9082.9082.9082 0 0 0-.9083.9082v1.0992h-1.0978a.908.908 0 0 0-.9082.9082v3.0079a.095.095 0 0 1-.0949.0949h-7.0215a.908.908 0 0 0-.9082.9082v1.0978h-1.0979a.908.908 0 0 0-.9082.9082.908.908 0 0 0 .9082.9082h1.0979V31a.908.908 0 0 0 .9082.9082h7.0214a.095.095 0 0 1 .0949.0948v16.0489a.095.095 0 0 1-.0949.0949H38.0216a.095.095 0 0 1-.0948-.0949v-5.0152a.9081.9081 0 0 0-.9082-.9082h-1.0979v-1.0978a.908.908 0 0 0-.9082-.9082.908.908 0 0 0-.9082.9082v1.0978h-1.0979a.908.908 0 0 0-.9082.9082v5.0154a.095.095 0 0 1-.0949.0948h-18.055a.095.095 0 0 1-.0949-.0948V32.003a.095.095 0 0 1 .0949-.0948h18.055a.095.095 0 0 1 .0949.0948v3.0092a.908.908 0 0 0 .9082.9082h1.0979v1.098a.908.908 0 0 0 .9082.9082.908.908 0 0 0 .9082-.9082v-1.098h1.0979a.9081.9081 0 0 0 .9082-.9082V32.003a.095.095 0 0 1 .0948-.0948h3.0092A.9081.9081 0 0 0 41.939 31v-1.0978h1.0979a.908.908 0 0 0 .9082-.9082.908.908 0 0 0-.9082-.9082H41.939v-1.0979a.9081.9081 0 0 0-.9082-.9082h-3.0092a.095.095 0 0 1-.0948-.0949v-3.0092a.9081.9081 0 0 0-.9082-.9082h-1.0979v-1.0978a.908.908 0 0 0-.9082-.9082.908.908 0 0 0-.9082.9082v1.0978h-1.0979a.908.908 0 0 0-.9082.9082v3.0092a.095.095 0 0 1-.0949.0949h-8.959a.908.908 0 0 0-.9082.9082.908.908 0 0 0 .9082.9082h8.9589c1.0539 0 1.9112-.8574 1.9112-1.9113v-2.101h2.196v2.101c0 1.0539.8573 1.9113 1.9112 1.9113h2.101v2.1957h-2.101c-1.0539 0-1.9112.8573-1.9112 1.9112v2.101h-2.196v-2.101c0-1.0539-.8573-1.9112-1.9112-1.9112H13.9481c-1.0538 0-1.9112.8573-1.9112 1.9112v16.0489c0 1.0539.8574 1.9113 1.9112 1.9113h18.0551c1.0539 0 1.9112-.8574 1.9112-1.9113v-4.107h2.196v4.1072c0 1.0538.8573 1.9112 1.9112 1.9112h18.0551c1.0538 0 1.9113-.8574 1.9113-1.9112V32.003c0-1.0539-.8575-1.9112-1.9113-1.9112h-6.1132V27.896h6.1132c1.0538 0 1.9113-.8575 1.9113-1.9113V23.885h2.1958v28.1793a.095.095 0 0 1-.0948.0948H9.936a.095.095 0 0 1-.0949-.0948V1.9113a.095.095 0 0 1 .0948-.0949H49.245a.908.908 0 0 0 .9082-.9082A.908.908 0 0 0 49.245 0H9.936a1.902 1.902 0 0 0-.597.0968A.9025.9025 0 0 0 8.933 0H6.9267a.908.908 0 0 0-.9082.9082.908.908 0 0 0 .9082.9082h1.1026c-.0015.0316-.0048.0629-.0048.0948v50.1531c0 .0319.0033.0632.0048.0948H6.9268a.908.908 0 0 0-.9082.9082.908.908 0 0 0 .9082.9082h1.0978v1.0978a.908.908 0 0 0 .9082.9082.908.908 0 0 0 .9082-.9082v-1.1027c.0316.0016.0629.0049.0948.0049H60.089c.0319 0 .0632-.0033.0948-.0049v1.1027a.908.908 0 0 0 .9082.9082.908.908 0 0 0 .9082-.9082v-2.006a.903.903 0 0 0-.0968-.4063 1.902 1.902 0 0 0 .0968-.5969V22.9768a.908.908 0 0 0-.9081-.9082Z"/></mask><path d="M61.092 22.0686h-1.0978v-1.0992a.9082.9082 0 0 0-.9082-.9082.9082.9082 0 0 0-.9083.9082v1.0992h-1.0978a.908.908 0 0 0-.9082.9082v3.0079a.095.095 0 0 1-.0949.0949h-7.0215a.908.908 0 0 0-.9082.9082v1.0978h-1.0979a.908.908 0 0 0-.9082.9082.908.908 0 0 0 .9082.9082h1.0979V31a.908.908 0 0 0 .9082.9082h7.0214a.095.095 0 0 1 .0949.0948v16.0489a.095.095 0 0 1-.0949.0949H38.0216a.095.095 0 0 1-.0948-.0949v-5.0152a.9081.9081 0 0 0-.9082-.9082h-1.0979v-1.0978a.908.908 0 0 0-.9082-.9082.908.908 0 0 0-.9082.9082v1.0978h-1.0979a.908.908 0 0 0-.9082.9082v5.0154a.095.095 0 0 1-.0949.0948h-18.055a.095.095 0 0 1-.0949-.0948V32.003a.095.095 0 0 1 .0949-.0948h18.055a.095.095 0 0 1 .0949.0948v3.0092a.908.908 0 0 0 .9082.9082h1.0979v1.098a.908.908 0 0 0 .9082.9082.908.908 0 0 0 .9082-.9082v-1.098h1.0979a.9081.9081 0 0 0 .9082-.9082V32.003a.095.095 0 0 1 .0948-.0948h3.0092A.9081.9081 0 0 0 41.939 31v-1.0978h1.0979a.908.908 0 0 0 .9082-.9082.908.908 0 0 0-.9082-.9082H41.939v-1.0979a.9081.9081 0 0 0-.9082-.9082h-3.0092a.095.095 0 0 1-.0948-.0949v-3.0092a.9081.9081 0 0 0-.9082-.9082h-1.0979v-1.0978a.908.908 0 0 0-.9082-.9082.908.908 0 0 0-.9082.9082v1.0978h-1.0979a.908.908 0 0 0-.9082.9082v3.0092a.095.095 0 0 1-.0949.0949h-8.959a.908.908 0 0 0-.9082.9082.908.908 0 0 0 .9082.9082h8.9589c1.0539 0 1.9112-.8574 1.9112-1.9113v-2.101h2.196v2.101c0 1.0539.8573 1.9113 1.9112 1.9113h2.101v2.1957h-2.101c-1.0539 0-1.9112.8573-1.9112 1.9112v2.101h-2.196v-2.101c0-1.0539-.8573-1.9112-1.9112-1.9112H13.9481c-1.0538 0-1.9112.8573-1.9112 1.9112v16.0489c0 1.0539.8574 1.9113 1.9112 1.9113h18.0551c1.0539 0 1.9112-.8574 1.9112-1.9113v-4.107h2.196v4.1072c0 1.0538.8573 1.9112 1.9112 1.9112h18.0551c1.0538 0 1.9113-.8574 1.9113-1.9112V32.003c0-1.0539-.8575-1.9112-1.9113-1.9112h-6.1132V27.896h6.1132c1.0538 0 1.9113-.8575 1.9113-1.9113V23.885h2.1958v28.1793a.095.095 0 0 1-.0948.0948H9.936a.095.095 0 0 1-.0949-.0948V1.9113a.095.095 0 0 1 .0948-.0949H49.245a.908.908 0 0 0 .9082-.9082A.908.908 0 0 0 49.245 0H9.936a1.902 1.902 0 0 0-.597.0968A.9025.9025 0 0 0 8.933 0H6.9267a.908.908 0 0 0-.9082.9082.908.908 0 0 0 .9082.9082h1.1026c-.0015.0316-.0048.0629-.0048.0948v50.1531c0 .0319.0033.0632.0048.0948H6.9268a.908.908 0 0 0-.9082.9082.908.908 0 0 0 .9082.9082h1.0978v1.0978a.908.908 0 0 0 .9082.9082.908.908 0 0 0 .9082-.9082v-1.1027c.0316.0016.0629.0049.0948.0049H60.089c.0319 0 .0632-.0033.0948-.0049v1.1027a.908.908 0 0 0 .9082.9082.908.908 0 0 0 .9082-.9082v-2.006a.903.903 0 0 0-.0968-.4063 1.902 1.902 0 0 0 .0968-.5969V22.9768a.908.908 0 0 0-.9081-.9082Z" fill="#CB8734" stroke="#fff" stroke-width=".4" mask="url(#a)"/><path d="M60.1835 14.1447h.1V1.9112a.195.195 0 0 0-.1948-.1948h-7.2112a.8081.8081 0 0 1-.8082-.8082A.8081.8081 0 0 1 52.8775.1h7.2112c.9986 0 1.8112.8126 1.8111 1.8112V14.953a.8081.8081 0 0 1-.8082.8082H59.8937V16.9571a.808.808 0 0 1-.8082.8082.808.808 0 0 1-.8082-.8082V15.7612H57.0795a.808.808 0 0 1-.8082-.8082V5.9235a.195.195 0 0 0-.1949-.1949H38.0213a.195.195 0 0 0-.1948.195v9.0274a.8081.8081 0 0 1-.8082.8082H35.8204V16.9571a.808.808 0 0 1-.8082.8082.808.808 0 0 1-.8082-.8082V15.7592H33.0061a.808.808 0 0 1-.8082-.8082V5.9235a.195.195 0 0 0-.1949-.1949H13.948a.195.195 0 0 0-.1949.195v20.0611a.195.195 0 0 0 .1949.1949h5.4632a.808.808 0 0 1 .8082.8082.808.808 0 0 1-.8082.8082h-5.4634c-.9986 0-1.8112-.8127-1.8112-1.8113V5.9235c0-.9986.8126-1.8113 1.8112-1.8113h18.0551c.9987 0 1.8112.8127 1.8112 1.8113v8.2193H36.2101V5.9235c0-.9986.8125-1.8113 1.8112-1.8113h18.0551c.9986 0 1.8113.8127 1.8113 1.8113v8.2213h.1l1.0592-.0001v.0001l.0037-.0002a.5562.5562 0 0 0 .0222-.0013.19.19 0 0 1 .0256 0l.0029.0002a.4104.4104 0 0 0 .0193.0011v.0001h1.0629ZM56.1712 58.2774h.1V57.0796a.8083.8083 0 0 1 1.6165 0v4.0123a.808.808 0 0 1-.8082.8082.808.808 0 0 1-.8082-.8082V59.894H13.753V61.0919a.808.808 0 0 1-.8082.8082.808.808 0 0 1-.8082-.8082v-4.0122a.808.808 0 0 1 .8082-.8082.808.808 0 0 1 .8082.8082v1.1977h42.4182ZM3.7227 48.1469v.1H4.9205a.808.808 0 0 1 .8082.8082.8081.8081 0 0 1-.8082.8082H.9082A.8081.8081 0 0 1 .1 49.0551a.808.808 0 0 1 .8082-.8082H2.1062V5.7286H.9082A.808.808 0 0 1 .1 4.9204a.808.808 0 0 1 .8082-.8082h4.0122a.808.808 0 0 1 .8082.8082.808.808 0 0 1-.8082.8082H3.7227V48.147Z" fill="#CB8734" stroke="#fff" stroke-width=".2"/></svg>