<svg width="62" height="62" fill="none" xmlns="http://www.w3.org/2000/svg"><path d="m38.6175 39.8704.0341.0114.0217-.0288 3.327-4.4367 3.327 4.4367.0216.0288.0342-.0114 3.7752-1.2574-1.3344 9.337H36.1766l-1.3344-9.337 3.7753 1.2574Zm7.5158 6.1796h.0433l.0061-.0429.648-4.54.0115-.0801-.0768.0256-2.1138.7056-2.6114-3.4812-.0399-.0533-.04.0533-2.6114 3.4812-2.1138-.7056-.0768-.0256.0115.0801.648 4.54.0061.0429h8.3094Z" fill="#CB8734" stroke="#fff" stroke-width=".1"/><path d="M30.05 42c0-6.5894 5.3606-11.95 11.95-11.95 6.5894 0 11.95 5.3606 11.95 11.95 0 6.5894-5.3606 11.95-11.95 11.95-6.5894 0-11.95-5.3606-11.95-11.95Zm1.9 0c0 5.5416 4.5084 10.05 10.05 10.05 5.5416 0 10.05-4.5084 10.05-10.05 0-5.5416-4.5084-10.05-10.05-10.05-5.5416 0-10.05 4.5084-10.05 10.05Z" fill="#CB8734" stroke="#fff" stroke-width=".1"/><path d="M55.4373 44.1285a18.7278 18.7278 0 0 0-2.4315 5.8694c-.1651.7323-.5348 1.4017-1.0715 1.9373m3.503-7.8067-3.503 7.8067m3.503-7.8067c.4011-.635.6127-1.3713.6127-2.1286 0-.7574-.2116-1.4936-.6117-2.1267-1.143-1.8142-1.9598-3.7879-2.4315-5.8694-.1652-.7333-.5359-1.4017-1.0714-1.9383-.5356-.5366-1.2051-.9063-1.9374-1.0714a18.698 18.698 0 0 1-5.8693-2.4315c-.6351-.4011-1.3714-.6127-2.1287-.6127-.7573 0-1.4936.2116-2.1267.6117-1.8112 1.1419-3.7849 1.9597-5.8693 2.4315-.7334.1651-1.4018.5358-1.9383 1.0714-.5367.5356-.9064 1.205-1.0715 1.9373l24.4431 10.1267Zm-3.503 7.8067c-.5346.5346-1.204.9053-1.9373 1.0714a18.7352 18.7352 0 0 0-5.8702 2.4315c-1.2684.8033-2.9852.8033-4.2555 0-1.8082-1.1419-3.7839-1.9587-5.8694-2.4315a3.9738 3.9738 0 0 1-1.9373-1.0714c-.5356-.5356-.9063-1.205-1.0714-1.9384-.4717-2.0814-1.2885-4.0551-2.4315-5.8693-.4001-.6341-.6117-1.3703-.6117-2.1276 0-.7574.2116-1.4937.6127-2.1287a18.7283 18.7283 0 0 0 2.4315-5.8693l20.9401 17.9333ZM50.415 29.1396c1.0827.2439 2.0723.7912 2.8626 1.5816.7904.7904 1.3377 1.7809 1.5816 2.8636l.0488-.0109-.0488.011c.4233 1.8695 1.1585 3.6448 2.1845 5.2736v.0001c.5929.9369.9063 2.0236.9063 3.1413 0 1.1176-.3134 2.2043-.9053 3.1412v.0001a16.8152 16.8152 0 0 0-2.1845 5.2736v.0001c-.2439 1.0826-.7912 2.0722-1.5816 2.8626a5.8773 5.8773 0 0 1-2.8617 1.5816 16.855 16.855 0 0 0-5.2756 2.1844v.0001c-.937.5929-2.0237.9063-3.1413.9063-1.1176 0-2.2044-.3134-3.1413-.9053a16.8142 16.8142 0 0 0-5.2746-2.1845 5.8773 5.8773 0 0 1-2.8617-1.5816c-.7904-.7904-1.3377-1.78-1.5816-2.8636v-.0001c-.4233-1.8695-1.1585-3.6448-2.1845-5.2736v-.0001c-.5929-.9369-.9063-2.0236-.9063-3.1412 0-1.1177.3134-2.2044.9043-3.1424a16.8152 16.8152 0 0 0 2.1845-5.2736c.2439-1.0817.7912-2.0723 1.5816-2.8627.7903-.7904 1.7799-1.3377 2.8636-1.5816 1.8716-.4232 3.6469-1.1594 5.2737-2.1844v-.0001c1.8747-1.1847 4.4069-1.1847 6.2836 0l.0267-.0422-.0267.0422a16.7946 16.7946 0 0 0 5.2737 2.1845Z" fill="#CB8734" stroke="#fff" stroke-width=".1"/><path d="M14 16.05h.05V2c0-1.0754.8746-1.95 1.95-1.95h33.3933L61.95 12.6067V60c0 1.0754-.8746 1.95-1.95 1.95H2C.9246 61.95.05 61.0754.05 60v-6c0-2.1784 1.7716-3.95 3.95-3.95h1.5969l-.0275-.0686-1.275-3.188-.0464.0186.0464-.0186A3.4057 3.4057 0 0 1 4.05 45.524c0-1.302.7233-2.4717 1.8894-3.0553l.0002-.0001.083-.042.0274-.0139V39.082h.0007l-.0014-.0082-1.962-11.769-.0012-.0074-.0034-.0068-2.2104-4.4217L7.5544 16.05H14ZM52.05 14v-.05h-4v-6h-24.1V16.05h28.1V14Zm-2.1-2v.05h8.7567l-.0853-.0854-8.586-8.586-.0854-.0853V12ZM16.865 22.05h.1068l-.0684-.082-3.334-4-.015-.018H11.95v4.1h4.915Zm-2.712 16h.0424l.0069-.0418 1.666-10 .0097-.0582H6.121l.0097.0582 1.667 10 .007.0418h6.3483ZM14.05 40v-.05h-6.1V42.05h6.1V40ZM5.5733 26.0224l.0138.0276H10.05V23.95H4.5371l.0362.0724 1 2Zm10.8087.0276h.0309l.0138-.0276 1-2 .0362-.0724H11.95V26.05H16.382Zm-7.913-8.1h-.0234l-.015.018-3.334 4-.0684.082H10.05v-4.1H8.469ZM6.0576 46.0875v.0001l1.573 3.931.0126.0314h6.7137l.0125-.0314 1.572-3.93a1.5108 1.5108 0 0 0 .1086-.5646c0-.577-.3217-1.0973-.8386-1.3557l-.426-.213-.0106-.0053H7.2262l-.0105.0053-.425.2119c-.519.2585-.8407.7788-.8407 1.3568 0 .1953.0362.3846.1076.5635ZM20.001 56.05h.05V56l-.001-2c0-1.1306-.9194-2.05-2.05-2.05H4c-1.1306 0-2.05.9194-2.05 2.05v2.05H20.001ZM1.95 60v.05h18.102V60l-.001-2v-.05H1.95V60Zm20 0v.05H60.05V13.95h-6.1v4h-31.9V6.05h26v-4.1H15.95v15.9061l.0116.0139 4.1651 4.9989-2.2104 4.4217-.0034.0068-.0012.0074-1.961 11.769-.0007-.0001v3.3395l.0281.0137.0835.0408.0004.0002c1.1649.5836 1.888 1.7542 1.888 3.0561 0 .4386-.0828.8653-.2454 1.2704l-1.274 3.187-.0274.0686H18c2.1784 0 3.95 1.7716 3.95 3.95v6Z" fill="#CB8734" stroke="#fff" stroke-width=".1"/></svg>