<svg width="18" height="18" viewBox="0 0 18 18" fill="none" xmlns="http://www.w3.org/2000/svg">
<path fill-rule="evenodd" clip-rule="evenodd" d="M16.4647 0.146447C16.66 -0.0488155 16.9766 -0.0488155 17.1718 0.146447C17.3671 0.341709 17.3671 0.658291 17.1718 0.853553L9.36628 8.6591L17.1719 16.4647C17.3672 16.66 17.3672 16.9766 17.1719 17.1718C16.9766 17.3671 16.6601 17.3671 16.4648 17.1718L8.65917 9.36621L0.853554 17.1718C0.658291 17.3671 0.341709 17.3671 0.146446 17.1718C-0.0488148 16.9766 -0.0488148 16.66 0.146446 16.4647L7.95206 8.6591L0.146513 0.853553C-0.048749 0.658291 -0.048749 0.341709 0.146513 0.146447C0.341775 -0.0488155 0.658358 -0.0488155 0.85362 0.146447L8.65917 7.952L16.4647 0.146447Z" fill="#2B2A28"/>
</svg>
