<svg width="129" height="89" fill="none" xmlns="http://www.w3.org/2000/svg"><path opacity=".1" d="M69.646 88.409c-7 9.24-16.753 13.86-29.26 13.86-12.507 0-22.307-4.62-29.4-13.86-7-9.334-10.5-21.7-10.5-37.1 0-15.4 3.5-27.72 10.5-36.96 7.093-9.334 16.893-14 29.4-14 12.507 0 22.26 4.666 29.26 14 7.093 9.24 10.64 21.56 10.64 36.96 0 15.4-3.547 27.766-10.64 37.1zm-46.76-37.1c0 19.413 5.833 29.12 17.5 29.12s17.5-9.707 17.5-29.12c0-19.414-5.833-29.12-17.5-29.12s-17.5 9.706-17.5 29.12zm85.869-49h19.6v98h-22.4v-74.34l-17.36 4.76-5.46-19.18 25.62-9.24z" fill="#CB8734"/></svg>