<svg width="152" height="89" fill="none" xmlns="http://www.w3.org/2000/svg"><path opacity=".1" d="M69.462 88.409c-7 9.24-16.753 13.86-29.26 13.86-12.506 0-22.306-4.62-29.4-13.86-7-9.334-10.5-21.7-10.5-37.1 0-15.4 3.5-27.72 10.5-36.96 7.094-9.334 16.894-14 29.4-14 12.507 0 22.26 4.666 29.26 14 7.094 9.24 10.64 21.56 10.64 36.96 0 15.4-3.546 27.766-10.64 37.1zm-46.76-37.1c0 19.413 5.834 29.12 17.5 29.12 11.667 0 17.5-9.707 17.5-29.12 0-19.414-5.833-29.12-17.5-29.12-11.666 0-17.5 9.706-17.5 29.12zm61.93 49v-16.24l32.9-34.16c6.626-6.814 9.94-12.6 9.94-17.36 0-3.08-.934-5.554-2.8-7.42-1.867-1.96-4.434-2.94-7.7-2.94-6.534 0-11.34 3.546-14.42 10.64l-18.9-11.06c2.986-7 7.466-12.32 13.44-15.96 5.973-3.64 12.506-5.46 19.6-5.46 9.146 0 16.94 2.846 23.38 8.54 6.533 5.6 9.8 13.16 9.8 22.68 0 10.36-5.087 20.626-15.26 30.8l-16.24 16.38h32.9v21.56h-66.64z" fill="#CB8734"/></svg>