<svg width="154" height="92" fill="none" xmlns="http://www.w3.org/2000/svg"><path opacity=".1" d="M69.642 88.248c-7 9.24-16.753 13.86-29.26 13.86-12.507 0-22.307-4.62-29.4-13.86-7-9.333-10.5-21.7-10.5-37.1 0-15.4 3.5-27.72 10.5-36.96 7.093-9.333 16.893-14 29.4-14 12.507 0 22.26 4.667 29.26 14 7.093 9.24 10.64 21.56 10.64 36.96 0 15.4-3.547 27.767-10.64 37.1zm-46.76-37.1c0 19.413 5.833 29.12 17.5 29.12s17.5-9.707 17.5-29.12-5.833-29.12-17.5-29.12-17.5 9.707-17.5 29.12zm109.285-9.24c6.254 2.147 11.294 5.647 15.12 10.5 3.827 4.76 5.74 10.407 5.74 16.94 0 10.267-3.453 18.293-10.36 24.08-6.906 5.787-15.353 8.68-25.34 8.68-7.746 0-14.7-1.773-20.86-5.32-6.066-3.546-10.546-8.773-13.44-15.68l19.32-11.2c2.427 6.907 7.42 10.36 14.98 10.36 4.387 0 7.7-1.026 9.94-3.08 2.24-2.053 3.36-4.666 3.36-7.84 0-3.173-1.12-5.786-3.36-7.84-2.24-2.053-5.553-3.08-9.94-3.08h-4.62l-8.54-12.74 17.78-22.54h-35.84v-21h63v18.2l-16.94 21.56z" fill="#CB8734"/></svg>