<svg width="164" height="93" fill="none" xmlns="http://www.w3.org/2000/svg"><path opacity=".1" d="M69.165 88.35c-7 9.24-16.753 13.86-29.26 13.86-12.506 0-22.306-4.62-29.4-13.86-7-9.334-10.5-21.7-10.5-37.1 0-15.4 3.5-27.72 10.5-36.96C17.6 4.956 27.4.29 39.905.29c12.507 0 22.26 4.666 29.26 14 7.094 9.24 10.64 21.56 10.64 36.96 0 15.4-3.546 27.766-10.64 37.1zm-46.76-37.1c0 19.413 5.834 29.12 17.5 29.12 11.667 0 17.5-9.707 17.5-29.12 0-19.414-5.833-29.12-17.5-29.12-11.666 0-17.5 9.706-17.5 29.12zm141.384 12.6v20.72h-9.8v15.68h-22.68V84.57h-44.52V63.85l31.22-61.6h24.08l-31.22 61.6h20.44v-21h22.68v21h9.8z" fill="#CB8734"/></svg>