<svg width="21" height="15" fill="none" xmlns="http://www.w3.org/2000/svg"><mask id="a" style="mask-type:alpha" maskUnits="userSpaceOnUse" x="0" y="0" width="21" height="15"><path d="M19 0H2a2 2 0 0 0-2 2v11a2 2 0 0 0 2 2h17a2 2 0 0 0 2-2V2a2 2 0 0 0-2-2z" fill="#fff"/></mask><g mask="url(#a)"><path d="M19 0H2a2 2 0 0 0-2 2v11a2 2 0 0 0 2 2h17a2 2 0 0 0 2-2V2a2 2 0 0 0-2-2z" fill="#0034A9"/><path fill-rule="evenodd" clip-rule="evenodd" d="M0 10h21v5H0v-5z" fill="#D7280F"/><path fill-rule="evenodd" clip-rule="evenodd" d="M0 0h21v5H0V0z" fill="#fff"/></g></svg>