<svg width="62" height="62" fill="none" xmlns="http://www.w3.org/2000/svg"><path fill="#fff" d="M0 0h62v62H0z"/><path d="M58.5 5H58V3a1 1 0 0 0-1-1h-4a1 1 0 0 0-1 1v2h-6V3a1 1 0 0 0-1-1h-4a1 1 0 0 0-1 1v2h-6V3a1 1 0 0 0-1-1h-4a1 1 0 0 0-1 1v2h-6V3a1 1 0 0 0-1-1h-4a1 1 0 0 0-1 1v2h-6V3a1 1 0 0 0-1-1H5a1 1 0 0 0-1 1v2h-.5A3.504 3.504 0 0 0 0 8.5v44A3.504 3.504 0 0 0 3.5 56h12.819a20.961 20.961 0 0 0 29.362 0H58.5a3.504 3.504 0 0 0 3.5-3.5v-44A3.504 3.504 0 0 0 58.5 5zM54 4h2v4h-2V4zM42 4h2v4h-2V4zM30 4h2v4h-2V4zM18 4h2v4h-2V4zM6 4h2v4H6V4zm25 56c-10.476 0-19-8.524-19-19s8.524-19 19-19 19 8.524 19 19-8.524 19-19 19zm29-7.5a1.501 1.501 0 0 1-1.5 1.5H47.481A20.903 20.903 0 0 0 52 41c0-11.58-9.42-21-21-21s-21 9.42-21 21a20.903 20.903 0 0 0 4.519 13H3.5A1.501 1.501 0 0 1 2 52.5V13h58v39.5zM60 11H2V8.5A1.501 1.501 0 0 1 3.5 7H4v2a1 1 0 0 0 1 1h4a1 1 0 0 0 1-1V7h6v2a1 1 0 0 0 1 1h4a1 1 0 0 0 1-1V7h6v2a1 1 0 0 0 1 1h4a1 1 0 0 0 1-1V7h6v2a1 1 0 0 0 1 1h4a1 1 0 0 0 1-1V7h6v2a1 1 0 0 0 1 1h4a1 1 0 0 0 1-1V7h.5A1.501 1.501 0 0 1 60 8.5V11z" fill="#CB8734"/><path d="M31 24c-9.374 0-17 7.626-17 17 0 9.374 7.626 17 17 17 9.374 0 17-7.626 17-17 0-9.374-7.626-17-17-17zm0 32a15 15 0 1 1 15-15 15.017 15.017 0 0 1-15 15z" fill="#CB8734"/><path d="M32 40.586V31a1 1 0 0 0-2 0v10a1.001 1.001 0 0 0 .293.707l4 4a1 1 0 1 0 1.414-1.414L32 40.586z" fill="#CB8734"/></svg>