<svg width="62" height="62" fill="none" xmlns="http://www.w3.org/2000/svg"><path d="M61.987 23.702a.975.975 0 0 0-.042-.21 1.032 1.032 0 0 0-.059-.178.928.928 0 0 0-.103-.158.978.978 0 0 0-.138-.16c-.016-.015-.023-.034-.04-.049l-9.939-7.718v-8a3.1 3.1 0 0 0-3.1-3.1H37.367L32.883.648a3.064 3.064 0 0 0-3.769 0L24.63 4.129H13.431a3.1 3.1 0 0 0-3.1 3.1v8L.396 22.947c-.018.015-.025.035-.042.049a.967.967 0 0 0-.137.16.92.92 0 0 0-.103.158 1.02 1.02 0 0 0-.06.178.98.98 0 0 0-.042.207c0 .021-.012.04-.012.062v35.138c.001.657.214 1.297.607 1.824.006.009.007.02.014.029.007.008.023.017.033.029a3.085 3.085 0 0 0 2.443 1.218H58.9a3.086 3.086 0 0 0 2.451-1.224c.008-.01.02-.013.028-.023.007-.01.008-.02.014-.03A3.066 3.066 0 0 0 62 58.9V23.764c0-.022-.011-.04-.013-.062zM30.378 2.279a.99.99 0 0 1 1.233 0l2.384 1.85h-5.994l2.377-1.85zM3.358 59.932l27.02-20.989a.992.992 0 0 1 1.233 0l27.028 20.99H3.357zm56.575-1.61-27.05-21.01a3.066 3.066 0 0 0-3.769 0l-27.05 21.01V25.337l16.934 13.15a1.034 1.034 0 1 0 1.267-1.635L3.06 23.495l7.27-5.65v7.985a1.033 1.033 0 1 0 2.066 0V7.23c0-.571.463-1.034 1.034-1.034h35.135c.57 0 1.033.463 1.033 1.033V25.83a1.033 1.033 0 1 0 2.067 0v-7.984l7.27 5.649-17.234 13.382a1.033 1.033 0 1 0 1.267 1.633l16.964-13.172V58.32z" fill="#CB8734"/><path d="M43.399 24.797v-4.133c0-6.85-5.552-12.401-12.4-12.401-6.85 0-12.401 5.552-12.401 12.4 0 6.85 5.552 12.401 12.4 12.401a1.033 1.033 0 1 0 0-2.067c-5.707 0-10.334-4.626-10.334-10.333 0-5.708 4.627-10.334 10.334-10.334s10.334 4.627 10.334 10.334v4.133a2.067 2.067 0 1 1-4.133 0v-4.133a1.033 1.033 0 1 0-2.067 0 4.134 4.134 0 1 1-4.134-4.134 1.033 1.033 0 1 0 0-2.067 6.2 6.2 0 1 0 4.178 10.77 4.122 4.122 0 0 0 8.223-.436z" fill="#CB8734"/></svg>