<svg width="62" height="62" fill="none" xmlns="http://www.w3.org/2000/svg"><path fill="#fff" d="M0 0h62v62H0z"/><path d="m20.275 57.938.17.17v-.24l.003-2.408c0-.613.497-1.11 1.11-1.11h13.075a6.162 6.162 0 0 0 6.154-6.155V39.84a1.111 1.111 0 0 1 2.222 0v8.355c0 4.62-3.757 8.377-8.376 8.377H22.668v.1l-.002 4.118a1.11 1.11 0 0 1-1.897.785L15.796 56.6l-.03-.03H8.477C3.857 56.572.1 52.815.1 48.196V29.547c0-4.619 3.758-8.377 8.377-8.377h12.23a1.111 1.111 0 0 1 0 2.222H8.477a6.162 6.162 0 0 0-6.155 6.155v18.648a6.162 6.162 0 0 0 6.155 6.155h7.868c.454 0 .847.273 1.019.667l.008.018.013.013 2.89 2.89z" fill="#CB8734" stroke="#fff" stroke-width=".2"/><path d="m48.937 34.557-.04-.04-.056.014c-1.444.379-2.935.57-4.441.57h-3.065c-9.65 0-17.5-7.85-17.5-17.5S31.684.1 41.334.1H44.4c9.65 0 17.5 7.85 17.5 17.5 0 2.796-.64 5.467-1.902 7.941a17.67 17.67 0 0 1-4.6 5.672l-.037.03v7.054c0 .449-.27.854-.686 1.026a1.108 1.108 0 0 1-1.21-.24l-4.528-4.526zm4.031.888.171.17V30.7c0-.349.164-.677.443-.887 3.874-2.918 6.096-7.37 6.096-12.212 0-8.425-6.854-15.28-15.278-15.28h-3.065c-8.425 0-15.279 6.855-15.279 15.28 0 8.424 6.854 15.278 15.279 15.278H44.4c1.53 0 3.043-.226 4.494-.672a1.11 1.11 0 0 1 1.111.276l2.963 2.962z" fill="#CB8734" stroke="#fff" stroke-width=".2"/><path d="M43.407 10.813c-.789-.054-1.54.211-2.114.747a2.779 2.779 0 0 0-.892 2.051 1.111 1.111 0 0 1-2.222 0c0-1.388.582-2.728 1.597-3.675l6.128 3.48.1-.006a2.806 2.806 0 0 0-2.597-2.597zm0 0-.007.1.007-.1zM43.206 25.085c.292 0 .579.12.785.326.207.206.326.493.326.785 0 .293-.119.579-.326.787a1.119 1.119 0 0 1-.785.324c-.292 0-.579-.118-.785-.324a1.121 1.121 0 0 1-.326-.787c0-.292.12-.579.326-.785a1.12 1.12 0 0 1 .785-.326zM7.75 37.64H33.3a1.11 1.11 0 0 1 0 2.22H7.75a1.11 1.11 0 1 1 0-2.22zM34.086 44.746c.207.206.326.493.326.785 0 .293-.12.58-.326.786a1.12 1.12 0 0 1-.785.325 1.12 1.12 0 0 1-.786-.325 1.12 1.12 0 0 1-.325-.786c0-.292.119-.579.325-.785a1.12 1.12 0 0 1 .786-.326c.292 0 .579.12.785.326zM7.75 44.42h20.788a1.11 1.11 0 0 1 0 2.222H7.75a1.111 1.111 0 0 1 0-2.222zM7.75 30.858h17.68a1.111 1.111 0 0 1 0 2.222H7.75a1.111 1.111 0 0 1 0-2.222z" fill="#CB8734" stroke="#fff" stroke-width=".2"/></svg>