<svg width="62" height="62" fill="none" xmlns="http://www.w3.org/2000/svg"><path fill="#fff" d="M0 0h62v62H0z"/><path d="M57.695 2H35.4a.908.908 0 1 0 0 1.816h22.295a2.491 2.491 0 0 1 2.489 2.489V29.69a2.491 2.491 0 0 1-2.489 2.489h-3.56a.907.907 0 0 0-.533.172l-6.193 4.486v-3.75a.908.908 0 0 0-.908-.908H26.789a2.491 2.491 0 0 1-2.488-2.489V6.305a2.491 2.491 0 0 1 2.488-2.489h4.653a.908.908 0 1 0 0-1.816H26.79a4.31 4.31 0 0 0-4.305 4.305V29.69a4.31 4.31 0 0 0 4.305 4.305h18.804v4.62c0 .342.191.654.495.81.322.153.637.129.946-.074l7.395-5.356h3.266A4.31 4.31 0 0 0 62 29.691V6.305A4.31 4.31 0 0 0 57.695 2z" fill="#CB8734"/><path d="M52.745 50.002a4.232 4.232 0 0 0-2.188-3.159l-4.038-2.2a.908.908 0 1 0-.87 1.595l4.039 2.2a2.433 2.433 0 0 1 1.26 1.83 2.435 2.435 0 0 1-.733 2.1l-.595.571-14.909-8.389 1.752-1.541a2.383 2.383 0 0 1 2.709-.302l2.52 1.373a.908.908 0 0 0 .869-1.595l-2.52-1.373a4.206 4.206 0 0 0-4.777.533l-4.084 3.591a2.399 2.399 0 0 1-2.968.166c-6.15-4.309-10.616-9.049-13.654-14.49a2.394 2.394 0 0 1 .356-2.82l3.232-3.418a4.21 4.21 0 0 0 .703-4.757L13.41 9.039a4.236 4.236 0 0 0-3.053-2.294 4.238 4.238 0 0 0-3.67 1.065L4.621 9.718a14.264 14.264 0 0 0-4.37 7.889 14.096 14.096 0 0 0 1.23 8.95 70.024 70.024 0 0 0 3.313 5.96.908.908 0 0 0 1.544-.958 68.207 68.207 0 0 1-3.24-5.83C.71 20.897 1.777 14.97 5.678 11.221l8.19 15.333-.274.29a4.203 4.203 0 0 0-.622 4.952C16.146 37.483 20.79 42.42 27.17 46.89a4.212 4.212 0 0 0 5.21-.29l.886-.779 14.986 8.432-.016.015a12.499 12.499 0 0 1-14.398 2.101C23.544 51.048 15.175 44.014 8.965 35.463a.908.908 0 1 0-1.47 1.067c6.378 8.783 14.96 16 25.509 21.453a14.267 14.267 0 0 0 6.558 1.595c3.619 0 7.197-1.372 9.932-4l1.98-1.9a4.233 4.233 0 0 0 1.271-3.676zM7.055 9.943l.865-.799a2.439 2.439 0 0 1 2.11-.612c.767.14 1.407.62 1.755 1.319l5.44 10.878c.444.89.284 1.974-.4 2.697l-1.641 1.737-8.13-15.22zM54.68 18.858a3.176 3.176 0 0 0-3.173-3.172 3.176 3.176 0 0 0-3.172 3.172 3.176 3.176 0 0 0 3.172 3.172 3.176 3.176 0 0 0 3.173-3.172zm-4.529 0c0-.747.608-1.356 1.356-1.356.748 0 1.356.609 1.356 1.356 0 .748-.608 1.356-1.356 1.356a1.357 1.357 0 0 1-1.356-1.356zM45.415 18.858a3.176 3.176 0 0 0-3.172-3.172 3.176 3.176 0 0 0-3.173 3.172 3.176 3.176 0 0 0 3.173 3.172 3.176 3.176 0 0 0 3.172-3.172zm-4.529 0a1.358 1.358 0 0 1 2.712 0c0 .748-.608 1.356-1.355 1.356a1.357 1.357 0 0 1-1.357-1.356zM29.806 18.858a3.176 3.176 0 0 0 3.172 3.172 3.176 3.176 0 0 0 3.172-3.172 3.176 3.176 0 0 0-3.172-3.172 3.176 3.176 0 0 0-3.172 3.172zm3.172-1.356c.748 0 1.356.609 1.356 1.356 0 .748-.608 1.356-1.356 1.356a1.357 1.357 0 0 1-1.356-1.356c0-.747.608-1.356 1.356-1.356z" fill="#CB8734"/></svg>